{
.appVersion = "1075";
copyright = "Copyright © 2018 by Cadson Demak Co.,Ltd.. All rights reserved.";
customParameters = (
{
name = vendorID;
value = CDK;
},
{
name = description;
value = "Copyright (c) 2018, Cadson Demak (info@cadsondemak.com)";
},
{
name = license;

glyphs = (
{
color = 4;
glyphname = A;
lastChange = "2018-02-26 14:41:34 +0000";
layers = (
{
anchors = (
{
name = bottom;
position = "{284, 0}";
},
{
name = ogonek;
position = "{503, 10}";
},
{
name = top;
position = "{284, 700}";
}
);
background = {
paths = (
{
closed = 1;
nodes = (
"303 710 LINE",
"245 710 LINE",
"-20 0 LINE",
"43 0 LINE",
"123 225 LINE",
"424 225 LINE",
"505 0 LINE",
"568 0 LINE"
);
},
{
closed = 1;
nodes = (
"140 273 LINE",
"274 647 LINE",
"406 273 LINE"
);
}
);
};
layerId = "0B1DFD06-3317-40CA-B510-4969A0718C16";
paths = (
{
closed = 1;
nodes = (
"83 0 LINE",
"284 637 LINE",
"485 0 LINE",
"548 0 LINE",
"313 700 LINE",
"255 700 LINE",
"20 0 LINE"
);
},
{
closed = 1;
nodes = (
"447 175 LINE",
"429 223 LINE",
"137 223 LINE",
"120 175 LINE"
);
}
);
width = 568;
}
);
note = A;
unicode = 0041;
},
{
color = 4;
glyphname = B;
lastChange = "2018-02-26 14:41:34 +0000";
layers = (
{
anchors = (
{
name = bottom;
position = "{290, 0}";
},
{
name = top;
position = "{290, 700}";
}
);
background = {
paths = (
{
closed = 1;
nodes = (
"510 291 OFFCURVE",
"436 356 OFFCURVE",
"366 373 CURVE",
"436 398 OFFCURVE",
"482 462 OFFCURVE",
"482 532 CURVE SMOOTH",
"482 650 OFFCURVE",
"396 709 OFFCURVE",
"227 709 CURVE SMOOTH",
"179 709 OFFCURVE",
"129 703 OFFCURVE",
"80 689 CURVE",
"80 6 LINE",
"126 -4 OFFCURVE",
"172 -9 OFFCURVE",
"214 -9 CURVE SMOOTH",
"411 -9 OFFCURVE",
"510 59 OFFCURVE",
"510 196 CURVE SMOOTH"
);
},
{
closed = 1;
nodes = (
"424 492 OFFCURVE",
"410 460 OFFCURVE",
"382 435 CURVE SMOOTH",
"351 407 OFFCURVE",
"308 394 OFFCURVE",
"257 394 CURVE SMOOTH",
"138 394 LINE",
"138 650 LINE",
"167 657 OFFCURVE",
"197 660 OFFCURVE",
"227 660 CURVE SMOOTH",
"358 660 OFFCURVE",
"424 617 OFFCURVE",
"424 531 CURVE SMOOTH"
);
},
{
closed = 1;
nodes = (
"454 140 OFFCURVE",
"429 100 OFFCURVE",
"380 72 CURVE SMOOTH",
"341 50 OFFCURVE",
"289 38 OFFCURVE",
"226 38 CURVE SMOOTH",
"194 38 OFFCURVE",
"164 41 OFFCURVE",
"138 47 CURVE",
"138 347 LINE",
"239 347 LINE SMOOTH",
"363 347 OFFCURVE",
"454 298 OFFCURVE",
"454 194 CURVE SMOOTH"
);
}
);
};
layerId = "0B1DFD06-3317-40CA-B510-4969A0718C16";
paths = (
{
closed = 1;
nodes = (
"284 0 LINE",
"446 0 OFFCURVE",
"520 62 OFFCURVE",
"520 196 CURVE SMOOTH",
"520 297 OFFCURVE",
"475 352 OFFCURVE",
"376 371 CURVE",
"376 375 LINE",
"456 399 OFFCURVE",
"492 453 OFFCURVE",
"492 536 CURVE SMOOTH",
"492 651 OFFCURVE",
"415 700 OFFCURVE",
"247 700 CURVE SMOOTH",
"90 700 LINE",
"90 0 LINE"
);
},
{
closed = 1;
nodes = (
"148 347 LINE",
"249 347 LINE SMOOTH",
"396 347 OFFCURVE",
"464 299 OFFCURVE",
"464 194 CURVE SMOOTH",
"464 95 OFFCURVE",
"411 50 OFFCURVE",
"296 50 CURVE SMOOTH",
"148 50 LINE"
);
},
{
closed = 1;
nodes = (
"148 650 LINE",
"257 650 LINE SMOOTH",
"378 650 OFFCURVE",
"434 617 OFFCURVE",
"434 535 CURVE SMOOTH",
"434 441 OFFCURVE",
"385 394 OFFCURVE",
"277 394 CURVE SMOOTH",
"148 394 LINE"
);
}
);
width = 580;
}
);
note = B;
unicode = 0042;
},
{
color = 4;
glyphname = C;
lastChange = "2018-02-26 14:41:34 +0000";
layers = (
{
anchors = (
{
name = bottom;
position = "{339, 0}";
},
{
name = top;
position = "{328, 700}";
}
);
background = {
paths = (
{
closed = 1;
nodes = (
"483 51 OFFCURVE",
"425 40 OFFCURVE",
"365 40 CURVE SMOOTH",
"290 40 OFFCURVE",
"225 68 OFFCURVE",
"172 123 CURVE SMOOTH",
"117 182 OFFCURVE",
"89 257 OFFCURVE",
"89 350 CURVE SMOOTH",
"89 442 OFFCURVE",
"117 517 OFFCURVE",
"172 576 CURVE SMOOTH",
"225 632 OFFCURVE",
"290 660 OFFCURVE",
"365 660 CURVE SMOOTH",
"425 660 OFFCURVE",
"483 648 OFFCURVE",
"535 626 CURVE",
"553 673 LINE",
"502 698 OFFCURVE",
"437 710 OFFCURVE",
"362 710 CURVE SMOOTH",
"266 710 OFFCURVE",
"187 676 OFFCURVE",
"124 609 CURVE SMOOTH",
"61 542 OFFCURVE",
"30 456 OFFCURVE",
"30 351 CURVE SMOOTH",
"30 247 OFFCURVE",
"61 160 OFFCURVE",
"124 91 CURVE SMOOTH",
"187 24 OFFCURVE",
"266 -10 OFFCURVE",
"362 -10 CURVE SMOOTH",
"437 -10 OFFCURVE",
"502 1 OFFCURVE",
"553 26 CURVE",
"535 74 LINE"
);
}
);
};
layerId = "0B1DFD06-3317-40CA-B510-4969A0718C16";
paths = (
{
closed = 1;
nodes = (
"448 -10 OFFCURVE",
"509 43 OFFCURVE",
"537 89 CURVE",
"506 127 LINE",
"477 81 OFFCURVE",
"432 40 OFFCURVE",
"328 40 CURVE SMOOTH",
"182 40 OFFCURVE",
"99 164 OFFCURVE",
"99 350 CURVE SMOOTH",
"99 536 OFFCURVE",
"182 660 OFFCURVE",
"328 660 CURVE SMOOTH",
"432 660 OFFCURVE",
"477 619 OFFCURVE",
"506 573 CURVE",
"537 611 LINE",
"509 657 OFFCURVE",
"448 710 OFFCURVE",
"328 710 CURVE SMOOTH",
"147 710 OFFCURVE",
"40 565 OFFCURVE",
"40 350 CURVE SMOOTH",
"40 135 OFFCURVE",
"147 -10 OFFCURVE",
"328 -10 CURVE SMOOTH"
);
}
);
width = 577;
}
);
note = C;
unicode = 0043;
},
{
color = 4;
glyphname = D;
lastChange = "2018-02-26 17:48:05 +0000";
layers = (
{
anchors = (
{
name = bottom;
position = "{290, 0}";
},
{
name = center;
position = "{311, 350}";
},
{
name = top;
position = "{307, 700}";
}
);
background = {
paths = (
{
closed = 1;
nodes = (
"592 470 OFFCURVE",
"564 554 OFFCURVE",
"507 617 CURVE SMOOTH",
"451 678 OFFCURVE",
"379 707 OFFCURVE",
"289 707 CURVE SMOOTH",
"241 707 OFFCURVE",
"170 701 OFFCURVE",
"80 689 CURVE",
"80 7 LINE",
"170 -1 OFFCURVE",
"230 -6 OFFCURVE",
"260 -6 CURVE SMOOTH",
"482 -6 OFFCURVE",
"592 118 OFFCURVE",
"592 365 CURVE SMOOTH"
);
},
{
closed = 1;
nodes = (
"535 163 OFFCURVE",
"436 44 OFFCURVE",
"277 44 CURVE SMOOTH",
"233 44 OFFCURVE",
"186 47 OFFCURVE",
"138 53 CURVE",
"138 645 LINE",
"205 653 OFFCURVE",
"254 657 OFFCURVE",
"285 657 CURVE SMOOTH",
"357 657 OFFCURVE",
"416 632 OFFCURVE",
"461 584 CURVE SMOOTH",
"510 531 OFFCURVE",
"535 457 OFFCURVE",
"535 365 CURVE SMOOTH"
);
}
);
};
layerId = "0B1DFD06-3317-40CA-B510-4969A0718C16";
paths = (
{
closed = 1;
nodes = (
"280 0 LINE SMOOTH",
"502 0 OFFCURVE",
"572 118 OFFCURVE",
"572 365 CURVE SMOOTH",
"572 567 OFFCURVE",
"500 700 OFFCURVE",
"309 700 CURVE SMOOTH",
"90 700 LINE",
"90 0 LINE"
);
},
{
closed = 1;
nodes = (
"148 650 LINE",
"305 650 LINE SMOOTH",
"459 650 OFFCURVE",
"515 539 OFFCURVE",
"515 365 CURVE SMOOTH",
"515 163 OFFCURVE",
"456 50 OFFCURVE",
"297 50 CURVE SMOOTH",
"148 50 LINE"
);
}
);
width = 622;
}
);
note = D;
unicode = 0044;
},
{
color = 4;
glyphname = E;
lastChange = "2018-02-26 15:02:16 +0000";
layers = (
{
anchors = (
{
name = bottom;
position = "{291, 0}";
},
{
name = ogonek;
position = "{449, 10}";
},
{
name = top;
position = "{291, 700}";
},
{
name = topleft;
position = "{30, 700}";
}
);
background = {
paths = (
{
closed = 1;
nodes = (
"461 49 LINE",
"138 49 LINE",
"138 345 LINE",
"426 345 LINE",
"426 394 LINE",
"138 394 LINE",
"138 651 LINE",
"461 651 LINE",
"461 700 LINE",
"80 700 LINE",
"80 0 LINE",
"461 0 LINE"
);
}
);
};
layerId = "0B1DFD06-3317-40CA-B510-4969A0718C16";
paths = (
{
closed = 1;
nodes = (
"481 0 LINE",
"481 50 LINE",
"148 50 LINE",
"148 344 LINE",
"446 344 LINE",
"446 394 LINE",
"148 394 LINE",
"148 650 LINE",
"481 650 LINE",
"481 700 LINE",
"90 700 LINE",
"90 0 LINE"
);
}
);
width = 541;
}
);
note = E;
unicode = 0045;
},
{
color = 4;
glyphname = F;
lastChange = "2018-02-26 15:02:22 +0000";
layers = (
{
anchors = (
{
name = bottom;
position = "{268, 0}";
},
{
name = top;
position = "{268, 700}";
}
);
background = {
paths = (
{
closed = 1;
nodes = (
"454 385 LINE",
"138 385 LINE",
"138 651 LINE",
"476 651 LINE",
"476 700 LINE",
"80 700 LINE",
"80 0 LINE",
"138 0 LINE",
"138 337 LINE",
"454 337 LINE"
);
}
);
};
layerId = "0B1DFD06-3317-40CA-B510-4969A0718C16";
paths = (
{
closed = 1;
nodes = (
"148 0 LINE",
"148 315 LINE",
"464 315 LINE",
"464 365 LINE",
"148 365 LINE",
"148 650 LINE",
"486 650 LINE",
"486 700 LINE",
"90 700 LINE",
"90 0 LINE"
);
}
);
width = 536;
}
);
note = F;
unicode = 0046;
},
{
color = 4;
glyphname = G;
lastChange = "2018-02-26 14:41:34 +0000";
layers = (
{
anchors = (
{
name = bottom;
position = "{337, 0}";
},
{
name = top;
position = "{337, 700}";
}
);
background = {
paths = (
{
closed = 1;
nodes = (
"325 350 LINE",
"325 303 LINE",
"503 303 LINE",
"503 76 LINE",
"452 51 OFFCURVE",
"396 40 OFFCURVE",
"334 40 CURVE SMOOTH",
"177 40 OFFCURVE",
"89 157 OFFCURVE",
"89 350 CURVE SMOOTH",
"89 440 OFFCURVE",
"114 515 OFFCURVE",
"162 572 CURVE SMOOTH",
"212 629 OFFCURVE",
"274 659 OFFCURVE",
"347 659 CURVE SMOOTH",
"405 659 OFFCURVE",
"462 647 OFFCURVE",
"521 625 CURVE",
"538 672 LINE",
"484 695 OFFCURVE",
"422 707 OFFCURVE",
"350 707 CURVE SMOOTH",
"250 707 OFFCURVE",
"171 673 OFFCURVE",
"114 604 CURVE SMOOTH",
"58 539 OFFCURVE",
"30 456 OFFCURVE",
"30 351 CURVE SMOOTH",
"30 243 OFFCURVE",
"56 156 OFFCURVE",
"111 90 CURVE SMOOTH",
"165 25 OFFCURVE",
"236 -7 OFFCURVE",
"325 -7 CURVE SMOOTH",
"344 -7 OFFCURVE",
"384 -3 OFFCURVE",
"441 7 CURVE SMOOTH",
"499 18 OFFCURVE",
"528 24 OFFCURVE",
"528 24 CURVE",
"541 24 OFFCURVE",
"552 21 OFFCURVE",
"559 15 CURVE",
"559 350 LINE"
);
}
);
};
layerId = "0B1DFD06-3317-40CA-B510-4969A0718C16";
paths = (
{
closed = 1;
nodes = (
"451 -10 OFFCURVE",
"519 43 OFFCURVE",
"547 89 CURVE",
"516 127 LINE",
"487 81 OFFCURVE",
"435 40 OFFCURVE",
"331 40 CURVE SMOOTH",
"185 40 OFFCURVE",
"99 164 OFFCURVE",
"99 350 CURVE SMOOTH",
"99 536 OFFCURVE",
"185 660 OFFCURVE",
"331 660 CURVE SMOOTH",
"435 660 OFFCURVE",
"487 619 OFFCURVE",
"516 573 CURVE",
"547 611 LINE",
"519 657 OFFCURVE",
"451 710 OFFCURVE",
"331 710 CURVE SMOOTH",
"150 710 OFFCURVE",
"40 565 OFFCURVE",
"40 350 CURVE SMOOTH",
"40 135 OFFCURVE",
"150 -10 OFFCURVE",
"331 -10 CURVE SMOOTH"
);
},
{
closed = 1;
nodes = (
"559 0 LINE",
"559 350 LINE",
"325 350 LINE",
"325 303 LINE",
"503 303 LINE",
"503 76 LINE",
"528 0 LINE"
);
}
);
width = 629;
}
);
note = G;
unicode = 0047;
},
{
color = 4;
glyphname = H;
lastChange = "2018-02-26 15:02:30 +0000";
layers = (
{
anchors = (
{
name = bottom;
position = "{335, 0}";
},
{
name = center;
position = "{335, 350}";
},
{
name = top;
position = "{335, 700}";
},
{
name = topleft;
position = "{119, 500}";
}
);
background = {
paths = (
{
closed = 1;
nodes = (
"570 700 LINE",
"513 700 LINE",
"513 397 LINE",
"138 397 LINE",
"138 700 LINE",
"80 700 LINE",
"80 0 LINE",
"138 0 LINE",
"138 348 LINE",
"513 348 LINE",
"513 0 LINE",
"570 0 LINE"
);
}
);
};
layerId = "0B1DFD06-3317-40CA-B510-4969A0718C16";
paths = (
{
closed = 1;
nodes = (
"148 0 LINE",
"148 327 LINE",
"523 327 LINE",
"523 0 LINE",
"581 0 LINE",
"581 700 LINE",
"523 700 LINE",
"523 377 LINE",
"148 377 LINE",
"148 700 LINE",
"90 700 LINE",
"90 0 LINE"
);
}
);
width = 671;
}
);
note = H;
unicode = 0048;
},
{
color = 4;
glyphname = I;
lastChange = "2018-02-26 14:41:34 +0000";
layers = (
{
anchors = (
{
name = bottom;
position = "{139, 0}";
},
{
name = ogonek;
position = "{139, 10}";
},
{
name = top;
position = "{139, 700}";
},
{
name = topleft;
position = "{30, 700}";
}
);
background = {
paths = (
{
closed = 1;
nodes = (
"158 700 LINE",
"100 700 LINE",
"100 0 LINE",
"158 0 LINE"
);
}
);
};
layerId = "0B1DFD06-3317-40CA-B510-4969A0718C16";
paths = (
{
closed = 1;
nodes = (
"168 0 LINE",
"168 700 LINE",
"110 700 LINE",
"110 0 LINE"
);
}
);
width = 278;
}
);
note = I;
unicode = 0049;
},
{
color = 4;
glyphname = J;
lastChange = "2018-02-26 14:41:34 +0000";
layers = (
{
anchors = (
{
name = bottom;
position = "{134, 0}";
},
{
name = top;
position = "{204, 700}";
}
);
background = {
paths = (
{
closed = 1;
nodes = (
"309 700 LINE",
"251 700 LINE",
"251 244 LINE SMOOTH",
"251 87 OFFCURVE",
"204 37 OFFCURVE",
"103 37 CURVE SMOOTH",
"66 37 OFFCURVE",
"35 43 OFFCURVE",
"13 54 CURVE",
"-1 9 LINE",
"29 -6 OFFCURVE",
"65 -13 OFFCURVE",
"103 -13 CURVE SMOOTH",
"240 -13 OFFCURVE",
"309 68 OFFCURVE",
"309 229 CURVE SMOOTH"
);
}
);
};
layerId = "0B1DFD06-3317-40CA-B510-4969A0718C16";
paths = (
{
closed = 1;
nodes = (
"266 -10 OFFCURVE",
"319 59 OFFCURVE",
"319 222 CURVE SMOOTH",
"319 700 LINE",
"261 700 LINE",
"261 237 LINE SMOOTH",
"261 99 OFFCURVE",
"225 40 OFFCURVE",
"134 40 CURVE SMOOTH",
"97 40 OFFCURVE",
"52 54 OFFCURVE",
"30 74 CURVE",
"9 29 LINE",
"39 4 OFFCURVE",
"96 -10 OFFCURVE",
"134 -10 CURVE SMOOTH"
);
}
);
width = 408;
}
);
note = J;
unicode = 004A;
},
{
color = 4;
glyphname = K;
lastChange = "2018-02-26 14:41:34 +0000";
layers = (
{
anchors = (
{
name = bottom;
position = "{287, 0}";
},
{
name = top;
position = "{287, 700}";
}
);
background = {
paths = (
{
closed = 1;
nodes = (
"251 401 LINE",
"542 692 LINE",
"485 709 LINE",
"137 363 LINE",
"137 700 LINE",
"79 700 LINE",
"79 0 LINE",
"137 0 LINE",
"137 290 LINE",
"212 365 LINE",
"522 -7 LINE",
"573 13 LINE"
);
}
);
};
layerId = "0B1DFD06-3317-40CA-B510-4969A0718C16";
paths = (
{
closed = 1;
nodes = (
"147 0 LINE",
"147 250 LINE",
"534 700 LINE",
"468 700 LINE",
"147 323 LINE",
"147 700 LINE",
"89 700 LINE",
"89 0 LINE"
);
},
{
closed = 1;
nodes = (
"563 0 LINE",
"286 427 LINE",
"247 386 LINE",
"503 0 LINE"
);
}
);
width = 573;
}
);
note = K;
unicode = 004B;
},
{
color = 4;
glyphname = L;
lastChange = "2018-02-26 15:02:37 +0000";
layers = (
{
anchors = (
{
name = bottom;
position = "{271, 0}";
},
{
name = center;
position = "{317, 350}";
},
{
name = top;
position = "{119, 700}";
},
{
name = topright;
position = "{510, 700}";
}
);
background = {
paths = (
{
closed = 1;
nodes = (
"482 49 LINE",
"138 49 LINE",
"138 700 LINE",
"80 700 LINE",
"80 0 LINE",
"482 0 LINE"
);
}
);
};
layerId = "0B1DFD06-3317-40CA-B510-4969A0718C16";
paths = (
{
closed = 1;
nodes = (
"492 0 LINE",
"492 50 LINE",
"148 50 LINE",
"148 700 LINE",
"90 700 LINE",
"90 0 LINE"
);
}
);
width = 540;
}
);
note = L;
unicode = 004C;
},
{
color = 4;
glyphname = M;
lastChange = "2018-02-26 14:41:34 +0000";
layers = (
{
anchors = (
{
name = bottom;
position = "{394, 0}";
},
{
name = top;
position = "{394, 700}";
}
);
background = {
paths = (
{
closed = 1;
nodes = (
"723 700 LINE",
"656 700 LINE",
"428 72 LINE",
"200 700 LINE",
"132 700 LINE",
"84 0 LINE",
"138 0 LINE",
"182 617 LINE",
"409 0 LINE",
"447 0 LINE",
"673 617 LINE",
"717 0 LINE",
"772 0 LINE"
);
}
);
};
layerId = "0B1DFD06-3317-40CA-B510-4969A0718C16";
paths = (
{
closed = 1;
nodes = (
"146 0 LINE",
"146 617 LINE",
"375 0 LINE",
"413 0 LINE",
"642 617 LINE",
"642 0 LINE",
"698 0 LINE",
"698 700 LINE",
"622 700 LINE",
"394 77 LINE",
"166 700 LINE",
"90 700 LINE",
"90 0 LINE"
);
}
);
width = 788;
}
);
note = M;
unicode = 004D;
},
{
color = 4;
glyphname = N;
lastChange = "2018-02-26 14:41:34 +0000";
layers = (
{
anchors = (
{
name = bottom;
position = "{335, 0}";
},
{
name = top;
position = "{335, 700}";
}
);
background = {
paths = (
{
closed = 1;
nodes = (
"570 700 LINE",
"514 700 LINE",
"514 90 LINE",
"147 700 LINE",
"80 700 LINE",
"80 0 LINE",
"139 0 LINE",
"139 619 LINE",
"510 0 LINE",
"570 0 LINE"
);
}
);
};
layerId = "0B1DFD06-3317-40CA-B510-4969A0718C16";
paths = (
{
closed = 1;
nodes = (
"146 0 LINE",
"146 619 LINE",
"520 0 LINE",
"580 0 LINE",
"580 700 LINE",
"524 700 LINE",
"524 90 LINE",
"157 700 LINE",
"90 700 LINE",
"90 0 LINE"
);
}
);
width = 670;
}
);
note = N;
unicode = 004E;
},
{
color = 4;
glyphname = O;
lastChange = "2018-02-26 14:41:34 +0000";
layers = (
{
anchors = (
{
name = bottom;
position = "{325, 0}";
},
{
name = center;
position = "{325, 350}";
},
{
name = ogonek;
position = "{577, 10}";
},
{
name = top;
position = "{325, 700}";
},
{
name = topleft;
position = "{30, 700}";
},
{
name = topright;
position = "{561, 505}";
}
);
background = {
paths = (
{
closed = 1;
nodes = (
"650 548 OFFCURVE",
"528 711 OFFCURVE",
"325 711 CURVE SMOOTH",
"123 711 OFFCURVE",
"0 552 OFFCURVE",
"0 348 CURVE SMOOTH",
"0 147 OFFCURVE",
"123 -15 OFFCURVE",
"325 -15 CURVE SMOOTH",
"525 -15 OFFCURVE",
"650 147 OFFCURVE",
"650 348 CURVE SMOOTH"
);
},
{
closed = 1;
nodes = (
"593 183 OFFCURVE",
"491 35 OFFCURVE",
"325 35 CURVE SMOOTH",
"161 35 OFFCURVE",
"58 181 OFFCURVE",
"58 348 CURVE SMOOTH",
"58 514 OFFCURVE",
"163 662 OFFCURVE",
"325 662 CURVE SMOOTH",
"488 662 OFFCURVE",
"593 515 OFFCURVE",
"593 348 CURVE SMOOTH"
);
}
);
};
layerId = "0B1DFD06-3317-40CA-B510-4969A0718C16";
paths = (
{
closed = 1;
nodes = (
"502 -10 OFFCURVE",
"610 134 OFFCURVE",
"610 350 CURVE SMOOTH",
"610 566 OFFCURVE",
"502 710 OFFCURVE",
"325 710 CURVE SMOOTH",
"141 710 OFFCURVE",
"40 556 OFFCURVE",
"40 350 CURVE SMOOTH",
"40 134 OFFCURVE",
"148 -10 OFFCURVE",
"325 -10 CURVE SMOOTH"
);
},
{
closed = 1;
nodes = (
"183 38 OFFCURVE",
"98 163 OFFCURVE",
"98 350 CURVE SMOOTH",
"98 537 OFFCURVE",
"183 662 OFFCURVE",
"325 662 CURVE SMOOTH",
"467 662 OFFCURVE",
"552 537 OFFCURVE",
"552 350 CURVE SMOOTH",
"552 163 OFFCURVE",
"467 38 OFFCURVE",
"325 38 CURVE SMOOTH"
);
}
);
width = 650;
}
);
note = O;
unicode = 004F;
},
{
color = 4;
glyphname = P;
lastChange = "2018-02-26 14:41:34 +0000";
layers = (
{
anchors = (
{
name = bottom;
position = "{282, 0}";
},
{
name = top;
position = "{282, 700}";
}
);
background = {
paths = (
{
closed = 1;
nodes = (
"508 570 OFFCURVE",
"482 622 OFFCURVE",
"427 659 CURVE SMOOTH",
"379 691 OFFCURVE",
"320 707 OFFCURVE",
"249 707 CURVE SMOOTH",
"195 707 OFFCURVE",
"139 703 OFFCURVE",
"80 692 CURVE",
"80 0 LINE",
"138 0 LINE",
"138 294 LINE",
"167 288 OFFCURVE",
"198 285 OFFCURVE",
"229 285 CURVE SMOOTH",
"305 284 OFFCURVE",
"369 301 OFFCURVE",
"420 335 CURVE SMOOTH",
"479 375 OFFCURVE",
"508 432 OFFCURVE",
"508 506 CURVE SMOOTH"
);
},
{
closed = 1;
nodes = (
"454 397 OFFCURVE",
"383 341 OFFCURVE",
"241 334 CURVE",
"198 334 OFFCURVE",
"164 337 OFFCURVE",
"138 344 CURVE",
"138 650 LINE",
"163 654 OFFCURVE",
"199 657 OFFCURVE",
"248 657 CURVE SMOOTH",
"385 657 OFFCURVE",
"454 606 OFFCURVE",
"454 501 CURVE SMOOTH"
);
}
);
};
layerId = "0B1DFD06-3317-40CA-B510-4969A0718C16";
paths = (
{
closed = 1;
nodes = (
"148 0 LINE",
"148 275 LINE",
"274 275 LINE SMOOTH",
"424 275 OFFCURVE",
"503 359 OFFCURVE",
"503 495 CURVE SMOOTH",
"503 631 OFFCURVE",
"423 700 OFFCURVE",
"279 700 CURVE SMOOTH",
"90 700 LINE",
"90 0 LINE"
);
},
{
closed = 1;
nodes = (
"148 650 LINE",
"278 650 LINE SMOOTH",
"387 650 OFFCURVE",
"449 596 OFFCURVE",
"449 490 CURVE SMOOTH",
"449 389 OFFCURVE",
"393 325 OFFCURVE",
"286 325 CURVE SMOOTH",
"148 325 LINE"
);
}
);
width = 563;
}
);
note = P;
unicode = 0050;
},
{
color = 4;
glyphname = Q;
lastChange = "2018-02-26 15:02:44 +0000";
layers = (
{
anchors = (
{
name = bottom;
position = "{325, 0}";
},
{
name = top;
position = "{325, 700}";
}
);
background = {
paths = (
{
closed = 1;
nodes = (
"682 453 OFFCURVE",
"651 539 OFFCURVE",
"591 609 CURVE SMOOTH",
"531 678 OFFCURVE",
"453 711 OFFCURVE",
"357 711 CURVE SMOOTH",
"262 711 OFFCURVE",
"182 678 OFFCURVE",
"122 609 CURVE SMOOTH",
"62 539 OFFCURVE",
"32 453 OFFCURVE",
"32 348 CURVE SMOOTH",
"32 244 OFFCURVE",
"62 157 OFFCURVE",
"122 88 CURVE SMOOTH",
"182 19 OFFCURVE",
"262 -15 OFFCURVE",
"357 -15 CURVE",
"438 -49 OFFCURVE",
"526 -76 OFFCURVE",
"623 -98 CURVE",
"644 -44 LINE",
"569 -40 OFFCURVE",
"501 -26 OFFCURVE",
"444 -1 CURVE",
"519 18 OFFCURVE",
"578 60 OFFCURVE",
"620 126 CURVE SMOOTH",
"662 190 OFFCURVE",
"682 265 OFFCURVE",
"682 348 CURVE SMOOTH"
);
},
{
closed = 1;
nodes = (
"625 262 OFFCURVE",
"600 188 OFFCURVE",
"550 126 CURVE SMOOTH",
"500 66 OFFCURVE",
"435 35 OFFCURVE",
"357 35 CURVE SMOOTH",
"279 35 OFFCURVE",
"215 66 OFFCURVE",
"165 126 CURVE SMOOTH",
"115 188 OFFCURVE",
"90 262 OFFCURVE",
"90 348 CURVE SMOOTH",
"90 435 OFFCURVE",
"115 509 OFFCURVE",
"165 569 CURVE SMOOTH",
"215 631 OFFCURVE",
"279 662 OFFCURVE",
"357 662 CURVE SMOOTH",
"435 662 OFFCURVE",
"500 631 OFFCURVE",
"550 569 CURVE SMOOTH",
"600 509 OFFCURVE",
"625 435 OFFCURVE",
"625 348 CURVE SMOOTH"
);
}
);
};
components = (
{
name = O;
transform = "{1, 0, 0, 1, 20, 0}";
}
);
layerId = "0B1DFD06-3317-40CA-B510-4969A0718C16";
paths = (
{
closed = 1;
nodes = (
"600 -55 LINE",
"515 -41 OFFCURVE",
"449 -22 OFFCURVE",
"390 7 CURVE",
"310 -3 LINE",
"392 -45 OFFCURVE",
"484 -80 OFFCURVE",
"590 -98 CURVE"
);
}
);
width = 650;
}
);
note = Q;
unicode = 0051;
},
{
color = 4;
glyphname = R;
lastChange = "2018-02-26 14:41:34 +0000";
layers = (
{
anchors = (
{
name = bottom;
position = "{287, 0}";
},
{
name = top;
position = "{287, 700}";
}
);
background = {
paths = (
{
closed = 1;
nodes = (
"526 0 LINE",
"515 79 OFFCURVE",
"503 140 OFFCURVE",
"490 179 CURVE SMOOTH",
"463 257 OFFCURVE",
"423 310 OFFCURVE",
"372 338 CURVE",
"462 372 OFFCURVE",
"507 432 OFFCURVE",
"507 519 CURVE SMOOTH",
"507 582 OFFCURVE",
"482 629 OFFCURVE",
"431 663 CURVE SMOOTH",
"387 691 OFFCURVE",
"326 706 OFFCURVE",
"251 707 CURVE SMOOTH",
"191 707 OFFCURVE",
"134 701 OFFCURVE",
"79 691 CURVE",
"79 0 LINE",
"137 0 LINE",
"137 319 LINE",
"272 319 LINE SMOOTH",
"378 319 OFFCURVE",
"444 213 OFFCURVE",
"470 0 CURVE"
);
},
{
closed = 1;
nodes = (
"453 419 OFFCURVE",
"384 365 OFFCURVE",
"268 365 CURVE SMOOTH",
"137 365 LINE",
"137 647 LINE",
"159 654 OFFCURVE",
"197 657 OFFCURVE",
"251 657 CURVE SMOOTH",
"385 657 OFFCURVE",
"453 609 OFFCURVE",
"453 512 CURVE SMOOTH"
);
}
);
};
layerId = "0B1DFD06-3317-40CA-B510-4969A0718C16";
paths = (
{
closed = 1;
nodes = (
"148 0 LINE",
"148 295 LINE",
"274 295 LINE SMOOTH",
"424 295 OFFCURVE",
"503 366 OFFCURVE",
"503 511 CURVE SMOOTH",
"503 638 OFFCURVE",
"428 700 OFFCURVE",
"284 700 CURVE SMOOTH",
"90 700 LINE",
"90 0 LINE"
);
},
{
closed = 1;
nodes = (
"148 650 LINE",
"283 650 LINE SMOOTH",
"392 650 OFFCURVE",
"449 604 OFFCURVE",
"449 506 CURVE SMOOTH",
"449 397 OFFCURVE",
"393 345 OFFCURVE",
"286 345 CURVE SMOOTH",
"148 345 LINE"
);
},
{
closed = 1;
nodes = (
"523 0 LINE",
"352 319 LINE",
"290 319 LINE",
"463 0 LINE"
);
}
);
width = 573;
}
);
note = R;
unicode = 0052;
},
{
color = 4;
glyphname = S;
lastChange = "2018-02-26 14:41:34 +0000";
layers = (
{
anchors = (
{
name = bottom;
position = "{261, 0}";
},
{
name = top;
position = "{261, 700}";
}
);
layerId = "0B1DFD06-3317-40CA-B510-4969A0718C16";
paths = (
{
closed = 1;
nodes = (
"387 -10 OFFCURVE",
"471 64 OFFCURVE",
"471 175 CURVE SMOOTH",
"471 291 OFFCURVE",
"386 342 OFFCURVE",
"301 384 CURVE SMOOTH",
"215 427 OFFCURVE",
"128 460 OFFCURVE",
"128 544 CURVE SMOOTH",
"128 614 OFFCURVE",
"183 660 OFFCURVE",
"266 660 CURVE SMOOTH",
"327 660 OFFCURVE",
"389 627 OFFCURVE",
"421 577 CURVE",
"460 605 LINE",
"427 668 OFFCURVE",
"350 710 OFFCURVE",
"268 710 CURVE SMOOTH",
"149 710 OFFCURVE",
"70 644 OFFCURVE",
"70 540 CURVE SMOOTH",
"70 430 OFFCURVE",
"168 389 OFFCURVE",
"259 344 CURVE SMOOTH",
"339 304 OFFCURVE",
"413 262 OFFCURVE",
"413 169 CURVE SMOOTH",
"413 92 OFFCURVE",
"352 40 OFFCURVE",
"260 40 CURVE SMOOTH",
"193 40 OFFCURVE",
"125 76 OFFCURVE",
"87 128 CURVE",
"50 89 LINE",
"92 30 OFFCURVE",
"173 -10 OFFCURVE",
"257 -10 CURVE SMOOTH"
);
}
);
width = 521;
}
);
note = S;
unicode = 0053;
},
{
color = 4;
glyphname = T;
lastChange = "2018-02-26 14:41:34 +0000";
layers = (
{
anchors = (
{
name = bottom;
position = "{269, 0}";
},
{
name = center;
position = "{269, 350}";
},
{
name = top;
position = "{269, 700}";
}
);
background = {
paths = (
{
closed = 1;
nodes = (
"544 700 LINE",
"-27 700 LINE",
"-27 651 LINE",
"231 651 LINE",
"231 0 LINE",
"287 0 LINE",
"287 651 LINE",
"544 651 LINE"
);
}
);
};
layerId = "0B1DFD06-3317-40CA-B510-4969A0718C16";
paths = (
{
closed = 1;
nodes = (
"298 0 LINE",
"298 650 LINE",
"518 650 LINE",
"518 700 LINE",
"20 700 LINE",
"20 650 LINE",
"240 650 LINE",
"240 0 LINE"
);
}
);
width = 538;
}
);
note = T;
unicode = 0054;
},
{
color = 4;
glyphname = U;
lastChange = "2018-02-26 14:41:34 +0000";
layers = (
{
anchors = (
{
name = bottom;
position = "{328, 0}";
},
{
name = ogonek;
position = "{582, 10}";
},
{
name = top;
position = "{328, 700}";
},
{
name = topright;
position = "{564, 505}";
}
);
background = {
paths = (
{
closed = 1;
nodes = (
"607 700 LINE",
"549 700 LINE",
"549 297 LINE SMOOTH",
"551 113 OFFCURVE",
"468 35 OFFCURVE",
"344 35 CURVE SMOOTH",
"220 35 OFFCURVE",
"138 113 OFFCURVE",
"138 297 CURVE SMOOTH",
"138 700 LINE",
"80 700 LINE",
"80 295 LINE SMOOTH",
"80 90 OFFCURVE",
"169 -13 OFFCURVE",
"344 -13 CURVE SMOOTH",
"518 -13 OFFCURVE",
"607 90 OFFCURVE",
"607 295 CURVE SMOOTH"
);
}
);
};
layerId = "0B1DFD06-3317-40CA-B510-4969A0718C16";
paths = (
{
closed = 1;
nodes = (
"488 -10 OFFCURVE",
"566 88 OFFCURVE",
"566 275 CURVE SMOOTH",
"566 700 LINE",
"508 700 LINE",
"508 277 LINE SMOOTH",
"508 121 OFFCURVE",
"450 40 OFFCURVE",
"328 40 CURVE SMOOTH",
"206 40 OFFCURVE",
"148 121 OFFCURVE",
"148 277 CURVE SMOOTH",
"148 700 LINE",
"90 700 LINE",
"90 275 LINE SMOOTH",
"90 88 OFFCURVE",
"168 -10 OFFCURVE",
"328 -10 CURVE SMOOTH"
);
}
);
width = 656;
}
);
note = U;
unicode = 0055;
},
{
color = 4;
glyphname = V;
lastChange = "2018-02-26 14:41:34 +0000";
layers = (
{
anchors = (
{
name = bottom;
position = "{287, 0}";
},
{
name = top;
position = "{287, 700}";
}
);
background = {
paths = (
{
closed = 1;
nodes = (
"519 700 LINE",
"297 66 LINE",
"75 700 LINE",
"10 700 LINE",
"266 0 LINE",
"328 0 LINE",
"583 700 LINE"
);
}
);
};
layerId = "0B1DFD06-3317-40CA-B510-4969A0718C16";
paths = (
{
closed = 1;
nodes = (
"318 0 LINE",
"554 700 LINE",
"491 700 LINE",
"287 66 LINE",
"83 700 LINE",
"20 700 LINE",
"256 0 LINE"
);
}
);
width = 574;
}
);
note = V;
unicode = 0056;
},
{
color = 4;
glyphname = W;
lastChange = "2018-02-26 14:41:34 +0000";
layers = (
{
anchors = (
{
name = bottom;
position = "{402, 0}";
},
{
name = top;
position = "{402, 700}";
}
);
background = {
paths = (
{
closed = 1;
nodes = (
"760 700 LINE",
"582 66 LINE",
"425 700 LINE",
"360 700 LINE",
"203 66 LINE",
"25 700 LINE",
"-40 700 LINE",
"172 0 LINE",
"233 0 LINE",
"392 635 LINE",
"551 0 LINE",
"613 0 LINE",
"824 700 LINE"
);
}
);
};
layerId = "0B1DFD06-3317-40CA-B510-4969A0718C16";
paths = (
{
closed = 1;
nodes = (
"235 0 LINE",
"402 628 LINE",
"569 0 LINE",
"630 0 LINE",
"774 700 LINE",
"711 700 LINE",
"599 73 LINE",
"434 700 LINE",
"370 700 LINE",
"205 73 LINE",
"93 700 LINE",
"30 700 LINE",
"174 0 LINE"
);
}
);
width = 804;
}
);
note = W;
unicode = 0057;
},
{
color = 4;
glyphname = X;
lastChange = "2018-02-26 14:41:34 +0000";
layers = (
{
anchors = (
{
name = bottom;
position = "{287, 0}";
},
{
name = top;
position = "{287, 700}";
}
);
background = {
paths = (
{
closed = 1;
nodes = (
"311 359 LINE",
"549 700 LINE",
"480 700 LINE",
"277 394 LINE",
"74 700 LINE",
"5 700 LINE",
"243 359 LINE",
"-5 0 LINE",
"63 0 LINE",
"277 316 LINE",
"492 0 LINE",
"559 0 LINE"
);
}
);
};
layerId = "0B1DFD06-3317-40CA-B510-4969A0718C16";
paths = (
{
closed = 1;
nodes = (
"108 0 LINE",
"287 316 LINE",
"467 0 LINE",
"534 0 LINE",
"321 359 LINE",
"524 700 LINE",
"455 700 LINE",
"287 394 LINE",
"119 700 LINE",
"50 700 LINE",
"253 359 LINE",
"40 0 LINE"
);
}
);
width = 574;
}
);
note = X;
unicode = 0058;
},
{
color = 4;
glyphname = Y;
lastChange = "2018-02-26 14:41:34 +0000";
layers = (
{
anchors = (
{
name = bottom;
position = "{269, 0}";
},
{
name = top;
position = "{269, 700}";
},
{
name = topleft;
position = "{30, 700}";
}
);
background = {
paths = (
{
closed = 1;
nodes = (
"462 700 LINE",
"259 357 LINE",
"56 700 LINE",
"-10 700 LINE",
"231 307 LINE",
"231 0 LINE",
"287 0 LINE",
"287 309 LINE",
"528 700 LINE"
);
}
);
};
layerId = "0B1DFD06-3317-40CA-B510-4969A0718C16";
paths = (
{
closed = 1;
nodes = (
"298 0 LINE",
"298 277 LINE",
"518 700 LINE",
"452 700 LINE",
"269 327 LINE",
"86 700 LINE",
"20 700 LINE",
"240 277 LINE",
"240 0 LINE"
);
}
);
width = 538;
}
);
note = Y;
unicode = 0059;
},
{
color = 4;
glyphname = Z;
lastChange = "2018-02-26 14:41:34 +0000";
layers = (
{
anchors = (
{
name = bottom;
position = "{276, 0}";
},
{
name = top;
position = "{276, 700}";
}
);
background = {
paths = (
{
closed = 1;
nodes = (
"105 49 LINE",
"579 660 LINE",
"579 700 LINE",
"69 700 LINE",
"60 651 LINE",
"505 651 LINE",
"30 38 LINE",
"30 0 LINE",
"586 0 LINE",
"598 49 LINE"
);
}
);
};
layerId = "0B1DFD06-3317-40CA-B510-4969A0718C16";
paths = (
{
closed = 1;
nodes = (
"512 0 LINE",
"512 50 LINE",
"110 50 LINE",
"499 660 LINE",
"499 700 LINE",
"70 700 LINE",
"70 650 LINE",
"430 650 LINE",
"40 38 LINE",
"40 0 LINE"
);
}
);
width = 552;
}
);
note = Z;
unicode = 005A;
},
{
color = 4;
glyphname = a;
lastChange = "2018-02-26 16:13:33 +0000";
layers = (
{
anchors = (
{
name = bottom;
position = "{222, 0}";
},
{
name = ogonek;
position = "{413, 10}";
},
{
name = top;
position = "{251, 500}";
}
);
background = {
paths = (
{
closed = 1;
nodes = (
"447 0 LINE",
"435 40 OFFCURVE",
"429 81 OFFCURVE",
"429 122 CURVE SMOOTH",
"429 301 LINE SMOOTH",
"429 441 OFFCURVE",
"366 510 OFFCURVE",
"240 510 CURVE SMOOTH",
"181 510 OFFCURVE",
"123 501 OFFCURVE",
"69 484 CURVE",
"76 431 LINE",
"148 453 OFFCURVE",
"201 465 OFFCURVE",
"235 465 CURVE SMOOTH",
"290 465 OFFCURVE",
"328 445 OFFCURVE",
"350 406 CURVE SMOOTH",
"365 381 OFFCURVE",
"372 353 OFFCURVE",
"372 320 CURVE SMOOTH",
"372 312 LINE",
"363 312 LINE SMOOTH",
"147 312 OFFCURVE",
"38 250 OFFCURVE",
"38 125 CURVE SMOOTH",
"38 38 OFFCURVE",
"110 -13 OFFCURVE",
"197 -13 CURVE SMOOTH",
"270 -13 OFFCURVE",
"329 15 OFFCURVE",
"375 71 CURVE",
"395 -10 LINE"
);
},
{
closed = 1;
nodes = (
"372 162 LINE SMOOTH",
"372 154 OFFCURVE",
"369 144 OFFCURVE",
"365 134 CURVE SMOOTH",
"334 68 OFFCURVE",
"279 35 OFFCURVE",
"201 35 CURVE SMOOTH",
"143 35 OFFCURVE",
"98 71 OFFCURVE",
"98 135 CURVE SMOOTH",
"98 219 OFFCURVE",
"190 262 OFFCURVE",
"372 262 CURVE"
);
}
);
};
layerId = "0B1DFD06-3317-40CA-B510-4969A0718C16";
paths = (
{
closed = 1;
nodes = (
"283 -10 OFFCURVE",
"343 19 OFFCURVE",
"380 77 CURVE",
"383 47 OFFCURVE",
"387 18 OFFCURVE",
"393 0 CURVE",
"440 0 LINE",
"434 29 OFFCURVE",
"429 60 OFFCURVE",
"429 92 CURVE SMOOTH",
"429 335 LINE SMOOTH",
"429 441 OFFCURVE",
"366 510 OFFCURVE",
"245 510 CURVE SMOOTH",
"165 510 OFFCURVE",
"104 476 OFFCURVE",
"67 419 CURVE",
"101 382 LINE",
"131 432 OFFCURVE",
"181 462 OFFCURVE",
"241 462 CURVE SMOOTH",
"327 462 OFFCURVE",
"373 415 OFFCURVE",
"373 326 CURVE SMOOTH",
"373 296 LINE",
"253 296 LINE SMOOTH",
"121 296 OFFCURVE",
"48 238 OFFCURVE",
"48 140 CURVE SMOOTH",
"48 48 OFFCURVE",
"119 -10 OFFCURVE",
"214 -10 CURVE SMOOTH"
);
},
{
closed = 1;
nodes = (
"150 38 OFFCURVE",
"102 77 OFFCURVE",
"102 140 CURVE SMOOTH",
"102 210 OFFCURVE",
"155 252 OFFCURVE",
"250 252 CURVE SMOOTH",
"373 252 LINE",
"373 162 LINE SMOOTH",
"373 107 OFFCURVE",
"316 38 OFFCURVE",
"215 38 CURVE SMOOTH"
);
}
);
width = 506;
}
);
note = a;
unicode = 0061;
},
{
color = 4;
glyphname = b;
lastChange = "2018-02-19 16:08:12 +0000";
layers = (
{
anchors = (
{
name = bottom;
position = "{267, 0}";
},
{
name = top;
position = "{267, 500}";
}
);
background = {
paths = (
{
closed = 1;
nodes = (
"546 403 OFFCURVE",
"461 510 OFFCURVE",
"321 510 CURVE SMOOTH",
"238 510 OFFCURVE",
"174 475 OFFCURVE",
"132 404 CURVE",
"132 742 LINE",
"74 742 LINE",
"74 122 LINE SMOOTH",
"74 66 OFFCURVE",
"73 25 OFFCURVE",
"70 0 CURVE",
"123 0 LINE",
"124 25 OFFCURVE",
"126 54 OFFCURVE",
"126 88 CURVE",
"171 21 OFFCURVE",
"235 -13 OFFCURVE",
"313 -13 CURVE SMOOTH",
"455 -13 OFFCURVE",
"546 96 OFFCURVE",
"546 256 CURVE SMOOTH"
);
},
{
closed = 1;
nodes = (
"490 109 OFFCURVE",
"429 35 OFFCURVE",
"305 35 CURVE SMOOTH",
"207 35 OFFCURVE",
"132 106 OFFCURVE",
"132 200 CURVE SMOOTH",
"132 284 LINE SMOOTH",
"132 338 OFFCURVE",
"151 382 OFFCURVE",
"189 416 CURVE",
"223 448 OFFCURVE",
"264 465 OFFCURVE",
"311 465 CURVE SMOOTH",
"424 465 OFFCURVE",
"490 378 OFFCURVE",
"490 254 CURVE SMOOTH"
);
}
);
};
layerId = "0B1DFD06-3317-40CA-B510-4969A0718C16";
paths = (
{
closed = 1;
nodes = (
"415 -10 OFFCURVE",
"494 98 OFFCURVE",
"494 259 CURVE SMOOTH",
"494 410 OFFCURVE",
"415 510 OFFCURVE",
"284 510 CURVE SMOOTH",
"213 510 OFFCURVE",
"160 478 OFFCURVE",
"126 422 CURVE",
"126 742 LINE",
"70 742 LINE",
"70 122 LINE SMOOTH",
"70 66 OFFCURVE",
"69 25 OFFCURVE",
"67 0 CURVE",
"117 0 LINE",
"119 25 OFFCURVE",
"121 54 OFFCURVE",
"120 88 CURVE",
"149 27 OFFCURVE",
"218 -10 OFFCURVE",
"285 -10 CURVE SMOOTH"
);
},
{
closed = 1;
nodes = (
"183 38 OFFCURVE",
"126 103 OFFCURVE",
"126 200 CURVE SMOOTH",
"126 284 LINE SMOOTH",
"126 393 OFFCURVE",
"185 465 OFFCURVE",
"281 465 CURVE SMOOTH",
"380 465 OFFCURVE",
"438 382 OFFCURVE",
"438 257 CURVE SMOOTH",
"438 126 OFFCURVE",
"380 38 OFFCURVE",
"281 38 CURVE SMOOTH"
);
}
);
width = 534;
}
);
note = b;
unicode = 0062;
},
{
color = 4;
glyphname = c;
lastChange = "2018-02-19 17:56:28 +0000";
layers = (
{
anchors = (
{
name = bottom;
position = "{264, 0}";
},
{
name = top;
position = "{264, 500}";
}
);
background = {
paths = (
{
closed = 1;
nodes = (
"361 46 OFFCURVE",
"316 34 OFFCURVE",
"261 34 CURVE SMOOTH",
"142 34 OFFCURVE",
"56 115 OFFCURVE",
"56 248 CURVE SMOOTH",
"56 382 OFFCURVE",
"142 463 OFFCURVE",
"261 463 CURVE SMOOTH",
"316 463 OFFCURVE",
"361 451 OFFCURVE",
"398 428 CURVE",
"419 475 LINE",
"376 498 OFFCURVE",
"325 510 OFFCURVE",
"264 510 CURVE SMOOTH",
"100 510 OFFCURVE",
"0 407 OFFCURVE",
"0 248 CURVE SMOOTH",
"0 90 OFFCURVE",
"100 -13 OFFCURVE",
"264 -13 CURVE SMOOTH",
"325 -13 OFFCURVE",
"376 -1 OFFCURVE",
"419 22 CURVE",
"398 69 LINE"
);
}
);
};
layerId = "0B1DFD06-3317-40CA-B510-4969A0718C16";
paths = (
{
closed = 1;
nodes = (
"344 -10 OFFCURVE",
"405 24 OFFCURVE",
"442 81 CURVE",
"408 114 LINE",
"378 66 OFFCURVE",
"324 38 OFFCURVE",
"264 38 CURVE SMOOTH",
"159 38 OFFCURVE",
"96 116 OFFCURVE",
"96 250 CURVE SMOOTH",
"96 384 OFFCURVE",
"159 462 OFFCURVE",
"264 462 CURVE SMOOTH",
"324 462 OFFCURVE",
"378 434 OFFCURVE",
"408 386 CURVE",
"442 419 LINE",
"405 476 OFFCURVE",
"344 510 OFFCURVE",
"264 510 CURVE SMOOTH",
"114 510 OFFCURVE",
"40 409 OFFCURVE",
"40 250 CURVE SMOOTH",
"40 91 OFFCURVE",
"114 -10 OFFCURVE",
"264 -10 CURVE SMOOTH"
);
}
);
width = 447;
}
);
note = c;
unicode = 0063;
},
{
color = 4;
glyphname = d;
lastChange = "2018-02-19 16:08:12 +0000";
layers = (
{
anchors = (
{
name = bottom;
position = "{267, 0}";
},
{
name = center;
position = "{267, 250}";
},
{
name = top;
position = "{267, 500}";
},
{
name = topright;
position = "{514, 500}";
}
);
background = {
paths = (
{
closed = 1;
nodes = (
"508 0 LINE",
"506 25 OFFCURVE",
"504 66 OFFCURVE",
"504 122 CURVE SMOOTH",
"504 742 LINE",
"447 742 LINE",
"447 404 LINE",
"404 475 OFFCURVE",
"341 510 OFFCURVE",
"257 510 CURVE SMOOTH",
"117 510 OFFCURVE",
"32 403 OFFCURVE",
"32 256 CURVE SMOOTH",
"32 96 OFFCURVE",
"123 -13 OFFCURVE",
"266 -13 CURVE SMOOTH",
"344 -13 OFFCURVE",
"407 21 OFFCURVE",
"453 88 CURVE",
"453 54 OFFCURVE",
"454 25 OFFCURVE",
"456 0 CURVE"
);
},
{
closed = 1;
nodes = (
"447 200 LINE SMOOTH",
"447 106 OFFCURVE",
"372 35 OFFCURVE",
"273 35 CURVE SMOOTH",
"150 35 OFFCURVE",
"88 109 OFFCURVE",
"88 254 CURVE SMOOTH",
"88 378 OFFCURVE",
"154 465 OFFCURVE",
"267 465 CURVE SMOOTH",
"314 465 OFFCURVE",
"356 448 OFFCURVE",
"389 416 CURVE",
"428 382 OFFCURVE",
"447 338 OFFCURVE",
"447 284 CURVE SMOOTH"
);
}
);
};
layerId = "0B1DFD06-3317-40CA-B510-4969A0718C16";
paths = (
{
closed = 1;
nodes = (
"316 -10 OFFCURVE",
"385 27 OFFCURVE",
"414 88 CURVE",
"413 54 OFFCURVE",
"415 25 OFFCURVE",
"417 0 CURVE",
"467 0 LINE",
"465 25 OFFCURVE",
"464 66 OFFCURVE",
"464 122 CURVE SMOOTH",
"464 742 LINE",
"408 742 LINE",
"408 422 LINE",
"374 478 OFFCURVE",
"321 510 OFFCURVE",
"250 510 CURVE SMOOTH",
"119 510 OFFCURVE",
"40 410 OFFCURVE",
"40 259 CURVE SMOOTH",
"40 98 OFFCURVE",
"119 -10 OFFCURVE",
"249 -10 CURVE SMOOTH"
);
},
{
closed = 1;
nodes = (
"154 38 OFFCURVE",
"96 126 OFFCURVE",
"96 257 CURVE SMOOTH",
"96 382 OFFCURVE",
"154 465 OFFCURVE",
"253 465 CURVE SMOOTH",
"349 465 OFFCURVE",
"408 393 OFFCURVE",
"408 284 CURVE SMOOTH",
"408 200 LINE SMOOTH",
"408 103 OFFCURVE",
"351 38 OFFCURVE",
"253 38 CURVE SMOOTH"
);
}
);
width = 534;
}
);
note = d;
unicode = 0064;
},
{
color = 4;
glyphname = e;
lastChange = "2018-02-19 18:06:42 +0000";
layers = (
{
anchors = (
{
name = bottom;
position = "{262, 0}";
},
{
name = ogonek;
position = "{383, 46}";
},
{
name = top;
position = "{262, 500}";
}
);
background = {
paths = (
{
closed = 1;
nodes = (
"476 71 LINE",
"419 49 OFFCURVE",
"360 37 OFFCURVE",
"301 37 CURVE SMOOTH",
"182 37 OFFCURVE",
"100 113 OFFCURVE",
"96 247 CURVE",
"504 247 LINE",
"501 422 OFFCURVE",
"429 510 OFFCURVE",
"290 510 CURVE SMOOTH",
"218 510 OFFCURVE",
"157 485 OFFCURVE",
"110 435 CURVE SMOOTH",
"63 385 OFFCURVE",
"40 319 OFFCURVE",
"40 237 CURVE SMOOTH",
"40 165 OFFCURVE",
"63 104 OFFCURVE",
"110 57 CURVE SMOOTH",
"157 10 OFFCURVE",
"219 -13 OFFCURVE",
"295 -13 CURVE SMOOTH",
"362 -13 OFFCURVE",
"423 -1 OFFCURVE",
"481 22 CURVE"
);
},
{
closed = 1;
nodes = (
"98 293 LINE",
"106 337 OFFCURVE",
"122 375 OFFCURVE",
"150 406 CURVE SMOOTH",
"184 445 OFFCURVE",
"228 465 OFFCURVE",
"282 465 CURVE SMOOTH",
"343 465 OFFCURVE",
"387 442 OFFCURVE",
"416 400 CURVE SMOOTH",
"438 369 OFFCURVE",
"448 332 OFFCURVE",
"450 293 CURVE"
);
}
);
};
layerId = "0B1DFD06-3317-40CA-B510-4969A0718C16";
paths = (
{
closed = 1;
nodes = (
"96 387 OFFCURVE",
"154 465 OFFCURVE",
"256 465 CURVE SMOOTH",
"351 465 OFFCURVE",
"409 396 OFFCURVE",
"409 284 CURVE SMOOTH",
"409 273 LINE",
"86 273 LINE",
"84 227 LINE",
"464 227 LINE",
"464 251 LINE SMOOTH",
"464 414 OFFCURVE",
"389 510 OFFCURVE",
"261 510 CURVE SMOOTH",
"123 510 OFFCURVE",
"40 413 OFFCURVE",
"40 249 CURVE SMOOTH",
"40 90 OFFCURVE",
"114 -10 OFFCURVE",
"264 -10 CURVE SMOOTH",
"344 -10 OFFCURVE",
"405 24 OFFCURVE",
"442 81 CURVE",
"408 114 LINE",
"378 66 OFFCURVE",
"324 38 OFFCURVE",
"264 38 CURVE SMOOTH",
"159 38 OFFCURVE",
"96 115 OFFCURVE",
"96 249 CURVE SMOOTH"
);
}
);
width = 504;
}
);
note = e;
unicode = 0065;
},
{
color = 4;
glyphname = f;
lastChange = "2018-02-19 16:08:12 +0000";
layers = (
{
anchors = (
{
name = bottom;
position = "{152, 0}";
},
{
name = top;
position = "{152, 500}";
}
);
background = {
paths = (
{
closed = 1;
nodes = (
"335 747 OFFCURVE",
"307 754 OFFCURVE",
"270 754 CURVE SMOOTH",
"151 754 OFFCURVE",
"93 676 OFFCURVE",
"93 519 CURVE SMOOTH",
"93 500 LINE",
"7 500 LINE",
"7 454 LINE",
"91 454 LINE",
"91 0 LINE",
"148 0 LINE",
"148 454 LINE",
"293 454 LINE",
"293 500 LINE",
"148 500 LINE",
"148 519 LINE SMOOTH",
"148 644 OFFCURVE",
"188 706 OFFCURVE",
"266 706 CURVE SMOOTH",
"293 706 OFFCURVE",
"316 700 OFFCURVE",
"338 689 CURVE",
"354 731 LINE"
);
}
);
};
layerId = "0B1DFD06-3317-40CA-B510-4969A0718C16";
paths = (
{
closed = 1;
nodes = (
"147 0 LINE",
"147 454 LINE",
"292 454 LINE",
"292 500 LINE",
"147 500 LINE",
"147 569 LINE SMOOTH",
"147 639 OFFCURVE",
"181 671 OFFCURVE",
"236 671 CURVE SMOOTH",
"260 671 OFFCURVE",
"282 666 OFFCURVE",
"302 650 CURVE",
"323 688 LINE",
"306 705 OFFCURVE",
"276 717 OFFCURVE",
"240 717 CURVE SMOOTH",
"148 717 OFFCURVE",
"91 666 OFFCURVE",
"91 565 CURVE SMOOTH",
"91 500 LINE",
"7 500 LINE",
"7 454 LINE",
"91 454 LINE",
"91 0 LINE"
);
}
);
width = 303;
}
);
note = f;
unicode = 0066;
},
{
color = 4;
glyphname = g;
lastChange = "2018-02-26 16:15:31 +0000";
layers = (
{
anchors = (
{
name = bottom;
position = "{267, 0}";
},
{
name = top;
position = "{250, 500}";
}
);
background = {
paths = (
{
closed = 1;
nodes = (
"404 381 OFFCURVE",
"384 422 OFFCURVE",
"344 462 CURVE",
"416 454 LINE",
"416 501 LINE",
"221 501 LINE SMOOTH",
"131 501 OFFCURVE",
"53 431 OFFCURVE",
"53 325 CURVE SMOOTH",
"53 281 OFFCURVE",
"71 240 OFFCURVE",
"107 200 CURVE",
"97 171 OFFCURVE",
"93 147 OFFCURVE",
"93 129 CURVE SMOOTH",
"93 100 OFFCURVE",
"107 76 OFFCURVE",
"138 57 CURVE SMOOTH",
"156 46 OFFCURVE",
"188 32 OFFCURVE",
"235 18 CURVE SMOOTH",
"313 -7 OFFCURVE",
"351 -44 OFFCURVE",
"351 -91 CURVE SMOOTH",
"351 -144 OFFCURVE",
"298 -181 OFFCURVE",
"226 -181 CURVE SMOOTH",
"184 -181 OFFCURVE",
"143 -169 OFFCURVE",
"100 -144 CURVE",
"79 -191 LINE",
"122 -218 OFFCURVE",
"171 -231 OFFCURVE",
"222 -231 CURVE SMOOTH",
"340 -231 OFFCURVE",
"401 -171 OFFCURVE",
"401 -87 CURVE SMOOTH",
"401 -18 OFFCURVE",
"354 31 OFFCURVE",
"260 57 CURVE SMOOTH",
"181 79 OFFCURVE",
"141 104 OFFCURVE",
"141 129 CURVE SMOOTH",
"141 143 OFFCURVE",
"144 157 OFFCURVE",
"150 172 CURVE",
"172 162 OFFCURVE",
"197 156 OFFCURVE",
"228 156 CURVE SMOOTH",
"328 156 OFFCURVE",
"404 225 OFFCURVE",
"404 335 CURVE SMOOTH"
);
},
{
closed = 1;
nodes = (
"354 247 OFFCURVE",
"298 200 OFFCURVE",
"228 200 CURVE SMOOTH",
"197 200 OFFCURVE",
"169 210 OFFCURVE",
"144 232 CURVE SMOOTH",
"118 256 OFFCURVE",
"104 287 OFFCURVE",
"104 326 CURVE SMOOTH",
"104 397 OFFCURVE",
"150 457 OFFCURVE",
"228 457 CURVE SMOOTH",
"268 457 OFFCURVE",
"300 442 OFFCURVE",
"323 413 CURVE SMOOTH",
"344 388 OFFCURVE",
"354 360 OFFCURVE",
"354 328 CURVE SMOOTH"
);
}
);
};
layerId = "0B1DFD06-3317-40CA-B510-4969A0718C16";
paths = (
{
closed = 1;
nodes = (
"393 -218 OFFCURVE",
"464 -131 OFFCURVE",
"464 18 CURVE SMOOTH",
"464 500 LINE",
"418 500 LINE",
"408 422 LINE",
"374 478 OFFCURVE",
"321 510 OFFCURVE",
"250 510 CURVE SMOOTH",
"119 510 OFFCURVE",
"40 410 OFFCURVE",
"40 259 CURVE SMOOTH",
"40 98 OFFCURVE",
"119 -10 OFFCURVE",
"249 -10 CURVE SMOOTH",
"316 -10 OFFCURVE",
"385 27 OFFCURVE",
"414 88 CURVE",
"414 28 LINE SMOOTH",
"414 -86 OFFCURVE",
"370 -166 OFFCURVE",
"242 -166 CURVE SMOOTH",
"185 -166 OFFCURVE",
"142 -155 OFFCURVE",
"91 -131 CURVE",
"72 -177 LINE",
"121 -202 OFFCURVE",
"180 -218 OFFCURVE",
"244 -218 CURVE SMOOTH"
);
},
{
closed = 1;
nodes = (
"154 38 OFFCURVE",
"96 126 OFFCURVE",
"96 257 CURVE SMOOTH",
"96 382 OFFCURVE",
"154 465 OFFCURVE",
"253 465 CURVE SMOOTH",
"349 465 OFFCURVE",
"408 393 OFFCURVE",
"408 284 CURVE SMOOTH",
"408 200 LINE SMOOTH",
"408 103 OFFCURVE",
"351 38 OFFCURVE",
"253 38 CURVE SMOOTH"
);
}
);
width = 534;
}
);
note = g;
unicode = 0067;
},
{
color = 4;
glyphname = h;
lastChange = "2018-02-19 18:10:07 +0000";
layers = (
{
anchors = (
{
name = bottom;
position = "{276, 0}";
},
{
name = center;
position = "{276, 250}";
},
{
name = top;
position = "{186, 742}";
}
);
background = {
paths = (
{
closed = 1;
nodes = (
"491 435 OFFCURVE",
"426 510 OFFCURVE",
"295 510 CURVE SMOOTH",
"223 510 OFFCURVE",
"167 476 OFFCURVE",
"128 410 CURVE",
"128 742 LINE",
"70 742 LINE",
"70 0 LINE",
"128 0 LINE",
"128 303 LINE SMOOTH",
"128 343 OFFCURVE",
"144 378 OFFCURVE",
"175 412 CURVE SMOOTH",
"207 445 OFFCURVE",
"244 463 OFFCURVE",
"284 463 CURVE SMOOTH",
"384 463 OFFCURVE",
"434 403 OFFCURVE",
"434 284 CURVE SMOOTH",
"434 0 LINE",
"491 0 LINE",
"491 284 LINE SMOOTH"
);
}
);
};
layerId = "0B1DFD06-3317-40CA-B510-4969A0718C16";
paths = (
{
closed = 1;
nodes = (
"126 0 LINE",
"126 274 LINE SMOOTH",
"126 386 OFFCURVE",
"204 465 OFFCURVE",
"298 465 CURVE SMOOTH",
"388 465 OFFCURVE",
"426 394 OFFCURVE",
"426 285 CURVE SMOOTH",
"426 0 LINE",
"482 0 LINE",
"482 284 LINE SMOOTH",
"482 420 OFFCURVE",
"429 510 OFFCURVE",
"301 510 CURVE SMOOTH",
"232 510 OFFCURVE",
"160 477 OFFCURVE",
"126 410 CURVE",
"126 742 LINE",
"70 742 LINE",
"70 0 LINE"
);
}
);
width = 552;
}
);
note = h;
unicode = 0068;
},
{
color = 4;
glyphname = i;
lastChange = "2018-02-19 18:50:52 +0000";
layers = (
{
anchors = (
{
name = bottom;
position = "{114, 0}";
}
);
background = {
paths = (
{
closed = 1;
nodes = (
"144 500 LINE",
"86 500 LINE",
"86 0 LINE",
"144 0 LINE"
);
},
{
closed = 1;
nodes = (
"160 679 OFFCURVE",
"141 698 OFFCURVE",
"113 698 CURVE SMOOTH",
"85 698 OFFCURVE",
"67 679 OFFCURVE",
"67 651 CURVE SMOOTH",
"67 623 OFFCURVE",
"85 606 OFFCURVE",
"113 606 CURVE SMOOTH",
"141 606 OFFCURVE",
"160 623 OFFCURVE",
"160 651 CURVE SMOOTH"
);
}
);
};
layerId = "0B1DFD06-3317-40CA-B510-4969A0718C16";
paths = (
{
closed = 1;
nodes = (
"142 0 LINE",
"142 500 LINE",
"86 500 LINE",
"86 0 LINE"
);
},
{
closed = 1;
nodes = (
"142 606 OFFCURVE",
"160 625 OFFCURVE",
"160 653 CURVE SMOOTH",
"160 681 OFFCURVE",
"142 700 OFFCURVE",
"114 700 CURVE SMOOTH",
"86 700 OFFCURVE",
"68 681 OFFCURVE",
"68 653 CURVE SMOOTH",
"68 625 OFFCURVE",
"86 606 OFFCURVE",
"114 606 CURVE SMOOTH"
);
}
);
width = 228;
}
);
note = i;
unicode = 0069;
},
{
color = 4;
glyphname = j;
lastChange = "2018-02-12 18:07:39 +0000";
layers = (
{
background = {
paths = (
{
closed = 1;
nodes = (
"151 500 LINE",
"94 500 LINE",
"94 26 LINE SMOOTH",
"94 -31 OFFCURVE",
"87 -74 OFFCURVE",
"72 -101 CURVE SMOOTH",
"50 -143 OFFCURVE",
"6 -166 OFFCURVE",
"-62 -172 CURVE",
"-56 -218 LINE",
"81 -215 OFFCURVE",
"150 -138 OFFCURVE",
"151 10 CURVE SMOOTH"
);
},
{
closed = 1;
nodes = (
"168 679 OFFCURVE",
"148 698 OFFCURVE",
"121 698 CURVE SMOOTH",
"93 698 OFFCURVE",
"75 679 OFFCURVE",
"75 651 CURVE SMOOTH",
"75 623 OFFCURVE",
"93 606 OFFCURVE",
"121 606 CURVE SMOOTH",
"148 606 OFFCURVE",
"168 623 OFFCURVE",
"168 651 CURVE SMOOTH"
);
}
);
};
layerId = "0B1DFD06-3317-40CA-B510-4969A0718C16";
paths = (
{
closed = 1;
nodes = (
"108 -186 OFFCURVE",
"150 -116 OFFCURVE",
"150 8 CURVE SMOOTH",
"150 500 LINE",
"94 500 LINE",
"94 14 LINE SMOOTH",
"94 -89 OFFCURVE",
"71 -138 OFFCURVE",
"-11 -138 CURVE SMOOTH",
"-19 -138 OFFCURVE",
"-27 -138 OFFCURVE",
"-36 -137 CURVE",
"-36 -183 LINE",
"-21 -185 OFFCURVE",
"-7 -186 OFFCURVE",
"6 -186 CURVE SMOOTH"
);
},
{
closed = 1;
nodes = (
"148 606 OFFCURVE",
"166 625 OFFCURVE",
"166 653 CURVE SMOOTH",
"166 681 OFFCURVE",
"148 700 OFFCURVE",
"120 700 CURVE SMOOTH",
"92 700 OFFCURVE",
"74 681 OFFCURVE",
"74 653 CURVE SMOOTH",
"74 625 OFFCURVE",
"92 606 OFFCURVE",
"120 606 CURVE SMOOTH"
);
}
);
width = 228;
}
);
note = j;
unicode = 006A;
},
{
color = 4;
glyphname = k;
lastChange = "2018-02-19 16:08:12 +0000";
layers = (
{
anchors = (
{
name = bottom;
position = "{230, 0}";
},
{
name = top;
position = "{230, 500}";
}
);
background = {
paths = (
{
closed = 1;
nodes = (
"220 293 LINE",
"435 495 LINE",
"376 507 LINE",
"128 275 LINE",
"128 742 LINE",
"70 742 LINE",
"70 0 LINE",
"128 0 LINE",
"128 210 LINE",
"179 260 LINE",
"417 -15 LINE",
"475 1 LINE"
);
}
);
};
layerId = "0B1DFD06-3317-40CA-B510-4969A0718C16";
paths = (
{
closed = 1;
nodes = (
"126 0 LINE",
"126 180 LINE",
"439 500 LINE",
"373 500 LINE",
"126 248 LINE",
"126 742 LINE",
"70 742 LINE",
"70 0 LINE"
);
},
{
closed = 1;
nodes = (
"449 0 LINE",
"245 309 LINE",
"208 272 LINE",
"384 0 LINE"
);
}
);
width = 459;
}
);
note = k;
unicode = 006B;
},
{
color = 4;
glyphname = l;
lastChange = "2018-02-19 18:52:14 +0000";
layers = (
{
anchors = (
{
name = bottom;
position = "{171, 0}";
},
{
name = center;
position = "{238, 311}";
},
{
name = top;
position = "{109, 742}";
},
{
name = topright;
position = "{278, 500}";
}
);
background = {
paths = (
{
closed = 1;
nodes = (
"214 41 OFFCURVE",
"176 66 OFFCURVE",
"157 118 CURVE SMOOTH",
"144 150 OFFCURVE",
"138 201 OFFCURVE",
"138 273 CURVE SMOOTH",
"138 742 LINE",
"80 742 LINE",
"80 251 LINE SMOOTH",
"80 82 OFFCURVE",
"142 -4 OFFCURVE",
"266 -10 CURVE",
"272 40 LINE"
);
}
);
};
layerId = "0B1DFD06-3317-40CA-B510-4969A0718C16";
paths = (
{
closed = 1;
nodes = (
"197 -10 OFFCURVE",
"223 -5 OFFCURVE",
"246 9 CURVE",
"236 48 LINE",
"218 41 OFFCURVE",
"204 38 OFFCURVE",
"191 38 CURVE SMOOTH",
"147 38 OFFCURVE",
"136 60 OFFCURVE",
"136 116 CURVE SMOOTH",
"136 742 LINE",
"80 742 LINE",
"80 112 LINE SMOOTH",
"80 12 OFFCURVE",
"124 -10 OFFCURVE",
"173 -10 CURVE SMOOTH"
);
}
);
width = 286;
}
);
note = l;
unicode = 006C;
},
{
color = 4;
glyphname = m;
lastChange = "2018-02-19 16:08:12 +0000";
layers = (
{
anchors = (
{
name = bottom;
position = "{418, 0}";
},
{
name = top;
position = "{418, 500}";
}
);
background = {
paths = (
{
closed = 1;
nodes = (
"801 278 LINE SMOOTH",
"801 420 OFFCURVE",
"735 510 OFFCURVE",
"625 510 CURVE SMOOTH",
"544 510 OFFCURVE",
"485 473 OFFCURVE",
"445 398 CURVE",
"411 473 OFFCURVE",
"362 510 OFFCURVE",
"294 510 CURVE SMOOTH",
"220 510 OFFCURVE",
"165 476 OFFCURVE",
"126 410 CURVE",
"125 450 OFFCURVE",
"122 479 OFFCURVE",
"115 500 CURVE",
"60 500 LINE",
"68 444 OFFCURVE",
"70 403 OFFCURVE",
"70 376 CURVE SMOOTH",
"70 0 LINE",
"128 0 LINE",
"128 303 LINE SMOOTH",
"128 343 OFFCURVE",
"144 378 OFFCURVE",
"175 412 CURVE SMOOTH",
"206 445 OFFCURVE",
"241 463 OFFCURVE",
"281 463 CURVE SMOOTH",
"364 463 OFFCURVE",
"407 410 OFFCURVE",
"407 303 CURVE SMOOTH",
"407 0 LINE",
"464 0 LINE",
"464 318 LINE SMOOTH",
"464 354 OFFCURVE",
"479 388 OFFCURVE",
"507 417 CURVE SMOOTH",
"536 448 OFFCURVE",
"570 463 OFFCURVE",
"608 463 CURVE SMOOTH",
"697 463 OFFCURVE",
"744 390 OFFCURVE",
"744 276 CURVE SMOOTH",
"744 0 LINE",
"801 0 LINE"
);
}
);
};
layerId = "0B1DFD06-3317-40CA-B510-4969A0718C16";
paths = (
{
closed = 1;
nodes = (
"126 0 LINE",
"126 303 LINE SMOOTH",
"126 381 OFFCURVE",
"192 465 OFFCURVE",
"271 465 CURVE SMOOTH",
"354 465 OFFCURVE",
"390 410 OFFCURVE",
"390 303 CURVE SMOOTH",
"390 0 LINE",
"446 0 LINE",
"446 306 LINE SMOOTH",
"446 394 OFFCURVE",
"502 465 OFFCURVE",
"583 465 CURVE SMOOTH",
"665 465 OFFCURVE",
"710 408 OFFCURVE",
"710 307 CURVE SMOOTH",
"710 0 LINE",
"766 0 LINE",
"766 309 LINE SMOOTH",
"766 436 OFFCURVE",
"701 510 OFFCURVE",
"593 510 CURVE SMOOTH",
"517 510 OFFCURVE",
"453 465 OFFCURVE",
"427 398 CURVE",
"406 473 OFFCURVE",
"350 510 OFFCURVE",
"282 510 CURVE SMOOTH",
"213 510 OFFCURVE",
"156 473 OFFCURVE",
"124 410 CURVE",
"120 410 LINE",
"121 444 OFFCURVE",
"119 475 OFFCURVE",
"117 500 CURVE",
"67 500 LINE",
"69 475 OFFCURVE",
"70 434 OFFCURVE",
"70 378 CURVE SMOOTH",
"70 0 LINE"
);
}
);
width = 836;
}
);
note = m;
unicode = 006D;
},
{
color = 4;
glyphname = n;
lastChange = "2018-02-19 16:08:12 +0000";
layers = (
{
anchors = (
{
name = bottom;
position = "{271, 0}";
},
{
name = top;
position = "{271, 500}";
}
);
background = {
paths = (
{
closed = 1;
nodes = (
"497 284 LINE SMOOTH",
"497 435 OFFCURVE",
"432 510 OFFCURVE",
"301 510 CURVE SMOOTH",
"226 510 OFFCURVE",
"171 476 OFFCURVE",
"132 410 CURVE",
"131 450 OFFCURVE",
"128 479 OFFCURVE",
"121 500 CURVE",
"66 500 LINE",
"74 444 OFFCURVE",
"76 403 OFFCURVE",
"76 376 CURVE SMOOTH",
"76 0 LINE",
"134 0 LINE",
"134 303 LINE SMOOTH",
"134 343 OFFCURVE",
"150 378 OFFCURVE",
"181 412 CURVE SMOOTH",
"213 445 OFFCURVE",
"250 463 OFFCURVE",
"290 463 CURVE SMOOTH",
"390 463 OFFCURVE",
"440 403 OFFCURVE",
"440 284 CURVE SMOOTH",
"440 0 LINE",
"497 0 LINE"
);
}
);
};
layerId = "0B1DFD06-3317-40CA-B510-4969A0718C16";
paths = (
{
closed = 1;
nodes = (
"126 0 LINE",
"126 274 LINE SMOOTH",
"126 386 OFFCURVE",
"199 465 OFFCURVE",
"293 465 CURVE SMOOTH",
"383 465 OFFCURVE",
"416 394 OFFCURVE",
"416 285 CURVE SMOOTH",
"416 0 LINE",
"472 0 LINE",
"472 284 LINE SMOOTH",
"472 420 OFFCURVE",
"424 510 OFFCURVE",
"296 510 CURVE SMOOTH",
"227 510 OFFCURVE",
"158 477 OFFCURVE",
"124 410 CURVE",
"120 410 LINE",
"121 444 OFFCURVE",
"119 475 OFFCURVE",
"117 500 CURVE",
"67 500 LINE",
"69 475 OFFCURVE",
"70 434 OFFCURVE",
"70 378 CURVE SMOOTH",
"70 0 LINE"
);
}
);
width = 542;
}
);
note = n;
unicode = 006E;
},
{
color = 4;
glyphname = o;
lastChange = "2018-02-19 18:20:49 +0000";
layers = (
{
anchors = (
{
name = bottom;
position = "{272, 0}";
},
{
name = center;
position = "{272, 250}";
},
{
name = ogonek;
position = "{490, 10}";
},
{
name = top;
position = "{272, 500}";
},
{
name = topright;
position = "{466, 306}";
}
);
background = {
paths = (
{
closed = 1;
nodes = (
"543 322 OFFCURVE",
"519 384 OFFCURVE",
"474 434 CURVE SMOOTH",
"428 485 OFFCURVE",
"367 510 OFFCURVE",
"292 510 CURVE SMOOTH",
"217 510 OFFCURVE",
"155 485 OFFCURVE",
"109 434 CURVE SMOOTH",
"64 384 OFFCURVE",
"40 322 OFFCURVE",
"40 248 CURVE SMOOTH",
"40 175 OFFCURVE",
"64 113 OFFCURVE",
"109 62 CURVE SMOOTH",
"155 10 OFFCURVE",
"217 -15 OFFCURVE",
"292 -15 CURVE SMOOTH",
"367 -15 OFFCURVE",
"428 10 OFFCURVE",
"474 62 CURVE SMOOTH",
"519 113 OFFCURVE",
"543 175 OFFCURVE",
"543 248 CURVE SMOOTH"
);
},
{
closed = 1;
nodes = (
"487 188 OFFCURVE",
"468 137 OFFCURVE",
"431 96 CURVE SMOOTH",
"394 54 OFFCURVE",
"349 34 OFFCURVE",
"292 34 CURVE SMOOTH",
"234 34 OFFCURVE",
"187 54 OFFCURVE",
"150 96 CURVE SMOOTH",
"114 137 OFFCURVE",
"96 188 OFFCURVE",
"96 248 CURVE SMOOTH",
"96 309 OFFCURVE",
"114 360 OFFCURVE",
"150 400 CURVE SMOOTH",
"187 441 OFFCURVE",
"234 462 OFFCURVE",
"292 462 CURVE SMOOTH",
"349 462 OFFCURVE",
"394 441 OFFCURVE",
"431 400 CURVE SMOOTH",
"468 360 OFFCURVE",
"487 309 OFFCURVE",
"487 248 CURVE SMOOTH"
);
}
);
};
layerId = "0B1DFD06-3317-40CA-B510-4969A0718C16";
paths = (
{
closed = 1;
nodes = (
"417 -10 OFFCURVE",
"504 94 OFFCURVE",
"504 250 CURVE SMOOTH",
"504 406 OFFCURVE",
"417 510 OFFCURVE",
"272 510 CURVE SMOOTH",
"127 510 OFFCURVE",
"40 406 OFFCURVE",
"40 250 CURVE SMOOTH",
"40 94 OFFCURVE",
"127 -10 OFFCURVE",
"272 -10 CURVE SMOOTH"
);
},
{
closed = 1;
nodes = (
"160 35 OFFCURVE",
"96 121 OFFCURVE",
"96 250 CURVE SMOOTH",
"96 379 OFFCURVE",
"160 465 OFFCURVE",
"272 465 CURVE SMOOTH",
"384 465 OFFCURVE",
"448 379 OFFCURVE",
"448 250 CURVE SMOOTH",
"448 121 OFFCURVE",
"384 35 OFFCURVE",
"272 35 CURVE SMOOTH"
);
}
);
width = 544;
}
);
note = o;
unicode = 006F;
},
{
color = 4;
glyphname = p;
lastChange = "2018-02-19 16:08:12 +0000";
layers = (
{
anchors = (
{
name = bottom;
position = "{267, 0}";
},
{
name = top;
position = "{267, 500}";
}
);
background = {
paths = (
{
closed = 1;
nodes = (
"548 401 OFFCURVE",
"457 510 OFFCURVE",
"315 510 CURVE SMOOTH",
"237 510 OFFCURVE",
"173 476 OFFCURVE",
"128 409 CURVE",
"128 442 OFFCURVE",
"126 472 OFFCURVE",
"125 497 CURVE",
"72 497 LINE",
"75 472 OFFCURVE",
"76 432 OFFCURVE",
"76 375 CURVE SMOOTH",
"76 -245 LINE",
"134 -245 LINE",
"134 93 LINE",
"176 22 OFFCURVE",
"240 -13 OFFCURVE",
"323 -13 CURVE SMOOTH",
"392 -13 OFFCURVE",
"448 12 OFFCURVE",
"490 62 CURVE SMOOTH",
"529 107 OFFCURVE",
"548 168 OFFCURVE",
"548 241 CURVE SMOOTH"
);
},
{
closed = 1;
nodes = (
"494 181 OFFCURVE",
"479 131 OFFCURVE",
"448 93 CURVE SMOOTH",
"415 53 OFFCURVE",
"370 32 OFFCURVE",
"313 32 CURVE SMOOTH",
"266 32 OFFCURVE",
"225 49 OFFCURVE",
"191 81 CURVE",
"153 115 OFFCURVE",
"134 159 OFFCURVE",
"134 213 CURVE SMOOTH",
"134 297 LINE SMOOTH",
"134 391 OFFCURVE",
"209 462 OFFCURVE",
"307 462 CURVE SMOOTH",
"429 462 OFFCURVE",
"494 379 OFFCURVE",
"494 243 CURVE SMOOTH"
);
}
);
};
layerId = "0B1DFD06-3317-40CA-B510-4969A0718C16";
paths = (
{
closed = 1;
nodes = (
"126 -242 LINE",
"126 78 LINE",
"153 22 OFFCURVE",
"213 -10 OFFCURVE",
"284 -10 CURVE SMOOTH",
"415 -10 OFFCURVE",
"494 100 OFFCURVE",
"494 251 CURVE SMOOTH",
"494 412 OFFCURVE",
"416 510 OFFCURVE",
"286 510 CURVE SMOOTH",
"219 510 OFFCURVE",
"149 473 OFFCURVE",
"120 412 CURVE",
"121 446 OFFCURVE",
"119 475 OFFCURVE",
"117 500 CURVE",
"67 500 LINE",
"69 475 OFFCURVE",
"70 434 OFFCURVE",
"70 378 CURVE SMOOTH",
"70 -242 LINE"
);
},
{
closed = 1;
nodes = (
"185 35 OFFCURVE",
"126 107 OFFCURVE",
"126 216 CURVE SMOOTH",
"126 300 LINE SMOOTH",
"126 397 OFFCURVE",
"193 462 OFFCURVE",
"281 462 CURVE SMOOTH",
"380 462 OFFCURVE",
"438 384 OFFCURVE",
"438 253 CURVE SMOOTH",
"438 128 OFFCURVE",
"380 35 OFFCURVE",
"281 35 CURVE SMOOTH"
);
}
);
width = 534;
}
);
note = p;
unicode = 0070;
},
{
color = 4;
glyphname = q;
lastChange = "2018-02-19 16:08:12 +0000";
layers = (
{
anchors = (
{
name = bottom;
position = "{267, 0}";
},
{
name = top;
position = "{267, 500}";
}
);
background = {
paths = (
{
closed = 1;
nodes = (
"517 375 LINE SMOOTH",
"517 432 OFFCURVE",
"518 472 OFFCURVE",
"521 497 CURVE",
"468 497 LINE",
"467 472 OFFCURVE",
"465 442 OFFCURVE",
"465 409 CURVE",
"420 476 OFFCURVE",
"357 510 OFFCURVE",
"279 510 CURVE SMOOTH",
"136 510 OFFCURVE",
"45 401 OFFCURVE",
"45 241 CURVE SMOOTH",
"45 168 OFFCURVE",
"64 107 OFFCURVE",
"104 62 CURVE SMOOTH",
"145 12 OFFCURVE",
"201 -13 OFFCURVE",
"270 -13 CURVE SMOOTH",
"354 -13 OFFCURVE",
"417 22 OFFCURVE",
"460 93 CURVE",
"460 -245 LINE",
"517 -245 LINE"
);
},
{
closed = 1;
nodes = (
"460 213 LINE SMOOTH",
"460 159 OFFCURVE",
"440 115 OFFCURVE",
"402 81 CURVE",
"368 49 OFFCURVE",
"327 32 OFFCURVE",
"280 32 CURVE SMOOTH",
"223 32 OFFCURVE",
"179 53 OFFCURVE",
"145 93 CURVE SMOOTH",
"114 131 OFFCURVE",
"99 181 OFFCURVE",
"99 243 CURVE SMOOTH",
"99 379 OFFCURVE",
"164 462 OFFCURVE",
"286 462 CURVE SMOOTH",
"385 462 OFFCURVE",
"460 391 OFFCURVE",
"460 297 CURVE SMOOTH"
);
}
);
};
layerId = "0B1DFD06-3317-40CA-B510-4969A0718C16";
paths = (
{
closed = 1;
nodes = (
"464 -242 LINE",
"464 378 LINE SMOOTH",
"464 434 OFFCURVE",
"465 475 OFFCURVE",
"467 500 CURVE",
"417 500 LINE",
"415 475 OFFCURVE",
"413 446 OFFCURVE",
"414 412 CURVE",
"385 473 OFFCURVE",
"315 510 OFFCURVE",
"248 510 CURVE SMOOTH",
"118 510 OFFCURVE",
"40 412 OFFCURVE",
"40 251 CURVE SMOOTH",
"40 100 OFFCURVE",
"119 -10 OFFCURVE",
"250 -10 CURVE SMOOTH",
"321 -10 OFFCURVE",
"381 22 OFFCURVE",
"408 78 CURVE",
"408 -242 LINE"
);
},
{
closed = 1;
nodes = (
"154 35 OFFCURVE",
"96 128 OFFCURVE",
"96 253 CURVE SMOOTH",
"96 384 OFFCURVE",
"154 462 OFFCURVE",
"253 462 CURVE SMOOTH",
"341 462 OFFCURVE",
"408 397 OFFCURVE",
"408 300 CURVE SMOOTH",
"408 216 LINE SMOOTH",
"408 107 OFFCURVE",
"349 35 OFFCURVE",
"253 35 CURVE SMOOTH"
);
}
);
width = 534;
}
);
note = q;
unicode = 0071;
},
{
color = 4;
glyphname = r;
lastChange = "2018-02-26 16:41:02 +0000";
layers = (
{
anchors = (
{
name = bottom;
position = "{104, 0}";
},
{
name = top;
position = "{187, 500}";
}
);
background = {
paths = (
{
closed = 1;
nodes = (
"306 507 LINE",
"295 509 OFFCURVE",
"287 510 OFFCURVE",
"278 510 CURVE SMOOTH",
"209 510 OFFCURVE",
"157 473 OFFCURVE",
"126 400 CURVE",
"126 445 OFFCURVE",
"121 478 OFFCURVE",
"110 500 CURVE",
"62 500 LINE",
"72 465 OFFCURVE",
"76 410 OFFCURVE",
"76 337 CURVE SMOOTH",
"76 0 LINE",
"134 0 LINE",
"134 269 LINE SMOOTH",
"134 291 OFFCURVE",
"135 309 OFFCURVE",
"138 319 CURVE SMOOTH",
"163 413 OFFCURVE",
"213 460 OFFCURVE",
"288 460 CURVE SMOOTH",
"297 460 OFFCURVE",
"303 460 OFFCURVE",
"306 459 CURVE"
);
}
);
};
layerId = "0B1DFD06-3317-40CA-B510-4969A0718C16";
paths = (
{
closed = 1;
nodes = (
"126 402 LINE",
"126 412 LINE SMOOTH",
"127 446 OFFCURVE",
"125 475 OFFCURVE",
"123 500 CURVE",
"73 500 LINE",
"75 475 OFFCURVE",
"76 434 OFFCURVE",
"76 378 CURVE SMOOTH",
"76 0 LINE",
"132 0 LINE",
"132 269 LINE SMOOTH",
"132 354 OFFCURVE",
"179 460 OFFCURVE",
"288 460 CURVE SMOOTH",
"297 460 OFFCURVE",
"303 460 OFFCURVE",
"306 459 CURVE",
"306 507 LINE",
"295 509 OFFCURVE",
"287 510 OFFCURVE",
"278 510 CURVE SMOOTH",
"209 510 OFFCURVE",
"156 475 OFFCURVE",
"130 402 CURVE"
);
}
);
width = 319;
}
);
note = r;
unicode = 0072;
},
{
color = 4;
glyphname = s;
lastChange = "2018-02-19 16:08:12 +0000";
layers = (
{
anchors = (
{
name = bottom;
position = "{201, 0}";
},
{
name = top;
position = "{201, 500}";
}
);
background = {
paths = (
{
closed = 1;
nodes = (
"352 200 OFFCURVE",
"307 248 OFFCURVE",
"218 279 CURVE SMOOTH",
"141 306 OFFCURVE",
"103 338 OFFCURVE",
"103 378 CURVE SMOOTH",
"103 426 OFFCURVE",
"140 465 OFFCURVE",
"203 465 CURVE SMOOTH",
"247 465 OFFCURVE",
"284 453 OFFCURVE",
"313 429 CURVE",
"337 476 LINE",
"306 498 OFFCURVE",
"265 510 OFFCURVE",
"213 510 CURVE SMOOTH",
"109 510 OFFCURVE",
"49 447 OFFCURVE",
"49 370 CURVE SMOOTH",
"49 307 OFFCURVE",
"93 263 OFFCURVE",
"183 235 CURVE SMOOTH",
"260 212 OFFCURVE",
"299 176 OFFCURVE",
"299 128 CURVE SMOOTH",
"299 66 OFFCURVE",
"257 35 OFFCURVE",
"175 35 CURVE SMOOTH",
"140 35 OFFCURVE",
"99 49 OFFCURVE",
"52 74 CURVE",
"30 26 LINE",
"75 0 OFFCURVE",
"122 -13 OFFCURVE",
"171 -13 CURVE SMOOTH",
"284 -13 OFFCURVE",
"352 49 OFFCURVE",
"352 132 CURVE SMOOTH"
);
}
);
};
layerId = "0B1DFD06-3317-40CA-B510-4969A0718C16";
paths = (
{
closed = 1;
nodes = (
"292 -10 OFFCURVE",
"362 46 OFFCURVE",
"362 138 CURVE SMOOTH",
"362 230 OFFCURVE",
"292 263 OFFCURVE",
"227 289 CURVE SMOOTH",
"165 313 OFFCURVE",
"105 334 OFFCURVE",
"105 390 CURVE SMOOTH",
"105 431 OFFCURVE",
"140 465 OFFCURVE",
"203 465 CURVE SMOOTH",
"247 465 OFFCURVE",
"282 446 OFFCURVE",
"306 407 CURVE",
"343 433 LINE",
"316 486 OFFCURVE",
"258 510 OFFCURVE",
"206 510 CURVE SMOOTH",
"106 510 OFFCURVE",
"49 458 OFFCURVE",
"49 387 CURVE SMOOTH",
"49 296 OFFCURVE",
"127 272 OFFCURVE",
"196 245 CURVE SMOOTH",
"250 224 OFFCURVE",
"306 202 OFFCURVE",
"306 137 CURVE SMOOTH",
"306 74 OFFCURVE",
"257 35 OFFCURVE",
"196 35 CURVE SMOOTH",
"148 35 OFFCURVE",
"104 53 OFFCURVE",
"78 93 CURVE",
"40 67 LINE",
"69 13 OFFCURVE",
"137 -10 OFFCURVE",
"193 -10 CURVE SMOOTH"
);
}
);
width = 402;
}
);
note = s;
unicode = 0073;
},
{
color = 4;
glyphname = t;
lastChange = "2018-02-26 16:41:56 +0000";
layers = (
{
anchors = (
{
name = bottom;
position = "{213, 0}";
},
{
name = center;
position = "{175, 250}";
},
{
name = top;
position = "{130, 653}";
},
{
name = topright;
position = "{274, 500}";
}
);
background = {
paths = (
{
closed = 1;
nodes = (
"294 40 OFFCURVE",
"272 37 OFFCURVE",
"241 37 CURVE SMOOTH",
"191 37 OFFCURVE",
"166 74 OFFCURVE",
"166 148 CURVE SMOOTH",
"166 454 LINE",
"326 454 LINE",
"326 500 LINE",
"166 500 LINE",
"166 675 LINE",
"109 648 LINE",
"109 500 LINE",
"9 500 LINE",
"9 454 LINE",
"109 454 LINE",
"109 147 LINE SMOOTH",
"109 103 OFFCURVE",
"119 66 OFFCURVE",
"138 37 CURVE SMOOTH",
"160 3 OFFCURVE",
"194 -13 OFFCURVE",
"237 -13 CURVE SMOOTH",
"269 -13 OFFCURVE",
"295 -9 OFFCURVE",
"315 0 CURVE",
"309 46 LINE"
);
}
);
};
layerId = "0B1DFD06-3317-40CA-B510-4969A0718C16";
paths = (
{
closed = 1;
nodes = (
"259 -13 OFFCURVE",
"285 -9 OFFCURVE",
"305 0 CURVE",
"299 46 LINE",
"284 40 OFFCURVE",
"262 37 OFFCURVE",
"231 37 CURVE SMOOTH",
"181 37 OFFCURVE",
"155 74 OFFCURVE",
"155 148 CURVE SMOOTH",
"155 454 LINE",
"296 454 LINE",
"296 500 LINE",
"155 500 LINE",
"155 653 LINE",
"151 653 LINE",
"99 636 LINE",
"99 500 LINE",
"9 500 LINE",
"9 454 LINE",
"99 454 LINE",
"99 147 LINE SMOOTH",
"99 62 OFFCURVE",
"136 -13 OFFCURVE",
"227 -13 CURVE SMOOTH"
);
}
);
width = 350;
}
);
note = t;
unicode = 0074;
},
{
color = 4;
glyphname = u;
lastChange = "2018-02-19 18:32:48 +0000";
layers = (
{
anchors = (
{
name = bottom;
position = "{274, 0}";
},
{
name = ogonek;
position = "{456, 10}";
},
{
name = top;
position = "{274, 500}";
},
{
name = topright;
position = "{472, 305}";
}
);
background = {
paths = (
{
closed = 1;
nodes = (
"509 46 OFFCURVE",
"500 85 OFFCURVE",
"500 122 CURVE SMOOTH",
"500 500 LINE",
"443 500 LINE",
"443 197 LINE SMOOTH",
"443 148 OFFCURVE",
"423 109 OFFCURVE",
"387 78 CURVE SMOOTH",
"353 50 OFFCURVE",
"315 37 OFFCURVE",
"272 37 CURVE SMOOTH",
"182 37 OFFCURVE",
"137 101 OFFCURVE",
"137 229 CURVE SMOOTH",
"137 500 LINE",
"79 500 LINE",
"79 219 LINE SMOOTH",
"79 65 OFFCURVE",
"140 -13 OFFCURVE",
"259 -13 CURVE SMOOTH",
"341 -13 OFFCURVE",
"404 21 OFFCURVE",
"447 87 CURVE",
"451 56 OFFCURVE",
"459 24 OFFCURVE",
"470 -10 CURVE",
"525 1 LINE"
);
}
);
};
layerId = "0B1DFD06-3317-40CA-B510-4969A0718C16";
paths = (
{
closed = 1;
nodes = (
"315 -10 OFFCURVE",
"384 23 OFFCURVE",
"418 90 CURVE",
"422 90 LINE",
"424 51 OFFCURVE",
"427 27 OFFCURVE",
"433 0 CURVE",
"482 0 LINE",
"476 29 OFFCURVE",
"472 60 OFFCURVE",
"472 92 CURVE SMOOTH",
"472 500 LINE",
"416 500 LINE",
"416 226 LINE SMOOTH",
"416 114 OFFCURVE",
"343 35 OFFCURVE",
"249 35 CURVE SMOOTH",
"159 35 OFFCURVE",
"126 106 OFFCURVE",
"126 205 CURVE SMOOTH",
"126 500 LINE",
"70 500 LINE",
"70 206 LINE SMOOTH",
"70 80 OFFCURVE",
"118 -10 OFFCURVE",
"246 -10 CURVE SMOOTH"
);
}
);
width = 548;
}
);
note = u;
unicode = 0075;
},
{
color = 4;
glyphname = v;
lastChange = "2018-02-19 16:08:12 +0000";
layers = (
{
anchors = (
{
name = bottom;
position = "{224, 0}";
},
{
name = top;
position = "{224, 500}";
}
);
background = {
paths = (
{
closed = 1;
nodes = (
"414 500 LINE",
"224 62 LINE",
"39 500 LINE",
"-20 500 LINE",
"197 0 LINE",
"248 0 LINE",
"473 500 LINE"
);
}
);
};
layerId = "0B1DFD06-3317-40CA-B510-4969A0718C16";
paths = (
{
closed = 1;
nodes = (
"251 0 LINE",
"438 500 LINE",
"379 500 LINE",
"224 62 LINE",
"69 500 LINE",
"10 500 LINE",
"197 0 LINE"
);
}
);
width = 448;
}
);
note = v;
unicode = 0076;
},
{
color = 4;
glyphname = w;
lastChange = "2018-02-19 16:08:12 +0000";
layers = (
{
anchors = (
{
name = bottom;
position = "{322, 0}";
},
{
name = top;
position = "{322, 500}";
}
);
background = {
paths = (
{
closed = 1;
nodes = (
"694 500 LINE",
"548 68 LINE",
"407 500 LINE",
"353 500 LINE",
"203 68 LINE",
"71 500 LINE",
"10 500 LINE",
"174 0 LINE",
"227 0 LINE",
"378 441 LINE",
"522 0 LINE",
"572 0 LINE",
"751 500 LINE"
);
}
);
};
layerId = "0B1DFD06-3317-40CA-B510-4969A0718C16";
paths = (
{
closed = 1;
nodes = (
"187 0 LINE",
"322 441 LINE",
"457 0 LINE",
"510 0 LINE",
"634 500 LINE",
"573 500 LINE",
"481 68 LINE",
"349 500 LINE",
"295 500 LINE",
"163 68 LINE",
"71 500 LINE",
"10 500 LINE",
"134 0 LINE"
);
}
);
width = 644;
}
);
note = w;
unicode = 0077;
},
{
color = 4;
glyphname = x;
lastChange = "2018-02-19 16:08:12 +0000";
layers = (
{
anchors = (
{
name = bottom;
position = "{211, 0}";
},
{
name = top;
position = "{211, 500}";
}
);
background = {
paths = (
{
closed = 1;
nodes = (
"240 256 LINE",
"431 500 LINE",
"368 500 LINE",
"211 297 LINE",
"52 500 LINE",
"-13 500 LINE",
"177 254 LINE",
"-26 0 LINE",
"40 0 LINE",
"206 216 LINE",
"374 0 LINE",
"441 0 LINE"
);
}
);
};
layerId = "0B1DFD06-3317-40CA-B510-4969A0718C16";
paths = (
{
closed = 1;
nodes = (
"76 0 LINE",
"211 225 LINE",
"346 0 LINE",
"412 0 LINE",
"240 254 LINE",
"399 500 LINE",
"334 500 LINE",
"211 289 LINE",
"88 500 LINE",
"23 500 LINE",
"182 254 LINE",
"10 0 LINE"
);
}
);
width = 422;
}
);
note = x;
unicode = 0078;
},
{
color = 4;
glyphname = y;
lastChange = "2018-02-26 16:42:35 +0000";
layers = (
{
anchors = (
{
name = bottom;
position = "{298, 0}";
},
{
name = top;
position = "{224, 500}";
}
);
background = {
paths = (
{
closed = 1;
nodes = (
"465 500 LINE",
"402 500 LINE",
"227 76 LINE",
"40 500 LINE",
"-22 500 LINE",
"186 34 LINE",
"189 25 OFFCURVE",
"190 19 OFFCURVE",
"190 16 CURVE",
"147 -98 OFFCURVE",
"84 -165 OFFCURVE",
"0 -184 CURVE",
"14 -229 LINE",
"109 -207 OFFCURVE",
"187 -131 OFFCURVE",
"244 0 CURVE SMOOTH"
);
}
);
};
layerId = "0B1DFD06-3317-40CA-B510-4969A0718C16";
paths = (
{
closed = 1;
nodes = (
"142 -209 OFFCURVE",
"207 -124 OFFCURVE",
"250 0 CURVE SMOOTH",
"425 500 LINE",
"362 500 LINE",
"229 75 LINE",
"80 500 LINE",
"18 500 LINE",
"204 18 LINE",
"165 -85 OFFCURVE",
"127 -167 OFFCURVE",
"33 -167 CURVE SMOOTH",
"23 -167 OFFCURVE",
"12 -166 OFFCURVE",
"0 -164 CURVE",
"0 -205 LINE",
"14 -208 OFFCURVE",
"29 -209 OFFCURVE",
"40 -209 CURVE SMOOTH"
);
}
);
width = 435;
}
);
note = y;
unicode = 0079;
},
{
color = 4;
glyphname = z;
lastChange = "2018-02-19 16:08:12 +0000";
layers = (
{
anchors = (
{
name = bottom;
position = "{218, 0}";
},
{
name = top;
position = "{218, 500}";
}
);
background = {
paths = (
{
closed = 1;
nodes = (
"462 47 LINE",
"102 47 LINE",
"453 460 LINE",
"455 500 LINE",
"57 500 LINE",
"48 453 LINE",
"383 453 LINE",
"30 35 LINE",
"30 0 LINE",
"450 0 LINE"
);
}
);
};
layerId = "0B1DFD06-3317-40CA-B510-4969A0718C16";
paths = (
{
closed = 1;
nodes = (
"406 0 LINE",
"406 46 LINE",
"98 46 LINE",
"395 460 LINE",
"397 500 LINE",
"45 500 LINE",
"45 454 LINE",
"333 454 LINE",
"30 35 LINE",
"30 0 LINE"
);
}
);
width = 436;
}
);
note = z;
unicode = 007A;
},
{
color = 4;
glyphname = Aringacute;
lastChange = "2018-02-26 14:42:07 +0000";
layers = (
{
components = (
{
name = A;
},
{
name = ringcomb;
transform = "{1, 0, 0, 1, 274, 200}";
}
);
layerId = "0B1DFD06-3317-40CA-B510-4969A0718C16";
paths = (
{
closed = 1;
nodes = (
"291 959 LINE",
"354 1059 LINE",
"297 1059 LINE",
"250 959 LINE"
);
}
);
width = 568;
}
);
leftKerningGroup = A;
leftMetricsKey = A;
note = Aringacute;
rightKerningGroup = A;
rightMetricsKey = A;
unicode = 01FA;
},
{
color = 4;
glyphname = AE;
lastChange = "2018-02-26 14:42:12 +0000";
layers = (
{
anchors = (
{
name = bottom;
position = "{382, 0}";
},
{
name = top;
position = "{382, 700}";
}
);
layerId = "0B1DFD06-3317-40CA-B510-4969A0718C16";
paths = (
{
closed = 1;
nodes = (
"73 0 LINE",
"403 700 LINE",
"345 700 LINE",
"10 0 LINE"
);
},
{
closed = 1;
nodes = (
"392 175 LINE",
"392 223 LINE",
"127 223 LINE",
"110 175 LINE"
);
},
{
closed = 1;
nodes = (
"713 0 LINE",
"713 49 LINE",
"420 49 LINE",
"420 345 LINE",
"678 345 LINE",
"678 394 LINE",
"420 394 LINE",
"420 651 LINE",
"713 651 LINE",
"713 700 LINE",
"362 700 LINE",
"362 0 LINE"
);
}
);
width = 773;
}
);
note = AE;
rightMetricsKey = E;
unicode = 00C6;
},
{
color = 4;
glyphname = Eth;
lastChange = "2018-02-26 14:41:56 +0000";
layers = (
{
components = (
{
name = D;
}
);
layerId = "0B1DFD06-3317-40CA-B510-4969A0718C16";
paths = (
{
closed = 1;
nodes = (
"384 313 LINE",
"384 362 LINE",
"7 362 LINE",
"7 313 LINE"
);
}
);
width = 622;
}
);
note = Eth;
rightMetricsKey = D;
unicode = 00D0;
},
{
color = 4;
glyphname = Eacute;
lastChange = "2018-02-26 14:41:34 +0000";
layers = (
{
background = {
paths = (
{
closed = 1;
nodes = (
"554 0 LINE",
"571 179 LINE",
"544 179 LINE",
"538 124 OFFCURVE",
"520 40 OFFCURVE",
"456 40 CURVE SMOOTH",
"201 40 LINE",
"201 659 LINE",
"441 659 LINE SMOOTH",
"516 659 OFFCURVE",
"525 567 OFFCURVE",
"528 527 CURVE",
"555 527 LINE",
"555 700 LINE",
"16 700 LINE",
"16 673 LINE",
"44 673 LINE SMOOTH",
"83 673 OFFCURVE",
"103 662 OFFCURVE",
"103 637 CURVE SMOOTH",
"103 62 LINE SMOOTH",
"103 37 OFFCURVE",
"83 26 OFFCURVE",
"44 26 CURVE SMOOTH",
"16 26 LINE",
"16 0 LINE"
);
},
{
closed = 1;
nodes = (
"455 251 LINE",
"455 485 LINE",
"431 485 LINE",
"427 436 OFFCURVE",
"424 388 OFFCURVE",
"379 388 CURVE SMOOTH",
"162 388 LINE",
"162 348 LINE",
"379 348 LINE SMOOTH",
"424 348 OFFCURVE",
"427 300 OFFCURVE",
"431 251 CURVE"
);
},
{
closed = 1;
nodes = (
"398 865 LINE SMOOTH",
"420 877 OFFCURVE",
"432 890 OFFCURVE",
"432 907 CURVE SMOOTH",
"432 922 OFFCURVE",
"420 937 OFFCURVE",
"398 937 CURVE SMOOTH",
"377 937 OFFCURVE",
"362 921 OFFCURVE",
"354 914 CURVE SMOOTH",
"239 807 LINE",
"256 782 LINE"
);
}
);
};
components = (
{
name = E;
},
{
name = acutecomb;
transform = "{1, 0, 0, 1, 291, 200}";
}
);
layerId = "0B1DFD06-3317-40CA-B510-4969A0718C16";
width = 541;
}
);
note = Eacute;
unicode = 00C9;
},
{
color = 4;
glyphname = Ebreve;
lastChange = "2018-02-26 14:41:34 +0000";
layers = (
{
background = {
paths = (
{
closed = 1;
nodes = (
"554 0 LINE",
"571 179 LINE",
"544 179 LINE",
"538 124 OFFCURVE",
"520 40 OFFCURVE",
"456 40 CURVE SMOOTH",
"201 40 LINE",
"201 659 LINE",
"441 659 LINE SMOOTH",
"516 659 OFFCURVE",
"525 567 OFFCURVE",
"528 527 CURVE",
"555 527 LINE",
"555 700 LINE",
"16 700 LINE",
"16 673 LINE",
"44 673 LINE SMOOTH",
"83 673 OFFCURVE",
"103 662 OFFCURVE",
"103 637 CURVE SMOOTH",
"103 62 LINE SMOOTH",
"103 37 OFFCURVE",
"83 26 OFFCURVE",
"44 26 CURVE SMOOTH",
"16 26 LINE",
"16 0 LINE"
);
},
{
closed = 1;
nodes = (
"455 251 LINE",
"455 485 LINE",
"431 485 LINE",
"427 436 OFFCURVE",
"424 388 OFFCURVE",
"379 388 CURVE SMOOTH",
"162 388 LINE",
"162 348 LINE",
"379 348 LINE SMOOTH",
"424 348 OFFCURVE",
"427 300 OFFCURVE",
"431 251 CURVE"
);
},
{
closed = 1;
nodes = (
"432 776 OFFCURVE",
"474 832 OFFCURVE",
"478 907 CURVE",
"445 907 LINE",
"439 848 OFFCURVE",
"397 822 OFFCURVE",
"333 822 CURVE SMOOTH",
"269 822 OFFCURVE",
"226 848 OFFCURVE",
"219 907 CURVE",
"186 907 LINE",
"190 829 OFFCURVE",
"232 776 OFFCURVE",
"333 776 CURVE SMOOTH"
);
}
);
};
components = (
{
name = E;
},
{
name = brevecomb;
transform = "{1, 0, 0, 1, 291, 200}";
}
);
layerId = "0B1DFD06-3317-40CA-B510-4969A0718C16";
width = 541;
}
);
note = Ebreve;
unicode = 0114;
},
{
color = 4;
glyphname = Ecaron;
lastChange = "2018-02-26 14:41:34 +0000";
layers = (
{
background = {
paths = (
{
closed = 1;
nodes = (
"554 0 LINE",
"571 179 LINE",
"544 179 LINE",
"538 124 OFFCURVE",
"520 40 OFFCURVE",
"456 40 CURVE SMOOTH",
"201 40 LINE",
"201 659 LINE",
"441 659 LINE SMOOTH",
"516 659 OFFCURVE",
"525 567 OFFCURVE",
"528 527 CURVE",
"555 527 LINE",
"555 700 LINE",
"16 700 LINE",
"16 673 LINE",
"44 673 LINE SMOOTH",
"83 673 OFFCURVE",
"103 662 OFFCURVE",
"103 637 CURVE SMOOTH",
"103 62 LINE SMOOTH",
"103 37 OFFCURVE",
"83 26 OFFCURVE",
"44 26 CURVE SMOOTH",
"16 26 LINE",
"16 0 LINE"
);
},
{
closed = 1;
nodes = (
"455 251 LINE",
"455 485 LINE",
"431 485 LINE",
"427 436 OFFCURVE",
"424 388 OFFCURVE",
"379 388 CURVE SMOOTH",
"162 388 LINE",
"162 348 LINE",
"379 348 LINE SMOOTH",
"424 348 OFFCURVE",
"427 300 OFFCURVE",
"431 251 CURVE"
);
},
{
closed = 1;
nodes = (
"357 782 LINE",
"481 911 LINE",
"462 932 LINE",
"354 847 LINE",
"346 840 OFFCURVE",
"337 836 OFFCURVE",
"331 836 CURVE SMOOTH",
"325 836 OFFCURVE",
"317 840 OFFCURVE",
"307 847 CURVE",
"199 932 LINE",
"180 911 LINE",
"304 782 LINE"
);
}
);
};
components = (
{
name = E;
},
{
name = caroncomb;
transform = "{1, 0, 0, 1, 291, 200}";
}
);
layerId = "0B1DFD06-3317-40CA-B510-4969A0718C16";
width = 541;
}
);
note = Ecaron;
unicode = 011A;
},
{
color = 4;
glyphname = Ecircumflex;
lastChange = "2018-02-26 14:41:34 +0000";
layers = (
{
background = {
paths = (
{
closed = 1;
nodes = (
"554 0 LINE",
"571 179 LINE",
"544 179 LINE",
"538 124 OFFCURVE",
"520 40 OFFCURVE",
"456 40 CURVE SMOOTH",
"201 40 LINE",
"201 659 LINE",
"441 659 LINE SMOOTH",
"516 659 OFFCURVE",
"525 567 OFFCURVE",
"528 527 CURVE",
"555 527 LINE",
"555 700 LINE",
"16 700 LINE",
"16 673 LINE",
"44 673 LINE SMOOTH",
"83 673 OFFCURVE",
"103 662 OFFCURVE",
"103 637 CURVE SMOOTH",
"103 62 LINE SMOOTH",
"103 37 OFFCURVE",
"83 26 OFFCURVE",
"44 26 CURVE SMOOTH",
"16 26 LINE",
"16 0 LINE"
);
},
{
closed = 1;
nodes = (
"455 251 LINE",
"455 485 LINE",
"431 485 LINE",
"427 436 OFFCURVE",
"424 388 OFFCURVE",
"379 388 CURVE SMOOTH",
"162 388 LINE",
"162 348 LINE",
"379 348 LINE SMOOTH",
"424 348 OFFCURVE",
"427 300 OFFCURVE",
"431 251 CURVE"
);
},
{
closed = 1;
nodes = (
"304 868 LINE SMOOTH",
"312 874 OFFCURVE",
"322 879 OFFCURVE",
"328 879 CURVE SMOOTH",
"334 879 OFFCURVE",
"342 874 OFFCURVE",
"351 868 CURVE",
"459 782 LINE",
"478 803 LINE",
"354 932 LINE",
"301 932 LINE",
"177 803 LINE",
"196 782 LINE"
);
}
);
};
components = (
{
name = E;
},
{
name = circumflexcomb;
transform = "{1, 0, 0, 1, 291, 200}";
}
);
layerId = "0B1DFD06-3317-40CA-B510-4969A0718C16";
width = 541;
}
);
note = Ecircumflex;
unicode = 00CA;
},
{
color = 4;
glyphname = Ecircumflexacute;
lastChange = "2018-02-26 14:41:34 +0000";
layers = (
{
background = {
paths = (
{
closed = 1;
nodes = (
"554 0 LINE",
"571 179 LINE",
"544 179 LINE",
"538 124 OFFCURVE",
"520 40 OFFCURVE",
"456 40 CURVE SMOOTH",
"201 40 LINE",
"201 659 LINE",
"441 659 LINE SMOOTH",
"516 659 OFFCURVE",
"525 567 OFFCURVE",
"528 527 CURVE",
"555 527 LINE",
"555 700 LINE",
"16 700 LINE",
"16 673 LINE",
"44 673 LINE SMOOTH",
"83 673 OFFCURVE",
"103 662 OFFCURVE",
"103 637 CURVE SMOOTH",
"103 62 LINE SMOOTH",
"103 37 OFFCURVE",
"83 26 OFFCURVE",
"44 26 CURVE SMOOTH",
"16 26 LINE",
"16 0 LINE"
);
},
{
closed = 1;
nodes = (
"455 251 LINE",
"455 485 LINE",
"431 485 LINE",
"427 436 OFFCURVE",
"424 388 OFFCURVE",
"379 388 CURVE SMOOTH",
"162 388 LINE",
"162 348 LINE",
"379 348 LINE SMOOTH",
"424 348 OFFCURVE",
"427 300 OFFCURVE",
"431 251 CURVE"
);
},
{
closed = 1;
nodes = (
"290 862 LINE SMOOTH",
"300 870 OFFCURVE",
"310 878 OFFCURVE",
"318 878 CURVE SMOOTH",
"324 878 OFFCURVE",
"332 873 OFFCURVE",
"341 867 CURVE",
"447 781 LINE",
"466 803 LINE",
"344 932 LINE",
"293 932 LINE",
"171 803 LINE",
"189 781 LINE"
);
},
{
closed = 1;
nodes = (
"555 960 LINE SMOOTH",
"578 972 OFFCURVE",
"591 988 OFFCURVE",
"591 1003 CURVE SMOOTH",
"591 1017 OFFCURVE",
"580 1034 OFFCURVE",
"557 1034 CURVE SMOOTH",
"538 1034 OFFCURVE",
"521 1018 OFFCURVE",
"511 1008 CURVE SMOOTH",
"415 915 LINE",
"433 893 LINE"
);
}
);
};
components = (
{
name = E;
},
{
name = circumflex_acute;
transform = "{1, 0, 0, 1, 542, 200}";
}
);
layerId = "0B1DFD06-3317-40CA-B510-4969A0718C16";
width = 541;
}
);
note = Ecircumflexacute;
unicode = 1EBE;
},
{
color = 4;
glyphname = Ecircumflexdotbelow;
lastChange = "2018-02-26 14:41:34 +0000";
layers = (
{
background = {
paths = (
{
closed = 1;
nodes = (
"554 0 LINE",
"571 179 LINE",
"544 179 LINE",
"538 124 OFFCURVE",
"520 40 OFFCURVE",
"456 40 CURVE SMOOTH",
"201 40 LINE",
"201 659 LINE",
"441 659 LINE SMOOTH",
"516 659 OFFCURVE",
"525 567 OFFCURVE",
"528 527 CURVE",
"555 527 LINE",
"555 700 LINE",
"16 700 LINE",
"16 673 LINE",
"44 673 LINE SMOOTH",
"83 673 OFFCURVE",
"103 662 OFFCURVE",
"103 637 CURVE SMOOTH",
"103 62 LINE SMOOTH",
"103 37 OFFCURVE",
"83 26 OFFCURVE",
"44 26 CURVE SMOOTH",
"16 26 LINE",
"16 0 LINE"
);
},
{
closed = 1;
nodes = (
"350 -159 OFFCURVE",
"368 -140 OFFCURVE",
"368 -112 CURVE SMOOTH",
"368 -84 OFFCURVE",
"350 -64 OFFCURVE",
"322 -64 CURVE SMOOTH",
"294 -64 OFFCURVE",
"275 -84 OFFCURVE",
"275 -112 CURVE SMOOTH",
"275 -140 OFFCURVE",
"294 -159 OFFCURVE",
"322 -159 CURVE SMOOTH"
);
},
{
closed = 1;
nodes = (
"455 251 LINE",
"455 485 LINE",
"431 485 LINE",
"427 436 OFFCURVE",
"424 388 OFFCURVE",
"379 388 CURVE SMOOTH",
"162 388 LINE",
"162 348 LINE",
"379 348 LINE SMOOTH",
"424 348 OFFCURVE",
"427 300 OFFCURVE",
"431 251 CURVE"
);
},
{
closed = 1;
nodes = (
"294 868 LINE SMOOTH",
"302 874 OFFCURVE",
"312 879 OFFCURVE",
"318 879 CURVE SMOOTH",
"324 879 OFFCURVE",
"332 874 OFFCURVE",
"341 868 CURVE",
"449 782 LINE",
"468 803 LINE",
"344 932 LINE",
"291 932 LINE",
"167 803 LINE",
"186 782 LINE"
);
}
);
};
components = (
{
name = E;
},
{
name = dotbelowcomb;
transform = "{1, 0, 0, 1, 291, 0}";
},
{
name = circumflexcomb;
transform = "{1, 0, 0, 1, 291, 200}";
}
);
layerId = "0B1DFD06-3317-40CA-B510-4969A0718C16";
width = 541;
}
);
note = Ecircumflexdotbelow;
unicode = 1EC6;
},
{
color = 4;
glyphname = Ecircumflexgrave;
lastChange = "2018-02-26 14:41:34 +0000";
layers = (
{
background = {
paths = (
{
closed = 1;
nodes = (
"554 0 LINE",
"571 179 LINE",
"544 179 LINE",
"538 124 OFFCURVE",
"520 40 OFFCURVE",
"456 40 CURVE SMOOTH",
"201 40 LINE",
"201 659 LINE",
"441 659 LINE SMOOTH",
"516 659 OFFCURVE",
"525 567 OFFCURVE",
"528 527 CURVE",
"555 527 LINE",
"555 700 LINE",
"16 700 LINE",
"16 673 LINE",
"44 673 LINE SMOOTH",
"83 673 OFFCURVE",
"103 662 OFFCURVE",
"103 637 CURVE SMOOTH",
"103 62 LINE SMOOTH",
"103 37 OFFCURVE",
"83 26 OFFCURVE",
"44 26 CURVE SMOOTH",
"16 26 LINE",
"16 0 LINE"
);
},
{
closed = 1;
nodes = (
"455 251 LINE",
"455 485 LINE",
"431 485 LINE",
"427 436 OFFCURVE",
"424 388 OFFCURVE",
"379 388 CURVE SMOOTH",
"162 388 LINE",
"162 348 LINE",
"379 348 LINE SMOOTH",
"424 348 OFFCURVE",
"427 300 OFFCURVE",
"431 251 CURVE"
);
},
{
closed = 1;
nodes = (
"227 915 LINE",
"132 1008 LINE SMOOTH",
"122 1018 OFFCURVE",
"105 1034 OFFCURVE",
"85 1034 CURVE SMOOTH",
"63 1034 OFFCURVE",
"52 1017 OFFCURVE",
"52 1003 CURVE SMOOTH",
"52 988 OFFCURVE",
"65 972 OFFCURVE",
"88 960 CURVE SMOOTH",
"210 893 LINE"
);
},
{
closed = 1;
nodes = (
"290 862 LINE SMOOTH",
"300 870 OFFCURVE",
"310 878 OFFCURVE",
"318 878 CURVE SMOOTH",
"324 878 OFFCURVE",
"332 873 OFFCURVE",
"341 867 CURVE",
"447 781 LINE",
"466 803 LINE",
"344 932 LINE",
"293 932 LINE",
"171 803 LINE",
"189 781 LINE"
);
}
);
};
components = (
{
name = E;
},
{
name = circumflex_grave;
transform = "{1, 0, 0, 1, 542, 200}";
}
);
layerId = "0B1DFD06-3317-40CA-B510-4969A0718C16";
width = 541;
}
);
note = Ecircumflexgrave;
unicode = 1EC0;
},
{
color = 4;
glyphname = Ecircumflexhookabove;
lastChange = "2018-02-26 14:41:34 +0000";
layers = (
{
background = {
paths = (
{
closed = 1;
nodes = (
"554 0 LINE",
"571 179 LINE",
"544 179 LINE",
"538 124 OFFCURVE",
"520 40 OFFCURVE",
"456 40 CURVE SMOOTH",
"201 40 LINE",
"201 659 LINE",
"441 659 LINE SMOOTH",
"516 659 OFFCURVE",
"525 567 OFFCURVE",
"528 527 CURVE",
"555 527 LINE",
"555 700 LINE",
"16 700 LINE",
"16 673 LINE",
"44 673 LINE SMOOTH",
"83 673 OFFCURVE",
"103 662 OFFCURVE",
"103 637 CURVE SMOOTH",
"103 62 LINE SMOOTH",
"103 37 OFFCURVE",
"83 26 OFFCURVE",
"44 26 CURVE SMOOTH",
"16 26 LINE",
"16 0 LINE"
);
},
{
closed = 1;
nodes = (
"455 251 LINE",
"455 485 LINE",
"431 485 LINE",
"427 436 OFFCURVE",
"424 388 OFFCURVE",
"379 388 CURVE SMOOTH",
"162 388 LINE",
"162 348 LINE",
"379 348 LINE SMOOTH",
"424 348 OFFCURVE",
"427 300 OFFCURVE",
"431 251 CURVE"
);
},
{
closed = 1;
nodes = (
"286 858 LINE",
"297 868 OFFCURVE",
"309 878 OFFCURVE",
"318 878 CURVE SMOOTH",
"324 878 OFFCURVE",
"332 873 OFFCURVE",
"341 867 CURVE",
"447 781 LINE",
"466 803 LINE",
"344 932 LINE",
"293 932 LINE",
"171 803 LINE",
"189 781 LINE"
);
},
{
closed = 1;
nodes = (
"493 898 LINE",
"474 905 OFFCURVE",
"464 912 OFFCURVE",
"464 926 CURVE SMOOTH",
"464 954 OFFCURVE",
"544 965 OFFCURVE",
"544 1010 CURVE SMOOTH",
"544 1047 OFFCURVE",
"502 1063 OFFCURVE",
"460 1063 CURVE SMOOTH",
"429 1063 OFFCURVE",
"384 1053 OFFCURVE",
"384 1022 CURVE SMOOTH",
"384 1010 OFFCURVE",
"395 1001 OFFCURVE",
"405 1001 CURVE SMOOTH",
"434 1001 OFFCURVE",
"421 1040 OFFCURVE",
"464 1040 CURVE SMOOTH",
"483 1040 OFFCURVE",
"494 1028 OFFCURVE",
"494 1013 CURVE SMOOTH",
"494 973 OFFCURVE",
"421 965 OFFCURVE",
"421 925 CURVE SMOOTH",
"421 901 OFFCURVE",
"437 880 OFFCURVE",
"484 880 CURVE"
);
}
);
};
components = (
{
name = E;
},
{
name = circumflex_hookabove;
transform = "{1, 0, 0, 1, 542, 200}";
}
);
layerId = "0B1DFD06-3317-40CA-B510-4969A0718C16";
width = 541;
}
);
note = Ecircumflexhookabove;
unicode = 1EC2;
},
{
color = 4;
glyphname = Ecircumflextilde;
lastChange = "2018-02-26 14:41:34 +0000";
layers = (
{
background = {
paths = (
{
closed = 1;
nodes = (
"554 0 LINE",
"571 179 LINE",
"544 179 LINE",
"538 124 OFFCURVE",
"520 40 OFFCURVE",
"456 40 CURVE SMOOTH",
"201 40 LINE",
"201 659 LINE",
"441 659 LINE SMOOTH",
"516 659 OFFCURVE",
"525 567 OFFCURVE",
"528 527 CURVE",
"555 527 LINE",
"555 700 LINE",
"16 700 LINE",
"16 673 LINE",
"44 673 LINE SMOOTH",
"83 673 OFFCURVE",
"103 662 OFFCURVE",
"103 637 CURVE SMOOTH",
"103 62 LINE SMOOTH",
"103 37 OFFCURVE",
"83 26 OFFCURVE",
"44 26 CURVE SMOOTH",
"16 26 LINE",
"16 0 LINE"
);
},
{
closed = 1;
nodes = (
"455 251 LINE",
"455 485 LINE",
"431 485 LINE",
"427 436 OFFCURVE",
"424 388 OFFCURVE",
"379 388 CURVE SMOOTH",
"162 388 LINE",
"162 348 LINE",
"379 348 LINE SMOOTH",
"424 348 OFFCURVE",
"427 300 OFFCURVE",
"431 251 CURVE"
);
},
{
closed = 1;
nodes = (
"290 862 LINE SMOOTH",
"300 870 OFFCURVE",
"310 878 OFFCURVE",
"318 878 CURVE SMOOTH",
"324 878 OFFCURVE",
"332 873 OFFCURVE",
"341 867 CURVE",
"447 781 LINE",
"466 803 LINE",
"344 932 LINE",
"293 932 LINE",
"171 803 LINE",
"189 781 LINE"
);
},
{
closed = 1;
nodes = (
"193 997 OFFCURVE",
"211 1018 OFFCURVE",
"242 1018 CURVE SMOOTH",
"291 1018 OFFCURVE",
"338 964 OFFCURVE",
"387 964 CURVE SMOOTH",
"440 964 OFFCURVE",
"469 1012 OFFCURVE",
"481 1063 CURVE",
"460 1075 LINE",
"447 1035 OFFCURVE",
"431 1012 OFFCURVE",
"398 1012 CURVE SMOOTH",
"351 1012 OFFCURVE",
"302 1065 OFFCURVE",
"253 1065 CURVE SMOOTH",
"202 1065 OFFCURVE",
"170 1021 OFFCURVE",
"160 970 CURVE",
"180 958 LINE"
);
}
);
};
components = (
{
name = E;
},
{
name = circumflex_tilde;
transform = "{1, 0, 0, 1, 542, 200}";
}
);
layerId = "0B1DFD06-3317-40CA-B510-4969A0718C16";
width = 541;
}
);
note = Ecircumflextilde;
unicode = 1EC4;
},
{
color = 4;
glyphname = Edieresis;
lastChange = "2018-02-26 14:41:34 +0000";
layers = (
{
background = {
paths = (
{
closed = 1;
nodes = (
"554 0 LINE",
"571 179 LINE",
"544 179 LINE",
"538 124 OFFCURVE",
"520 40 OFFCURVE",
"456 40 CURVE SMOOTH",
"201 40 LINE",
"201 659 LINE",
"441 659 LINE SMOOTH",
"516 659 OFFCURVE",
"525 567 OFFCURVE",
"528 527 CURVE",
"555 527 LINE",
"555 700 LINE",
"16 700 LINE",
"16 673 LINE",
"44 673 LINE SMOOTH",
"83 673 OFFCURVE",
"103 662 OFFCURVE",
"103 637 CURVE SMOOTH",
"103 62 LINE SMOOTH",
"103 37 OFFCURVE",
"83 26 OFFCURVE",
"44 26 CURVE SMOOTH",
"16 26 LINE",
"16 0 LINE"
);
},
{
closed = 1;
nodes = (
"455 251 LINE",
"455 485 LINE",
"431 485 LINE",
"427 436 OFFCURVE",
"424 388 OFFCURVE",
"379 388 CURVE SMOOTH",
"162 388 LINE",
"162 348 LINE",
"379 348 LINE SMOOTH",
"424 348 OFFCURVE",
"427 300 OFFCURVE",
"431 251 CURVE"
);
},
{
closed = 1;
nodes = (
"254 781 OFFCURVE",
"272 800 OFFCURVE",
"272 827 CURVE SMOOTH",
"272 855 OFFCURVE",
"254 875 OFFCURVE",
"225 875 CURVE SMOOTH",
"197 875 OFFCURVE",
"179 855 OFFCURVE",
"179 827 CURVE SMOOTH",
"179 800 OFFCURVE",
"197 781 OFFCURVE",
"225 781 CURVE SMOOTH"
);
},
{
closed = 1;
nodes = (
"470 781 OFFCURVE",
"488 800 OFFCURVE",
"488 827 CURVE SMOOTH",
"488 855 OFFCURVE",
"470 875 OFFCURVE",
"441 875 CURVE SMOOTH",
"412 875 OFFCURVE",
"394 855 OFFCURVE",
"394 827 CURVE SMOOTH",
"394 800 OFFCURVE",
"412 781 OFFCURVE",
"441 781 CURVE SMOOTH"
);
}
);
};
components = (
{
name = E;
},
{
name = dieresiscomb;
transform = "{1, 0, 0, 1, 291, 200}";
}
);
layerId = "0B1DFD06-3317-40CA-B510-4969A0718C16";
width = 541;
}
);
note = Edieresis;
unicode = 00CB;
},
{
color = 4;
glyphname = Edotaccent;
lastChange = "2018-02-26 14:41:34 +0000";
layers = (
{
background = {
paths = (
{
closed = 1;
nodes = (
"554 0 LINE",
"571 179 LINE",
"544 179 LINE",
"538 124 OFFCURVE",
"520 40 OFFCURVE",
"456 40 CURVE SMOOTH",
"201 40 LINE",
"201 659 LINE",
"441 659 LINE SMOOTH",
"516 659 OFFCURVE",
"525 567 OFFCURVE",
"528 527 CURVE",
"555 527 LINE",
"555 700 LINE",
"16 700 LINE",
"16 673 LINE",
"44 673 LINE SMOOTH",
"83 673 OFFCURVE",
"103 662 OFFCURVE",
"103 637 CURVE SMOOTH",
"103 62 LINE SMOOTH",
"103 37 OFFCURVE",
"83 26 OFFCURVE",
"44 26 CURVE SMOOTH",
"16 26 LINE",
"16 0 LINE"
);
},
{
closed = 1;
nodes = (
"455 251 LINE",
"455 485 LINE",
"431 485 LINE",
"427 436 OFFCURVE",
"424 388 OFFCURVE",
"379 388 CURVE SMOOTH",
"162 388 LINE",
"162 348 LINE",
"379 348 LINE SMOOTH",
"424 348 OFFCURVE",
"427 300 OFFCURVE",
"431 251 CURVE"
);
},
{
closed = 1;
nodes = (
"362 765 OFFCURVE",
"380 784 OFFCURVE",
"380 811 CURVE SMOOTH",
"380 839 OFFCURVE",
"362 858 OFFCURVE",
"334 858 CURVE SMOOTH",
"305 858 OFFCURVE",
"287 839 OFFCURVE",
"287 811 CURVE SMOOTH",
"287 784 OFFCURVE",
"305 765 OFFCURVE",
"334 765 CURVE SMOOTH"
);
}
);
};
components = (
{
name = E;
},
{
name = dotaccentcomb;
transform = "{1, 0, 0, 1, 291, 200}";
}
);
layerId = "0B1DFD06-3317-40CA-B510-4969A0718C16";
width = 541;
}
);
note = Edotaccent;
unicode = 0116;
},
{
color = 4;
glyphname = Edotbelow;
lastChange = "2018-02-26 14:41:34 +0000";
layers = (
{
background = {
paths = (
{
closed = 1;
nodes = (
"554 0 LINE",
"571 179 LINE",
"544 179 LINE",
"538 124 OFFCURVE",
"520 40 OFFCURVE",
"456 40 CURVE SMOOTH",
"201 40 LINE",
"201 659 LINE",
"441 659 LINE SMOOTH",
"516 659 OFFCURVE",
"525 567 OFFCURVE",
"528 527 CURVE",
"555 527 LINE",
"555 700 LINE",
"16 700 LINE",
"16 673 LINE",
"44 673 LINE SMOOTH",
"83 673 OFFCURVE",
"103 662 OFFCURVE",
"103 637 CURVE SMOOTH",
"103 62 LINE SMOOTH",
"103 37 OFFCURVE",
"83 26 OFFCURVE",
"44 26 CURVE SMOOTH",
"16 26 LINE",
"16 0 LINE"
);
},
{
closed = 1;
nodes = (
"343 -159 OFFCURVE",
"361 -140 OFFCURVE",
"361 -112 CURVE SMOOTH",
"361 -84 OFFCURVE",
"343 -64 OFFCURVE",
"315 -64 CURVE SMOOTH",
"287 -64 OFFCURVE",
"268 -84 OFFCURVE",
"268 -112 CURVE SMOOTH",
"268 -140 OFFCURVE",
"287 -159 OFFCURVE",
"315 -159 CURVE SMOOTH"
);
},
{
closed = 1;
nodes = (
"455 251 LINE",
"455 485 LINE",
"431 485 LINE",
"427 436 OFFCURVE",
"424 388 OFFCURVE",
"379 388 CURVE SMOOTH",
"162 388 LINE",
"162 348 LINE",
"379 348 LINE SMOOTH",
"424 348 OFFCURVE",
"427 300 OFFCURVE",
"431 251 CURVE"
);
}
);
};
components = (
{
name = E;
},
{
name = dotbelowcomb;
transform = "{1, 0, 0, 1, 291, 0}";
}
);
layerId = "0B1DFD06-3317-40CA-B510-4969A0718C16";
width = 541;
}
);
note = Edotbelow;
unicode = 1EB8;
},
{
color = 4;
glyphname = Egrave;
lastChange = "2018-02-26 14:41:34 +0000";
layers = (
{
background = {
paths = (
{
closed = 1;
nodes = (
"554 0 LINE",
"571 179 LINE",
"544 179 LINE",
"538 124 OFFCURVE",
"520 40 OFFCURVE",
"456 40 CURVE SMOOTH",
"201 40 LINE",
"201 659 LINE",
"441 659 LINE SMOOTH",
"516 659 OFFCURVE",
"525 567 OFFCURVE",
"528 527 CURVE",
"555 527 LINE",
"555 700 LINE",
"16 700 LINE",
"16 673 LINE",
"44 673 LINE SMOOTH",
"83 673 OFFCURVE",
"103 662 OFFCURVE",
"103 637 CURVE SMOOTH",
"103 62 LINE SMOOTH",
"103 37 OFFCURVE",
"83 26 OFFCURVE",
"44 26 CURVE SMOOTH",
"16 26 LINE",
"16 0 LINE"
);
},
{
closed = 1;
nodes = (
"455 251 LINE",
"455 485 LINE",
"431 485 LINE",
"427 436 OFFCURVE",
"424 388 OFFCURVE",
"379 388 CURVE SMOOTH",
"162 388 LINE",
"162 348 LINE",
"379 348 LINE SMOOTH",
"424 348 OFFCURVE",
"427 300 OFFCURVE",
"431 251 CURVE"
);
},
{
closed = 1;
nodes = (
"425 807 LINE",
"310 913 LINE",
"301 922 OFFCURVE",
"285 937 OFFCURVE",
"265 937 CURVE SMOOTH",
"245 937 OFFCURVE",
"233 924 OFFCURVE",
"233 908 CURVE SMOOTH",
"233 890 OFFCURVE",
"245 876 OFFCURVE",
"264 865 CURVE SMOOTH",
"407 782 LINE"
);
}
);
};
components = (
{
name = E;
},
{
name = gravecomb;
transform = "{1, 0, 0, 1, 291, 200}";
}
);
layerId = "0B1DFD06-3317-40CA-B510-4969A0718C16";
width = 541;
}
);
note = Egrave;
unicode = 00C8;
},
{
color = 4;
glyphname = Ehookabove;
lastChange = "2018-02-26 14:41:34 +0000";
layers = (
{
background = {
paths = (
{
closed = 1;
nodes = (
"554 0 LINE",
"571 179 LINE",
"544 179 LINE",
"538 124 OFFCURVE",
"520 40 OFFCURVE",
"456 40 CURVE SMOOTH",
"201 40 LINE",
"201 659 LINE",
"441 659 LINE SMOOTH",
"516 659 OFFCURVE",
"525 567 OFFCURVE",
"528 527 CURVE",
"555 527 LINE",
"555 700 LINE",
"16 700 LINE",
"16 673 LINE",
"44 673 LINE SMOOTH",
"83 673 OFFCURVE",
"103 662 OFFCURVE",
"103 637 CURVE SMOOTH",
"103 62 LINE SMOOTH",
"103 37 OFFCURVE",
"83 26 OFFCURVE",
"44 26 CURVE SMOOTH",
"16 26 LINE",
"16 0 LINE"
);
},
{
closed = 1;
nodes = (
"455 251 LINE",
"455 485 LINE",
"431 485 LINE",
"427 436 OFFCURVE",
"424 388 OFFCURVE",
"379 388 CURVE SMOOTH",
"162 388 LINE",
"162 348 LINE",
"379 348 LINE SMOOTH",
"424 348 OFFCURVE",
"427 300 OFFCURVE",
"431 251 CURVE"
);
},
{
closed = 1;
nodes = (
"367 798 LINE",
"348 805 OFFCURVE",
"336 811 OFFCURVE",
"336 828 CURVE SMOOTH",
"336 861 OFFCURVE",
"425 876 OFFCURVE",
"425 927 CURVE SMOOTH",
"425 969 OFFCURVE",
"389 991 OFFCURVE",
"336 991 CURVE SMOOTH",
"289 991 OFFCURVE",
"248 974 OFFCURVE",
"248 940 CURVE SMOOTH",
"248 923 OFFCURVE",
"256 915 OFFCURVE",
"271 915 CURVE SMOOTH",
"294 915 OFFCURVE",
"296 934 OFFCURVE",
"299 942 CURVE SMOOTH",
"304 956 OFFCURVE",
"321 962 OFFCURVE",
"337 962 CURVE SMOOTH",
"358 962 OFFCURVE",
"371 947 OFFCURVE",
"371 930 CURVE SMOOTH",
"371 885 OFFCURVE",
"289 874 OFFCURVE",
"289 828 CURVE SMOOTH",
"289 801 OFFCURVE",
"307 778 OFFCURVE",
"358 778 CURVE"
);
}
);
};
components = (
{
name = E;
},
{
name = hookabovecomb;
transform = "{1, 0, 0, 1, 291, 200}";
}
);
layerId = "0B1DFD06-3317-40CA-B510-4969A0718C16";
width = 541;
}
);
note = Ehookabove;
unicode = 1EBA;
},
{
color = 4;
glyphname = Emacron;
lastChange = "2018-02-26 14:41:34 +0000";
layers = (
{
background = {
paths = (
{
closed = 1;
nodes = (
"554 0 LINE",
"571 179 LINE",
"544 179 LINE",
"538 124 OFFCURVE",
"520 40 OFFCURVE",
"456 40 CURVE SMOOTH",
"201 40 LINE",
"201 659 LINE",
"441 659 LINE SMOOTH",
"516 659 OFFCURVE",
"525 567 OFFCURVE",
"528 527 CURVE",
"555 527 LINE",
"555 700 LINE",
"16 700 LINE",
"16 673 LINE",
"44 673 LINE SMOOTH",
"83 673 OFFCURVE",
"103 662 OFFCURVE",
"103 637 CURVE SMOOTH",
"103 62 LINE SMOOTH",
"103 37 OFFCURVE",
"83 26 OFFCURVE",
"44 26 CURVE SMOOTH",
"16 26 LINE",
"16 0 LINE"
);
},
{
closed = 1;
nodes = (
"455 251 LINE",
"455 485 LINE",
"431 485 LINE",
"427 436 OFFCURVE",
"424 388 OFFCURVE",
"379 388 CURVE SMOOTH",
"162 388 LINE",
"162 348 LINE",
"379 348 LINE SMOOTH",
"424 348 OFFCURVE",
"427 300 OFFCURVE",
"431 251 CURVE"
);
},
{
closed = 1;
nodes = (
"495 782 LINE",
"495 824 LINE",
"162 824 LINE",
"162 782 LINE"
);
}
);
};
components = (
{
name = E;
},
{
name = macroncomb;
transform = "{1, 0, 0, 1, 291, 200}";
}
);
layerId = "0B1DFD06-3317-40CA-B510-4969A0718C16";
width = 541;
}
);
note = Emacron;
unicode = 0112;
},
{
color = 4;
glyphname = Eogonek;
lastChange = "2018-02-26 14:41:34 +0000";
layers = (
{
background = {
paths = (
{
closed = 1;
nodes = (
"554 0 LINE",
"571 179 LINE",
"544 179 LINE",
"538 124 OFFCURVE",
"520 40 OFFCURVE",
"456 40 CURVE SMOOTH",
"201 40 LINE",
"201 659 LINE",
"441 659 LINE SMOOTH",
"516 659 OFFCURVE",
"525 567 OFFCURVE",
"528 527 CURVE",
"555 527 LINE",
"555 700 LINE",
"16 700 LINE",
"16 673 LINE",
"44 673 LINE SMOOTH",
"83 673 OFFCURVE",
"103 662 OFFCURVE",
"103 637 CURVE SMOOTH",
"103 62 LINE SMOOTH",
"103 37 OFFCURVE",
"83 26 OFFCURVE",
"44 26 CURVE SMOOTH",
"16 26 LINE",
"16 0 LINE"
);
},
{
closed = 1;
nodes = (
"496 -196 OFFCURVE",
"524 -189 OFFCURVE",
"549 -172 CURVE",
"543 -152 LINE",
"527 -158 OFFCURVE",
"510 -162 OFFCURVE",
"497 -162 CURVE SMOOTH",
"464 -162 OFFCURVE",
"437 -146 OFFCURVE",
"437 -106 CURVE SMOOTH",
"437 -66 OFFCURVE",
"464 -26 OFFCURVE",
"510 4 CURVE",
"469 4 LINE",
"416 -22 OFFCURVE",
"376 -64 OFFCURVE",
"376 -114 CURVE SMOOTH",
"376 -147 OFFCURVE",
"395 -196 OFFCURVE",
"470 -196 CURVE SMOOTH"
);
},
{
closed = 1;
nodes = (
"455 251 LINE",
"455 485 LINE",
"431 485 LINE",
"427 436 OFFCURVE",
"424 388 OFFCURVE",
"379 388 CURVE SMOOTH",
"162 388 LINE",
"162 348 LINE",
"379 348 LINE SMOOTH",
"424 348 OFFCURVE",
"427 300 OFFCURVE",
"431 251 CURVE"
);
}
);
};
components = (
{
name = E;
},
{
name = ogonekcomb;
transform = "{1, 0, 0, 1, 450, 0}";
}
);
layerId = "0B1DFD06-3317-40CA-B510-4969A0718C16";
width = 541;
}
);
note = Eogonek;
unicode = 0118;
},
{
color = 4;
glyphname = Etilde;
lastChange = "2018-02-26 14:41:34 +0000";
layers = (
{
background = {
paths = (
{
closed = 1;
nodes = (
"554 0 LINE",
"571 179 LINE",
"544 179 LINE",
"538 124 OFFCURVE",
"520 40 OFFCURVE",
"456 40 CURVE SMOOTH",
"201 40 LINE",
"201 659 LINE",
"441 659 LINE SMOOTH",
"516 659 OFFCURVE",
"525 567 OFFCURVE",
"528 527 CURVE",
"555 527 LINE",
"555 700 LINE",
"16 700 LINE",
"16 673 LINE",
"44 673 LINE SMOOTH",
"83 673 OFFCURVE",
"103 662 OFFCURVE",
"103 637 CURVE SMOOTH",
"103 62 LINE SMOOTH",
"103 37 OFFCURVE",
"83 26 OFFCURVE",
"44 26 CURVE SMOOTH",
"16 26 LINE",
"16 0 LINE"
);
},
{
closed = 1;
nodes = (
"455 251 LINE",
"455 485 LINE",
"431 485 LINE",
"427 436 OFFCURVE",
"424 388 OFFCURVE",
"379 388 CURVE SMOOTH",
"162 388 LINE",
"162 348 LINE",
"379 348 LINE SMOOTH",
"424 348 OFFCURVE",
"427 300 OFFCURVE",
"431 251 CURVE"
);
},
{
closed = 1;
nodes = (
"190 817 OFFCURVE",
"208 838 OFFCURVE",
"241 838 CURVE SMOOTH",
"292 838 OFFCURVE",
"341 784 OFFCURVE",
"392 784 CURVE SMOOTH",
"450 784 OFFCURVE",
"480 832 OFFCURVE",
"492 884 CURVE",
"471 895 LINE",
"455 855 OFFCURVE",
"439 833 OFFCURVE",
"405 833 CURVE SMOOTH",
"356 833 OFFCURVE",
"304 886 OFFCURVE",
"253 886 CURVE SMOOTH",
"199 886 OFFCURVE",
"166 842 OFFCURVE",
"154 790 CURVE",
"176 779 LINE"
);
}
);
};
components = (
{
name = E;
},
{
name = tildecomb;
transform = "{1, 0, 0, 1, 291, 200}";
}
);
layerId = "0B1DFD06-3317-40CA-B510-4969A0718C16";
width = 541;
}
);
note = Etilde;
unicode = 1EBC;
},
{
color = 4;
glyphname = Hbar;
lastChange = "2018-02-26 14:43:06 +0000";
layers = (
{
components = (
{
name = H;
transform = "{1, 0, 0, 1, 10, 0}";
}
);
layerId = "0B1DFD06-3317-40CA-B510-4969A0718C16";
paths = (
{
closed = 1;
nodes = (
"630 504 LINE",
"630 544 LINE",
"40 544 LINE",
"40 504 LINE"
);
}
);
width = 670;
}
);
note = Hbar;
unicode = 0126;
},
{
color = 4;
glyphname = Lslash;
lastChange = "2018-02-26 15:00:46 +0000";
layers = (
{
components = (
{
name = L;
}
);
layerId = "0B1DFD06-3317-40CA-B510-4969A0718C16";
paths = (
{
closed = 1;
nodes = (
"335 397 LINE",
"335 447 LINE",
"26 313 LINE",
"26 266 LINE"
);
}
);
width = 540;
}
);
note = Lslash;
rightMetricsKey = L;
unicode = 0141;
},
{
color = 4;
glyphname = Nacute;
lastChange = "2018-02-26 14:41:34 +0000";
layers = (
{
background = {
paths = (
{
closed = 1;
nodes = (
"247 0 LINE",
"247 26 LINE",
"217 26 LINE SMOOTH",
"179 26 OFFCURVE",
"159 37 OFFCURVE",
"159 62 CURVE SMOOTH",
"159 642 LINE",
"587 0 LINE",
"645 0 LINE",
"645 637 LINE SMOOTH",
"645 662 OFFCURVE",
"665 673 OFFCURVE",
"703 673 CURVE SMOOTH",
"733 673 LINE",
"733 700 LINE",
"508 700 LINE",
"508 673 LINE",
"537 673 LINE SMOOTH",
"576 673 OFFCURVE",
"595 662 OFFCURVE",
"595 637 CURVE SMOOTH",
"595 126 LINE",
"217 700 LINE",
"22 700 LINE",
"22 673 LINE",
"51 673 LINE SMOOTH",
"90 673 OFFCURVE",
"109 662 OFFCURVE",
"109 637 CURVE SMOOTH",
"109 62 LINE SMOOTH",
"109 37 OFFCURVE",
"90 26 OFFCURVE",
"51 26 CURVE SMOOTH",
"22 26 LINE",
"22 0 LINE"
);
},
{
closed = 1;
nodes = (
"458 865 LINE SMOOTH",
"480 877 OFFCURVE",
"492 890 OFFCURVE",
"492 907 CURVE SMOOTH",
"492 922 OFFCURVE",
"480 937 OFFCURVE",
"458 937 CURVE SMOOTH",
"437 937 OFFCURVE",
"422 921 OFFCURVE",
"414 914 CURVE SMOOTH",
"299 807 LINE",
"316 782 LINE"
);
}
);
};
components = (
{
name = N;
},
{
name = acutecomb;
transform = "{1, 0, 0, 1, 335, 200}";
}
);
layerId = "0B1DFD06-3317-40CA-B510-4969A0718C16";
width = 670;
}
);
note = Nacute;
unicode = 0143;
},
{
color = 4;
glyphname = Ncaron;
lastChange = "2018-02-26 14:41:34 +0000";
layers = (
{
background = {
paths = (
{
closed = 1;
nodes = (
"247 0 LINE",
"247 26 LINE",
"217 26 LINE SMOOTH",
"179 26 OFFCURVE",
"159 37 OFFCURVE",
"159 62 CURVE SMOOTH",
"159 642 LINE",
"587 0 LINE",
"645 0 LINE",
"645 637 LINE SMOOTH",
"645 662 OFFCURVE",
"665 673 OFFCURVE",
"703 673 CURVE SMOOTH",
"733 673 LINE",
"733 700 LINE",
"508 700 LINE",
"508 673 LINE",
"537 673 LINE SMOOTH",
"576 673 OFFCURVE",
"595 662 OFFCURVE",
"595 637 CURVE SMOOTH",
"595 126 LINE",
"217 700 LINE",
"22 700 LINE",
"22 673 LINE",
"51 673 LINE SMOOTH",
"90 673 OFFCURVE",
"109 662 OFFCURVE",
"109 637 CURVE SMOOTH",
"109 62 LINE SMOOTH",
"109 37 OFFCURVE",
"90 26 OFFCURVE",
"51 26 CURVE SMOOTH",
"22 26 LINE",
"22 0 LINE"
);
},
{
closed = 1;
nodes = (
"403 782 LINE",
"527 911 LINE",
"508 932 LINE",
"400 847 LINE",
"392 840 OFFCURVE",
"383 836 OFFCURVE",
"377 836 CURVE SMOOTH",
"371 836 OFFCURVE",
"363 840 OFFCURVE",
"353 847 CURVE",
"245 932 LINE",
"226 911 LINE",
"350 782 LINE"
);
}
);
};
components = (
{
name = N;
},
{
name = caroncomb;
transform = "{1, 0, 0, 1, 335, 200}";
}
);
layerId = "0B1DFD06-3317-40CA-B510-4969A0718C16";
width = 670;
}
);
note = Ncaron;
unicode = 0147;
},
{
color = 4;
glyphname = Ncommaaccent;
lastChange = "2018-02-26 14:41:34 +0000";
layers = (
{
background = {
paths = (
{
closed = 1;
nodes = (
"247 0 LINE",
"247 26 LINE",
"217 26 LINE SMOOTH",
"179 26 OFFCURVE",
"159 37 OFFCURVE",
"159 62 CURVE SMOOTH",
"159 642 LINE",
"587 0 LINE",
"645 0 LINE",
"645 637 LINE SMOOTH",
"645 662 OFFCURVE",
"665 673 OFFCURVE",
"703 673 CURVE SMOOTH",
"733 673 LINE",
"733 700 LINE",
"508 700 LINE",
"508 673 LINE",
"537 673 LINE SMOOTH",
"576 673 OFFCURVE",
"595 662 OFFCURVE",
"595 637 CURVE SMOOTH",
"595 126 LINE",
"217 700 LINE",
"22 700 LINE",
"22 673 LINE",
"51 673 LINE SMOOTH",
"90 673 OFFCURVE",
"109 662 OFFCURVE",
"109 637 CURVE SMOOTH",
"109 62 LINE SMOOTH",
"109 37 OFFCURVE",
"90 26 OFFCURVE",
"51 26 CURVE SMOOTH",
"22 26 LINE",
"22 0 LINE"
);
},
{
closed = 1;
nodes = (
"369 -258 OFFCURVE",
"413 -198 OFFCURVE",
"413 -135 CURVE SMOOTH",
"413 -87 OFFCURVE",
"389 -67 OFFCURVE",
"360 -67 CURVE SMOOTH",
"331 -67 OFFCURVE",
"314 -87 OFFCURVE",
"314 -111 CURVE SMOOTH",
"314 -145 OFFCURVE",
"349 -152 OFFCURVE",
"349 -187 CURVE SMOOTH",
"349 -223 OFFCURVE",
"323 -256 OFFCURVE",
"296 -282 CURVE",
"313 -299 LINE"
);
}
);
};
components = (
{
name = N;
},
{
name = commaaccentcomb;
transform = "{1, 0, 0, 1, 335, 0}";
}
);
layerId = "0B1DFD06-3317-40CA-B510-4969A0718C16";
width = 670;
}
);
note = Ncommaaccent;
unicode = 0145;
},
{
color = 4;
glyphname = Ndotaccent;
lastChange = "2018-02-26 14:41:34 +0000";
layers = (
{
background = {
paths = (
{
closed = 1;
nodes = (
"247 0 LINE",
"247 26 LINE",
"217 26 LINE SMOOTH",
"179 26 OFFCURVE",
"159 37 OFFCURVE",
"159 62 CURVE SMOOTH",
"159 642 LINE",
"587 0 LINE",
"645 0 LINE",
"645 637 LINE SMOOTH",
"645 662 OFFCURVE",
"665 673 OFFCURVE",
"703 673 CURVE SMOOTH",
"733 673 LINE",
"733 700 LINE",
"508 700 LINE",
"508 673 LINE",
"537 673 LINE SMOOTH",
"576 673 OFFCURVE",
"595 662 OFFCURVE",
"595 637 CURVE SMOOTH",
"595 126 LINE",
"217 700 LINE",
"22 700 LINE",
"22 673 LINE",
"51 673 LINE SMOOTH",
"90 673 OFFCURVE",
"109 662 OFFCURVE",
"109 637 CURVE SMOOTH",
"109 62 LINE SMOOTH",
"109 37 OFFCURVE",
"90 26 OFFCURVE",
"51 26 CURVE SMOOTH",
"22 26 LINE",
"22 0 LINE"
);
},
{
closed = 1;
nodes = (
"405 765 OFFCURVE",
"423 784 OFFCURVE",
"423 811 CURVE SMOOTH",
"423 839 OFFCURVE",
"405 858 OFFCURVE",
"377 858 CURVE SMOOTH",
"348 858 OFFCURVE",
"330 839 OFFCURVE",
"330 811 CURVE SMOOTH",
"330 784 OFFCURVE",
"348 765 OFFCURVE",
"377 765 CURVE SMOOTH"
);
}
);
};
components = (
{
name = N;
},
{
name = dotaccentcomb;
transform = "{1, 0, 0, 1, 335, 200}";
}
);
layerId = "0B1DFD06-3317-40CA-B510-4969A0718C16";
width = 670;
}
);
note = Ndotaccent;
unicode = 1E44;
},
{
color = 4;
glyphname = Ndotbelow;
lastChange = "2018-02-26 14:41:34 +0000";
layers = (
{
background = {
paths = (
{
closed = 1;
nodes = (
"247 0 LINE",
"247 26 LINE",
"217 26 LINE SMOOTH",
"179 26 OFFCURVE",
"159 37 OFFCURVE",
"159 62 CURVE SMOOTH",
"159 642 LINE",
"587 0 LINE",
"645 0 LINE",
"645 637 LINE SMOOTH",
"645 662 OFFCURVE",
"665 673 OFFCURVE",
"703 673 CURVE SMOOTH",
"733 673 LINE",
"733 700 LINE",
"508 700 LINE",
"508 673 LINE",
"537 673 LINE SMOOTH",
"576 673 OFFCURVE",
"595 662 OFFCURVE",
"595 637 CURVE SMOOTH",
"595 126 LINE",
"217 700 LINE",
"22 700 LINE",
"22 673 LINE",
"51 673 LINE SMOOTH",
"90 673 OFFCURVE",
"109 662 OFFCURVE",
"109 637 CURVE SMOOTH",
"109 62 LINE SMOOTH",
"109 37 OFFCURVE",
"90 26 OFFCURVE",
"51 26 CURVE SMOOTH",
"22 26 LINE",
"22 0 LINE"
);
},
{
closed = 1;
nodes = (
"415 -159 OFFCURVE",
"433 -140 OFFCURVE",
"433 -112 CURVE SMOOTH",
"433 -84 OFFCURVE",
"415 -64 OFFCURVE",
"387 -64 CURVE SMOOTH",
"359 -64 OFFCURVE",
"340 -84 OFFCURVE",
"340 -112 CURVE SMOOTH",
"340 -140 OFFCURVE",
"359 -159 OFFCURVE",
"387 -159 CURVE SMOOTH"
);
}
);
};
components = (
{
name = N;
},
{
name = dotbelowcomb;
transform = "{1, 0, 0, 1, 335, 0}";
}
);
layerId = "0B1DFD06-3317-40CA-B510-4969A0718C16";
width = 670;
}
);
note = uni1E46;
unicode = 1E46;
},
{
color = 4;
glyphname = Eng;
lastChange = "2018-02-26 14:43:54 +0000";
layers = (
{
background = {
paths = (
{
closed = 1;
nodes = (
"592 -259 OFFCURVE",
"645 -182 OFFCURVE",
"645 -36 CURVE SMOOTH",
"645 637 LINE SMOOTH",
"645 662 OFFCURVE",
"665 673 OFFCURVE",
"703 673 CURVE SMOOTH",
"733 673 LINE",
"733 700 LINE",
"508 700 LINE",
"508 673 LINE",
"537 673 LINE SMOOTH",
"576 673 OFFCURVE",
"595 662 OFFCURVE",
"595 637 CURVE SMOOTH",
"595 125 LINE",
"219 700 LINE",
"22 700 LINE",
"22 673 LINE",
"51 673 LINE SMOOTH",
"90 673 OFFCURVE",
"109 662 OFFCURVE",
"109 637 CURVE SMOOTH",
"109 62 LINE SMOOTH",
"109 37 OFFCURVE",
"93 26 OFFCURVE",
"51 26 CURVE SMOOTH",
"22 26 LINE",
"22 0 LINE",
"247 0 LINE",
"247 26 LINE",
"217 26 LINE SMOOTH",
"179 26 OFFCURVE",
"159 37 OFFCURVE",
"159 62 CURVE SMOOTH",
"159 647 LINE",
"586 0 LINE",
"586 -76 LINE SMOOTH",
"586 -173 OFFCURVE",
"510 -238 OFFCURVE",
"423 -243 CURVE",
"427 -268 LINE"
);
}
);
};
components = (
{
name = N;
}
);
layerId = "0B1DFD06-3317-40CA-B510-4969A0718C16";
paths = (
{
closed = 1;
nodes = (
"517 -256 OFFCURVE",
"570 -187 OFFCURVE",
"570 -24 CURVE SMOOTH",
"570 79 LINE",
"514 79 LINE",
"514 -17 LINE SMOOTH",
"514 -155 OFFCURVE",
"476 -209 OFFCURVE",
"385 -209 CURVE SMOOTH",
"348 -209 OFFCURVE",
"303 -195 OFFCURVE",
"281 -175 CURVE",
"260 -217 LINE",
"290 -242 OFFCURVE",
"347 -256 OFFCURVE",
"385 -256 CURVE SMOOTH"
);
}
);
width = 670;
}
);
leftMetricsKey = N;
note = Eng;
rightMetricsKey = N;
unicode = 014A;
},
{
color = 4;
glyphname = Nlinebelow;
lastChange = "2018-02-26 14:41:34 +0000";
layers = (
{
background = {
paths = (
{
closed = 1;
nodes = (
"247 0 LINE",
"247 26 LINE",
"217 26 LINE SMOOTH",
"179 26 OFFCURVE",
"159 37 OFFCURVE",
"159 62 CURVE SMOOTH",
"159 642 LINE",
"587 0 LINE",
"645 0 LINE",
"645 637 LINE SMOOTH",
"645 662 OFFCURVE",
"665 673 OFFCURVE",
"703 673 CURVE SMOOTH",
"733 673 LINE",
"733 700 LINE",
"508 700 LINE",
"508 673 LINE",
"537 673 LINE SMOOTH",
"576 673 OFFCURVE",
"595 662 OFFCURVE",
"595 637 CURVE SMOOTH",
"595 126 LINE",
"217 700 LINE",
"22 700 LINE",
"22 673 LINE",
"51 673 LINE SMOOTH",
"90 673 OFFCURVE",
"109 662 OFFCURVE",
"109 637 CURVE SMOOTH",
"109 62 LINE SMOOTH",
"109 37 OFFCURVE",
"90 26 OFFCURVE",
"51 26 CURVE SMOOTH",
"22 26 LINE",
"22 0 LINE"
);
},
{
closed = 1;
nodes = (
"542 -110 LINE",
"542 -72 LINE",
"210 -72 LINE",
"210 -110 LINE"
);
}
);
};
components = (
{
name = N;
},
{
name = macronbelowcomb;
transform = "{1, 0, 0, 1, 335, 0}";
}
);
layerId = "0B1DFD06-3317-40CA-B510-4969A0718C16";
width = 670;
}
);
note = Nlinebelow;
unicode = 1E48;
},
{
color = 4;
glyphname = Ntilde;
lastChange = "2018-02-26 14:41:34 +0000";
layers = (
{
background = {
paths = (
{
closed = 1;
nodes = (
"247 0 LINE",
"247 26 LINE",
"217 26 LINE SMOOTH",
"179 26 OFFCURVE",
"159 37 OFFCURVE",
"159 62 CURVE SMOOTH",
"159 642 LINE",
"587 0 LINE",
"645 0 LINE",
"645 637 LINE SMOOTH",
"645 662 OFFCURVE",
"665 673 OFFCURVE",
"703 673 CURVE SMOOTH",
"733 673 LINE",
"733 700 LINE",
"508 700 LINE",
"508 673 LINE",
"537 673 LINE SMOOTH",
"576 673 OFFCURVE",
"595 662 OFFCURVE",
"595 637 CURVE SMOOTH",
"595 126 LINE",
"217 700 LINE",
"22 700 LINE",
"22 673 LINE",
"51 673 LINE SMOOTH",
"90 673 OFFCURVE",
"109 662 OFFCURVE",
"109 637 CURVE SMOOTH",
"109 62 LINE SMOOTH",
"109 37 OFFCURVE",
"90 26 OFFCURVE",
"51 26 CURVE SMOOTH",
"22 26 LINE",
"22 0 LINE"
);
},
{
closed = 1;
nodes = (
"254 818 OFFCURVE",
"272 839 OFFCURVE",
"305 839 CURVE SMOOTH",
"356 839 OFFCURVE",
"405 785 OFFCURVE",
"456 785 CURVE SMOOTH",
"514 785 OFFCURVE",
"544 833 OFFCURVE",
"556 885 CURVE",
"535 896 LINE",
"519 856 OFFCURVE",
"503 834 OFFCURVE",
"469 834 CURVE SMOOTH",
"420 834 OFFCURVE",
"368 887 OFFCURVE",
"317 887 CURVE SMOOTH",
"263 887 OFFCURVE",
"230 843 OFFCURVE",
"218 791 CURVE",
"240 780 LINE"
);
}
);
};
components = (
{
name = N;
},
{
name = tildecomb;
transform = "{1, 0, 0, 1, 335, 200}";
}
);
layerId = "0B1DFD06-3317-40CA-B510-4969A0718C16";
width = 670;
}
);
note = Ntilde;
unicode = 00D1;
},
{
color = 4;
glyphname = Oacute;
lastChange = "2018-02-26 14:41:34 +0000";
layers = (
{
background = {
paths = (
{
closed = 1;
nodes = (
"601 -10 OFFCURVE",
"719 124 OFFCURVE",
"719 350 CURVE SMOOTH",
"719 574 OFFCURVE",
"601 710 OFFCURVE",
"378 710 CURVE SMOOTH",
"154 710 OFFCURVE",
"36 574 OFFCURVE",
"36 350 CURVE SMOOTH",
"36 124 OFFCURVE",
"154 -10 OFFCURVE",
"378 -10 CURVE SMOOTH"
);
},
{
closed = 1;
nodes = (
"215 32 OFFCURVE",
"135 158 OFFCURVE",
"135 350 CURVE SMOOTH",
"135 541 OFFCURVE",
"215 668 OFFCURVE",
"377 668 CURVE SMOOTH",
"541 668 OFFCURVE",
"620 541 OFFCURVE",
"620 350 CURVE SMOOTH",
"620 158 OFFCURVE",
"541 32 OFFCURVE",
"377 32 CURVE SMOOTH"
);
},
{
closed = 1;
nodes = (
"440 865 LINE SMOOTH",
"462 877 OFFCURVE",
"474 890 OFFCURVE",
"474 907 CURVE SMOOTH",
"474 922 OFFCURVE",
"462 937 OFFCURVE",
"440 937 CURVE SMOOTH",
"419 937 OFFCURVE",
"404 921 OFFCURVE",
"396 914 CURVE SMOOTH",
"281 807 LINE",
"298 782 LINE"
);
}
);
};
components = (
{
name = O;
},
{
name = acutecomb;
transform = "{1, 0, 0, 1, 325, 200}";
}
);
layerId = "0B1DFD06-3317-40CA-B510-4969A0718C16";
width = 650;
}
);
leftKerningGroup = O;
note = Oacute;
rightKerningGroup = O;
unicode = 00D3;
},
{
color = 4;
glyphname = Obreve;
lastChange = "2018-02-26 14:41:34 +0000";
layers = (
{
background = {
paths = (
{
closed = 1;
nodes = (
"601 -10 OFFCURVE",
"719 124 OFFCURVE",
"719 350 CURVE SMOOTH",
"719 574 OFFCURVE",
"601 710 OFFCURVE",
"378 710 CURVE SMOOTH",
"154 710 OFFCURVE",
"36 574 OFFCURVE",
"36 350 CURVE SMOOTH",
"36 124 OFFCURVE",
"154 -10 OFFCURVE",
"378 -10 CURVE SMOOTH"
);
},
{
closed = 1;
nodes = (
"215 32 OFFCURVE",
"135 158 OFFCURVE",
"135 350 CURVE SMOOTH",
"135 541 OFFCURVE",
"215 668 OFFCURVE",
"377 668 CURVE SMOOTH",
"541 668 OFFCURVE",
"620 541 OFFCURVE",
"620 350 CURVE SMOOTH",
"620 158 OFFCURVE",
"541 32 OFFCURVE",
"377 32 CURVE SMOOTH"
);
},
{
closed = 1;
nodes = (
"477 774 OFFCURVE",
"519 830 OFFCURVE",
"523 905 CURVE",
"490 905 LINE",
"484 846 OFFCURVE",
"442 820 OFFCURVE",
"378 820 CURVE SMOOTH",
"314 820 OFFCURVE",
"271 846 OFFCURVE",
"264 905 CURVE",
"231 905 LINE",
"235 827 OFFCURVE",
"277 774 OFFCURVE",
"378 774 CURVE SMOOTH"
);
}
);
};
components = (
{
name = O;
},
{
name = brevecomb;
transform = "{1, 0, 0, 1, 325, 200}";
}
);
layerId = "0B1DFD06-3317-40CA-B510-4969A0718C16";
width = 650;
}
);
leftKerningGroup = O;
note = Obreve;
rightKerningGroup = O;
unicode = 014E;
},
{
color = 4;
glyphname = Ocaron;
lastChange = "2018-02-26 14:41:34 +0000";
layers = (
{
background = {
paths = (
{
closed = 1;
nodes = (
"601 -10 OFFCURVE",
"719 124 OFFCURVE",
"719 350 CURVE SMOOTH",
"719 574 OFFCURVE",
"601 710 OFFCURVE",
"378 710 CURVE SMOOTH",
"154 710 OFFCURVE",
"36 574 OFFCURVE",
"36 350 CURVE SMOOTH",
"36 124 OFFCURVE",
"154 -10 OFFCURVE",
"378 -10 CURVE SMOOTH"
);
},
{
closed = 1;
nodes = (
"215 32 OFFCURVE",
"135 158 OFFCURVE",
"135 350 CURVE SMOOTH",
"135 541 OFFCURVE",
"215 668 OFFCURVE",
"377 668 CURVE SMOOTH",
"541 668 OFFCURVE",
"620 541 OFFCURVE",
"620 350 CURVE SMOOTH",
"620 158 OFFCURVE",
"541 32 OFFCURVE",
"377 32 CURVE SMOOTH"
);
},
{
closed = 1;
nodes = (
"404 782 LINE",
"528 911 LINE",
"509 932 LINE",
"401 847 LINE",
"393 840 OFFCURVE",
"384 836 OFFCURVE",
"378 836 CURVE SMOOTH",
"372 836 OFFCURVE",
"364 840 OFFCURVE",
"354 847 CURVE",
"246 932 LINE",
"227 911 LINE",
"351 782 LINE"
);
}
);
};
components = (
{
name = O;
},
{
name = caroncomb;
transform = "{1, 0, 0, 1, 325, 200}";
}
);
layerId = "0B1DFD06-3317-40CA-B510-4969A0718C16";
width = 650;
}
);
leftKerningGroup = O;
note = Ocaron;
rightKerningGroup = O;
unicode = 01D1;
},
{
color = 4;
glyphname = Ocircumflex;
lastChange = "2018-02-26 14:41:34 +0000";
layers = (
{
background = {
paths = (
{
closed = 1;
nodes = (
"601 -10 OFFCURVE",
"719 124 OFFCURVE",
"719 350 CURVE SMOOTH",
"719 574 OFFCURVE",
"601 710 OFFCURVE",
"378 710 CURVE SMOOTH",
"154 710 OFFCURVE",
"36 574 OFFCURVE",
"36 350 CURVE SMOOTH",
"36 124 OFFCURVE",
"154 -10 OFFCURVE",
"378 -10 CURVE SMOOTH"
);
},
{
closed = 1;
nodes = (
"215 32 OFFCURVE",
"135 158 OFFCURVE",
"135 350 CURVE SMOOTH",
"135 541 OFFCURVE",
"215 668 OFFCURVE",
"377 668 CURVE SMOOTH",
"541 668 OFFCURVE",
"620 541 OFFCURVE",
"620 350 CURVE SMOOTH",
"620 158 OFFCURVE",
"541 32 OFFCURVE",
"377 32 CURVE SMOOTH"
);
},
{
closed = 1;
nodes = (
"354 868 LINE SMOOTH",
"362 874 OFFCURVE",
"372 879 OFFCURVE",
"378 879 CURVE SMOOTH",
"384 879 OFFCURVE",
"392 874 OFFCURVE",
"401 868 CURVE",
"509 782 LINE",
"528 803 LINE",
"404 932 LINE",
"351 932 LINE",
"227 803 LINE",
"246 782 LINE"
);
}
);
};
components = (
{
name = O;
},
{
name = circumflexcomb;
transform = "{1, 0, 0, 1, 325, 200}";
}
);
layerId = "0B1DFD06-3317-40CA-B510-4969A0718C16";
width = 650;
}
);
leftKerningGroup = O;
note = Ocircumflex;
rightKerningGroup = O;
unicode = 00D4;
},
{
color = 4;
glyphname = Ocircumflexacute;
lastChange = "2018-02-26 14:41:34 +0000";
layers = (
{
background = {
paths = (
{
closed = 1;
nodes = (
"601 -10 OFFCURVE",
"719 124 OFFCURVE",
"719 350 CURVE SMOOTH",
"719 574 OFFCURVE",
"601 710 OFFCURVE",
"378 710 CURVE SMOOTH",
"154 710 OFFCURVE",
"36 574 OFFCURVE",
"36 350 CURVE SMOOTH",
"36 124 OFFCURVE",
"154 -10 OFFCURVE",
"378 -10 CURVE SMOOTH"
);
},
{
closed = 1;
nodes = (
"215 32 OFFCURVE",
"135 158 OFFCURVE",
"135 350 CURVE SMOOTH",
"135 541 OFFCURVE",
"215 668 OFFCURVE",
"377 668 CURVE SMOOTH",
"541 668 OFFCURVE",
"620 541 OFFCURVE",
"620 350 CURVE SMOOTH",
"620 158 OFFCURVE",
"541 32 OFFCURVE",
"377 32 CURVE SMOOTH"
);
},
{
closed = 1;
nodes = (
"348 861 LINE SMOOTH",
"358 869 OFFCURVE",
"368 877 OFFCURVE",
"376 877 CURVE SMOOTH",
"382 877 OFFCURVE",
"390 872 OFFCURVE",
"399 866 CURVE",
"505 780 LINE",
"524 802 LINE",
"402 931 LINE",
"351 931 LINE",
"229 802 LINE",
"247 780 LINE"
);
},
{
closed = 1;
nodes = (
"613 959 LINE SMOOTH",
"636 971 OFFCURVE",
"649 987 OFFCURVE",
"649 1002 CURVE SMOOTH",
"649 1016 OFFCURVE",
"638 1033 OFFCURVE",
"615 1033 CURVE SMOOTH",
"596 1033 OFFCURVE",
"579 1017 OFFCURVE",
"569 1007 CURVE SMOOTH",
"473 914 LINE",
"491 892 LINE"
);
}
);
};
components = (
{
name = O;
},
{
name = circumflex_acute;
transform = "{1, 0, 0, 1, 576, 200}";
}
);
layerId = "0B1DFD06-3317-40CA-B510-4969A0718C16";
width = 650;
}
);
leftKerningGroup = O;
note = Ocircumflexacute;
rightKerningGroup = O;
unicode = 1ED0;
},
{
color = 4;
glyphname = Ocircumflexdotbelow;
lastChange = "2018-02-26 14:41:34 +0000";
layers = (
{
background = {
paths = (
{
closed = 1;
nodes = (
"36 124 OFFCURVE",
"154 -10 OFFCURVE",
"378 -10 CURVE SMOOTH",
"601 -10 OFFCURVE",
"719 124 OFFCURVE",
"719 350 CURVE SMOOTH",
"719 574 OFFCURVE",
"601 710 OFFCURVE",
"378 710 CURVE SMOOTH",
"154 710 OFFCURVE",
"36 574 OFFCURVE",
"36 350 CURVE SMOOTH"
);
},
{
closed = 1;
nodes = (
"135 541 OFFCURVE",
"215 668 OFFCURVE",
"377 668 CURVE SMOOTH",
"541 668 OFFCURVE",
"620 541 OFFCURVE",
"620 350 CURVE SMOOTH",
"620 158 OFFCURVE",
"541 32 OFFCURVE",
"377 32 CURVE SMOOTH",
"215 32 OFFCURVE",
"135 158 OFFCURVE",
"135 350 CURVE SMOOTH"
);
},
{
closed = 1;
nodes = (
"245 782 LINE",
"353 868 LINE SMOOTH",
"361 874 OFFCURVE",
"371 879 OFFCURVE",
"377 879 CURVE SMOOTH",
"383 879 OFFCURVE",
"391 874 OFFCURVE",
"400 868 CURVE",
"508 782 LINE",
"527 803 LINE",
"403 932 LINE",
"350 932 LINE",
"226 803 LINE"
);
},
{
closed = 1;
nodes = (
"330 -140 OFFCURVE",
"349 -159 OFFCURVE",
"377 -159 CURVE SMOOTH",
"405 -159 OFFCURVE",
"423 -140 OFFCURVE",
"423 -112 CURVE SMOOTH",
"423 -84 OFFCURVE",
"405 -64 OFFCURVE",
"377 -64 CURVE SMOOTH",
"349 -64 OFFCURVE",
"330 -84 OFFCURVE",
"330 -112 CURVE SMOOTH"
);
}
);
};
components = (
{
name = O;
},
{
name = dotbelowcomb;
transform = "{1, 0, 0, 1, 325, 0}";
},
{
name = circumflexcomb;
transform = "{1, 0, 0, 1, 325, 200}";
}
);
layerId = "0B1DFD06-3317-40CA-B510-4969A0718C16";
width = 650;
}
);
leftKerningGroup = O;
note = Ocircumflexdotbelow;
rightKerningGroup = O;
unicode = 1ED8;
},
{
color = 4;
glyphname = Ocircumflexgrave;
lastChange = "2018-02-26 14:41:34 +0000";
layers = (
{
background = {
paths = (
{
closed = 1;
nodes = (
"601 -10 OFFCURVE",
"719 124 OFFCURVE",
"719 350 CURVE SMOOTH",
"719 574 OFFCURVE",
"601 710 OFFCURVE",
"378 710 CURVE SMOOTH",
"154 710 OFFCURVE",
"36 574 OFFCURVE",
"36 350 CURVE SMOOTH",
"36 124 OFFCURVE",
"154 -10 OFFCURVE",
"378 -10 CURVE SMOOTH"
);
},
{
closed = 1;
nodes = (
"215 32 OFFCURVE",
"135 158 OFFCURVE",
"135 350 CURVE SMOOTH",
"135 541 OFFCURVE",
"215 668 OFFCURVE",
"377 668 CURVE SMOOTH",
"541 668 OFFCURVE",
"620 541 OFFCURVE",
"620 350 CURVE SMOOTH",
"620 158 OFFCURVE",
"541 32 OFFCURVE",
"377 32 CURVE SMOOTH"
);
},
{
closed = 1;
nodes = (
"285 914 LINE",
"190 1007 LINE SMOOTH",
"180 1017 OFFCURVE",
"163 1033 OFFCURVE",
"143 1033 CURVE SMOOTH",
"121 1033 OFFCURVE",
"110 1016 OFFCURVE",
"110 1002 CURVE SMOOTH",
"110 987 OFFCURVE",
"123 971 OFFCURVE",
"146 959 CURVE SMOOTH",
"268 892 LINE"
);
},
{
closed = 1;
nodes = (
"348 861 LINE SMOOTH",
"358 869 OFFCURVE",
"368 877 OFFCURVE",
"376 877 CURVE SMOOTH",
"382 877 OFFCURVE",
"390 872 OFFCURVE",
"399 866 CURVE",
"505 780 LINE",
"524 802 LINE",
"402 931 LINE",
"351 931 LINE",
"229 802 LINE",
"247 780 LINE"
);
}
);
};
components = (
{
name = O;
},
{
name = circumflex_grave;
transform = "{1, 0, 0, 1, 576, 200}";
}
);
layerId = "0B1DFD06-3317-40CA-B510-4969A0718C16";
width = 650;
}
);
leftKerningGroup = O;
note = Ocircumflexgrave;
rightKerningGroup = O;
unicode = 1ED2;
},
{
color = 4;
glyphname = Ocircumflexhookabove;
lastChange = "2018-02-26 14:41:34 +0000";
layers = (
{
background = {
paths = (
{
closed = 1;
nodes = (
"601 -10 OFFCURVE",
"719 124 OFFCURVE",
"719 350 CURVE SMOOTH",
"719 574 OFFCURVE",
"601 710 OFFCURVE",
"378 710 CURVE SMOOTH",
"154 710 OFFCURVE",
"36 574 OFFCURVE",
"36 350 CURVE SMOOTH",
"36 124 OFFCURVE",
"154 -10 OFFCURVE",
"378 -10 CURVE SMOOTH"
);
},
{
closed = 1;
nodes = (
"215 32 OFFCURVE",
"135 158 OFFCURVE",
"135 350 CURVE SMOOTH",
"135 541 OFFCURVE",
"215 668 OFFCURVE",
"377 668 CURVE SMOOTH",
"541 668 OFFCURVE",
"620 541 OFFCURVE",
"620 350 CURVE SMOOTH",
"620 158 OFFCURVE",
"541 32 OFFCURVE",
"377 32 CURVE SMOOTH"
);
},
{
closed = 1;
nodes = (
"344 858 LINE",
"355 868 OFFCURVE",
"367 878 OFFCURVE",
"376 878 CURVE SMOOTH",
"382 878 OFFCURVE",
"390 873 OFFCURVE",
"399 867 CURVE",
"505 781 LINE",
"524 803 LINE",
"402 932 LINE",
"351 932 LINE",
"229 803 LINE",
"247 781 LINE"
);
},
{
closed = 1;
nodes = (
"551 898 LINE",
"532 905 OFFCURVE",
"522 912 OFFCURVE",
"522 926 CURVE SMOOTH",
"522 954 OFFCURVE",
"602 965 OFFCURVE",
"602 1010 CURVE SMOOTH",
"602 1047 OFFCURVE",
"560 1063 OFFCURVE",
"518 1063 CURVE SMOOTH",
"487 1063 OFFCURVE",
"442 1053 OFFCURVE",
"442 1022 CURVE SMOOTH",
"442 1010 OFFCURVE",
"453 1001 OFFCURVE",
"463 1001 CURVE SMOOTH",
"492 1001 OFFCURVE",
"479 1040 OFFCURVE",
"522 1040 CURVE SMOOTH",
"541 1040 OFFCURVE",
"552 1028 OFFCURVE",
"552 1013 CURVE SMOOTH",
"552 973 OFFCURVE",
"479 965 OFFCURVE",
"479 925 CURVE SMOOTH",
"479 901 OFFCURVE",
"495 880 OFFCURVE",
"542 880 CURVE"
);
}
);
};
components = (
{
name = O;
},
{
name = circumflex_hookabove;
transform = "{1, 0, 0, 1, 576, 200}";
}
);
layerId = "0B1DFD06-3317-40CA-B510-4969A0718C16";
width = 650;
}
);
leftKerningGroup = O;
note = Ocircumflexhookabove;
rightKerningGroup = O;
unicode = 1ED4;
},
{
color = 4;
glyphname = Ocircumflextilde;
lastChange = "2018-02-26 14:41:34 +0000";
layers = (
{
background = {
paths = (
{
closed = 1;
nodes = (
"601 -10 OFFCURVE",
"719 124 OFFCURVE",
"719 350 CURVE SMOOTH",
"719 574 OFFCURVE",
"601 710 OFFCURVE",
"378 710 CURVE SMOOTH",
"154 710 OFFCURVE",
"36 574 OFFCURVE",
"36 350 CURVE SMOOTH",
"36 124 OFFCURVE",
"154 -10 OFFCURVE",
"378 -10 CURVE SMOOTH"
);
},
{
closed = 1;
nodes = (
"215 32 OFFCURVE",
"135 158 OFFCURVE",
"135 350 CURVE SMOOTH",
"135 541 OFFCURVE",
"215 668 OFFCURVE",
"377 668 CURVE SMOOTH",
"541 668 OFFCURVE",
"620 541 OFFCURVE",
"620 350 CURVE SMOOTH",
"620 158 OFFCURVE",
"541 32 OFFCURVE",
"377 32 CURVE SMOOTH"
);
},
{
closed = 1;
nodes = (
"348 862 LINE SMOOTH",
"358 870 OFFCURVE",
"368 878 OFFCURVE",
"376 878 CURVE SMOOTH",
"382 878 OFFCURVE",
"390 873 OFFCURVE",
"399 867 CURVE",
"505 781 LINE",
"524 803 LINE",
"402 932 LINE",
"351 932 LINE",
"229 803 LINE",
"247 781 LINE"
);
},
{
closed = 1;
nodes = (
"251 997 OFFCURVE",
"269 1018 OFFCURVE",
"300 1018 CURVE SMOOTH",
"349 1018 OFFCURVE",
"396 964 OFFCURVE",
"445 964 CURVE SMOOTH",
"498 964 OFFCURVE",
"527 1012 OFFCURVE",
"539 1063 CURVE",
"518 1075 LINE",
"505 1035 OFFCURVE",
"489 1012 OFFCURVE",
"456 1012 CURVE SMOOTH",
"409 1012 OFFCURVE",
"360 1065 OFFCURVE",
"311 1065 CURVE SMOOTH",
"260 1065 OFFCURVE",
"228 1021 OFFCURVE",
"218 970 CURVE",
"238 958 LINE"
);
}
);
};
components = (
{
name = O;
},
{
name = circumflex_tilde;
transform = "{1, 0, 0, 1, 576, 200}";
}
);
layerId = "0B1DFD06-3317-40CA-B510-4969A0718C16";
width = 650;
}
);
leftKerningGroup = O;
note = Ocircumflextilde;
rightKerningGroup = O;
unicode = 1ED6;
},
{
color = 4;
glyphname = Odieresis;
lastChange = "2018-02-26 14:41:34 +0000";
layers = (
{
background = {
paths = (
{
closed = 1;
nodes = (
"601 -10 OFFCURVE",
"719 124 OFFCURVE",
"719 350 CURVE SMOOTH",
"719 574 OFFCURVE",
"601 710 OFFCURVE",
"378 710 CURVE SMOOTH",
"154 710 OFFCURVE",
"36 574 OFFCURVE",
"36 350 CURVE SMOOTH",
"36 124 OFFCURVE",
"154 -10 OFFCURVE",
"378 -10 CURVE SMOOTH"
);
},
{
closed = 1;
nodes = (
"215 32 OFFCURVE",
"135 158 OFFCURVE",
"135 350 CURVE SMOOTH",
"135 541 OFFCURVE",
"215 668 OFFCURVE",
"377 668 CURVE SMOOTH",
"541 668 OFFCURVE",
"620 541 OFFCURVE",
"620 350 CURVE SMOOTH",
"620 158 OFFCURVE",
"541 32 OFFCURVE",
"377 32 CURVE SMOOTH"
);
},
{
closed = 1;
nodes = (
"298 781 OFFCURVE",
"316 800 OFFCURVE",
"316 827 CURVE SMOOTH",
"316 855 OFFCURVE",
"298 875 OFFCURVE",
"269 875 CURVE SMOOTH",
"241 875 OFFCURVE",
"223 855 OFFCURVE",
"223 827 CURVE SMOOTH",
"223 800 OFFCURVE",
"241 781 OFFCURVE",
"269 781 CURVE SMOOTH"
);
},
{
closed = 1;
nodes = (
"514 781 OFFCURVE",
"532 800 OFFCURVE",
"532 827 CURVE SMOOTH",
"532 855 OFFCURVE",
"514 875 OFFCURVE",
"485 875 CURVE SMOOTH",
"456 875 OFFCURVE",
"438 855 OFFCURVE",
"438 827 CURVE SMOOTH",
"438 800 OFFCURVE",
"456 781 OFFCURVE",
"485 781 CURVE SMOOTH"
);
}
);
};
components = (
{
name = O;
},
{
name = dieresiscomb;
transform = "{1, 0, 0, 1, 325, 200}";
}
);
layerId = "0B1DFD06-3317-40CA-B510-4969A0718C16";
width = 650;
}
);
leftKerningGroup = O;
note = Odieresis;
rightKerningGroup = O;
unicode = 00D6;
},
{
color = 4;
glyphname = Odotbelow;
lastChange = "2018-02-26 14:41:34 +0000";
layers = (
{
background = {
paths = (
{
closed = 1;
nodes = (
"36 124 OFFCURVE",
"154 -10 OFFCURVE",
"378 -10 CURVE SMOOTH",
"601 -10 OFFCURVE",
"719 124 OFFCURVE",
"719 350 CURVE SMOOTH",
"719 574 OFFCURVE",
"601 710 OFFCURVE",
"378 710 CURVE SMOOTH",
"154 710 OFFCURVE",
"36 574 OFFCURVE",
"36 350 CURVE SMOOTH"
);
},
{
closed = 1;
nodes = (
"135 541 OFFCURVE",
"215 668 OFFCURVE",
"377 668 CURVE SMOOTH",
"541 668 OFFCURVE",
"620 541 OFFCURVE",
"620 350 CURVE SMOOTH",
"620 158 OFFCURVE",
"541 32 OFFCURVE",
"377 32 CURVE SMOOTH",
"215 32 OFFCURVE",
"135 158 OFFCURVE",
"135 350 CURVE SMOOTH"
);
},
{
closed = 1;
nodes = (
"330 -140 OFFCURVE",
"349 -159 OFFCURVE",
"377 -159 CURVE SMOOTH",
"405 -159 OFFCURVE",
"423 -140 OFFCURVE",
"423 -112 CURVE SMOOTH",
"423 -84 OFFCURVE",
"405 -64 OFFCURVE",
"377 -64 CURVE SMOOTH",
"349 -64 OFFCURVE",
"330 -84 OFFCURVE",
"330 -112 CURVE SMOOTH"
);
}
);
};
components = (
{
name = O;
},
{
name = dotbelowcomb;
transform = "{1, 0, 0, 1, 325, 0}";
}
);
layerId = "0B1DFD06-3317-40CA-B510-4969A0718C16";
width = 650;
}
);
leftKerningGroup = O;
note = Odotbelow;
rightKerningGroup = O;
unicode = 1ECC;
},
{
color = 4;
glyphname = Ograve;
lastChange = "2018-02-26 16:09:50 +0000";
layers = (
{
background = {
paths = (
{
closed = 1;
nodes = (
"601 -10 OFFCURVE",
"719 124 OFFCURVE",
"719 350 CURVE SMOOTH",
"719 574 OFFCURVE",
"601 710 OFFCURVE",
"378 710 CURVE SMOOTH",
"154 710 OFFCURVE",
"36 574 OFFCURVE",
"36 350 CURVE SMOOTH",
"36 124 OFFCURVE",
"154 -10 OFFCURVE",
"378 -10 CURVE SMOOTH"
);
},
{
closed = 1;
nodes = (
"215 32 OFFCURVE",
"135 158 OFFCURVE",
"135 350 CURVE SMOOTH",
"135 541 OFFCURVE",
"215 668 OFFCURVE",
"377 668 CURVE SMOOTH",
"541 668 OFFCURVE",
"620 541 OFFCURVE",
"620 350 CURVE SMOOTH",
"620 158 OFFCURVE",
"541 32 OFFCURVE",
"377 32 CURVE SMOOTH"
);
},
{
closed = 1;
nodes = (
"459 807 LINE",
"344 913 LINE",
"335 922 OFFCURVE",
"319 937 OFFCURVE",
"299 937 CURVE SMOOTH",
"279 937 OFFCURVE",
"267 924 OFFCURVE",
"267 908 CURVE SMOOTH",
"267 890 OFFCURVE",
"279 876 OFFCURVE",
"298 865 CURVE SMOOTH",
"441 782 LINE"
);
}
);
};
components = (
{
name = O;
},
{
name = gravecomb;
transform = "{1, 0, 0, 1, 325, 200}";
}
);
layerId = "0B1DFD06-3317-40CA-B510-4969A0718C16";
width = 650;
}
);
leftKerningGroup = O;
note = Ograve;
rightKerningGroup = O;
unicode = 00D2;
},
{
color = 4;
glyphname = Ohookabove;
lastChange = "2018-02-26 14:41:34 +0000";
layers = (
{
background = {
paths = (
{
closed = 1;
nodes = (
"601 -10 OFFCURVE",
"719 124 OFFCURVE",
"719 350 CURVE SMOOTH",
"719 574 OFFCURVE",
"601 710 OFFCURVE",
"378 710 CURVE SMOOTH",
"154 710 OFFCURVE",
"36 574 OFFCURVE",
"36 350 CURVE SMOOTH",
"36 124 OFFCURVE",
"154 -10 OFFCURVE",
"378 -10 CURVE SMOOTH"
);
},
{
closed = 1;
nodes = (
"215 32 OFFCURVE",
"135 158 OFFCURVE",
"135 350 CURVE SMOOTH",
"135 541 OFFCURVE",
"215 668 OFFCURVE",
"377 668 CURVE SMOOTH",
"541 668 OFFCURVE",
"620 541 OFFCURVE",
"620 350 CURVE SMOOTH",
"620 158 OFFCURVE",
"541 32 OFFCURVE",
"377 32 CURVE SMOOTH"
);
},
{
closed = 1;
nodes = (
"407 798 LINE",
"388 805 OFFCURVE",
"376 811 OFFCURVE",
"376 828 CURVE SMOOTH",
"376 861 OFFCURVE",
"465 876 OFFCURVE",
"465 927 CURVE SMOOTH",
"465 969 OFFCURVE",
"429 991 OFFCURVE",
"376 991 CURVE SMOOTH",
"329 991 OFFCURVE",
"288 974 OFFCURVE",
"288 940 CURVE SMOOTH",
"288 923 OFFCURVE",
"296 915 OFFCURVE",
"311 915 CURVE SMOOTH",
"334 915 OFFCURVE",
"336 934 OFFCURVE",
"339 942 CURVE SMOOTH",
"344 956 OFFCURVE",
"361 962 OFFCURVE",
"377 962 CURVE SMOOTH",
"398 962 OFFCURVE",
"411 947 OFFCURVE",
"411 930 CURVE SMOOTH",
"411 885 OFFCURVE",
"329 874 OFFCURVE",
"329 828 CURVE SMOOTH",
"329 801 OFFCURVE",
"347 778 OFFCURVE",
"398 778 CURVE"
);
}
);
};
components = (
{
name = O;
},
{
name = hookabovecomb;
transform = "{1, 0, 0, 1, 325, 200}";
}
);
layerId = "0B1DFD06-3317-40CA-B510-4969A0718C16";
width = 650;
}
);
leftKerningGroup = O;
note = Ohookabove;
rightKerningGroup = O;
unicode = 1ECE;
},
{
color = 4;
glyphname = Ohornacute;
lastChange = "2018-02-26 14:41:34 +0000";
layers = (
{
background = {
paths = (
{
closed = 1;
nodes = (
"602 -10 OFFCURVE",
"720 124 OFFCURVE",
"720 350 CURVE SMOOTH",
"720 574 OFFCURVE",
"602 710 OFFCURVE",
"379 710 CURVE SMOOTH",
"155 710 OFFCURVE",
"37 574 OFFCURVE",
"37 350 CURVE SMOOTH",
"37 124 OFFCURVE",
"155 -10 OFFCURVE",
"379 -10 CURVE SMOOTH"
);
},
{
closed = 1;
nodes = (
"216 32 OFFCURVE",
"136 158 OFFCURVE",
"136 350 CURVE SMOOTH",
"136 541 OFFCURVE",
"216 668 OFFCURVE",
"378 668 CURVE SMOOTH",
"542 668 OFFCURVE",
"621 541 OFFCURVE",
"621 350 CURVE SMOOTH",
"621 158 OFFCURVE",
"542 32 OFFCURVE",
"378 32 CURVE SMOOTH"
);
},
{
closed = 1;
nodes = (
"424 864 LINE SMOOTH",
"446 876 OFFCURVE",
"458 889 OFFCURVE",
"458 906 CURVE SMOOTH",
"458 921 OFFCURVE",
"446 936 OFFCURVE",
"424 936 CURVE SMOOTH",
"403 936 OFFCURVE",
"388 920 OFFCURVE",
"380 913 CURVE SMOOTH",
"265 806 LINE",
"282 781 LINE"
);
},
{
closed = 1;
nodes = (
"691 567 OFFCURVE",
"756 632 OFFCURVE",
"756 705 CURVE SMOOTH",
"756 752 OFFCURVE",
"729 772 OFFCURVE",
"701 772 CURVE SMOOTH",
"672 772 OFFCURVE",
"656 752 OFFCURVE",
"656 729 CURVE SMOOTH",
"656 695 OFFCURVE",
"689 688 OFFCURVE",
"689 653 CURVE SMOOTH",
"689 617 OFFCURVE",
"658 588 OFFCURVE",
"623 568 CURVE",
"623 543 LINE"
);
}
);
};
components = (
{
name = Ohorn;
},
{
name = acutecomb;
transform = "{1, 0, 0, 1, 325, 200}";
}
);
layerId = "0B1DFD06-3317-40CA-B510-4969A0718C16";
width = 650;
}
);
leftKerningGroup = O;
note = Ohornacute;
rightKerningGroup = O;
unicode = 1EDA;
},
{
color = 4;
glyphname = Ohorndotbelow;
lastChange = "2018-02-26 16:07:35 +0000";
layers = (
{
background = {
paths = (
{
closed = 1;
nodes = (
"602 -10 OFFCURVE",
"720 124 OFFCURVE",
"720 350 CURVE SMOOTH",
"720 574 OFFCURVE",
"602 710 OFFCURVE",
"379 710 CURVE SMOOTH",
"155 710 OFFCURVE",
"37 574 OFFCURVE",
"37 350 CURVE SMOOTH",
"37 124 OFFCURVE",
"155 -10 OFFCURVE",
"379 -10 CURVE SMOOTH"
);
},
{
closed = 1;
nodes = (
"216 32 OFFCURVE",
"136 158 OFFCURVE",
"136 350 CURVE SMOOTH",
"136 541 OFFCURVE",
"216 668 OFFCURVE",
"378 668 CURVE SMOOTH",
"542 668 OFFCURVE",
"621 541 OFFCURVE",
"621 350 CURVE SMOOTH",
"621 158 OFFCURVE",
"542 32 OFFCURVE",
"378 32 CURVE SMOOTH"
);
},
{
closed = 1;
nodes = (
"691 567 OFFCURVE",
"756 632 OFFCURVE",
"756 705 CURVE SMOOTH",
"756 752 OFFCURVE",
"729 772 OFFCURVE",
"701 772 CURVE SMOOTH",
"672 772 OFFCURVE",
"656 752 OFFCURVE",
"656 729 CURVE SMOOTH",
"656 695 OFFCURVE",
"689 688 OFFCURVE",
"689 653 CURVE SMOOTH",
"689 617 OFFCURVE",
"658 588 OFFCURVE",
"623 568 CURVE",
"623 543 LINE"
);
},
{
closed = 1;
nodes = (
"395 -159 OFFCURVE",
"413 -140 OFFCURVE",
"413 -112 CURVE SMOOTH",
"413 -84 OFFCURVE",
"395 -64 OFFCURVE",
"367 -64 CURVE SMOOTH",
"339 -64 OFFCURVE",
"320 -84 OFFCURVE",
"320 -112 CURVE SMOOTH",
"320 -140 OFFCURVE",
"339 -159 OFFCURVE",
"367 -159 CURVE SMOOTH"
);
}
);
};
components = (
{
name = Ohorn;
},
{
name = dotbelowcomb;
transform = "{1, 0, 0, 1, 325, 0}";
}
);
layerId = "0B1DFD06-3317-40CA-B510-4969A0718C16";
width = 650;
}
);
leftKerningGroup = O;
note = Ohorndotbelow;
rightKerningGroup = O;
unicode = 1EE2;
},
{
color = 4;
glyphname = Ohorngrave;
lastChange = "2018-02-26 14:41:34 +0000";
layers = (
{
background = {
paths = (
{
closed = 1;
nodes = (
"602 -10 OFFCURVE",
"720 124 OFFCURVE",
"720 350 CURVE SMOOTH",
"720 574 OFFCURVE",
"602 710 OFFCURVE",
"379 710 CURVE SMOOTH",
"155 710 OFFCURVE",
"37 574 OFFCURVE",
"37 350 CURVE SMOOTH",
"37 124 OFFCURVE",
"155 -10 OFFCURVE",
"379 -10 CURVE SMOOTH"
);
},
{
closed = 1;
nodes = (
"216 32 OFFCURVE",
"136 158 OFFCURVE",
"136 350 CURVE SMOOTH",
"136 541 OFFCURVE",
"216 668 OFFCURVE",
"378 668 CURVE SMOOTH",
"542 668 OFFCURVE",
"621 541 OFFCURVE",
"621 350 CURVE SMOOTH",
"621 158 OFFCURVE",
"542 32 OFFCURVE",
"378 32 CURVE SMOOTH"
);
},
{
closed = 1;
nodes = (
"464 816 LINE",
"349 922 LINE",
"340 931 OFFCURVE",
"324 946 OFFCURVE",
"304 946 CURVE SMOOTH",
"284 946 OFFCURVE",
"272 933 OFFCURVE",
"272 917 CURVE SMOOTH",
"272 899 OFFCURVE",
"284 885 OFFCURVE",
"303 874 CURVE SMOOTH",
"446 791 LINE"
);
},
{
closed = 1;
nodes = (
"691 567 OFFCURVE",
"756 632 OFFCURVE",
"756 705 CURVE SMOOTH",
"756 752 OFFCURVE",
"729 772 OFFCURVE",
"701 772 CURVE SMOOTH",
"672 772 OFFCURVE",
"656 752 OFFCURVE",
"656 729 CURVE SMOOTH",
"656 695 OFFCURVE",
"689 688 OFFCURVE",
"689 653 CURVE SMOOTH",
"689 617 OFFCURVE",
"658 588 OFFCURVE",
"623 568 CURVE",
"623 543 LINE"
);
}
);
};
components = (
{
name = Ohorn;
},
{
name = gravecomb;
transform = "{1, 0, 0, 1, 325, 200}";
}
);
layerId = "0B1DFD06-3317-40CA-B510-4969A0718C16";
width = 650;
}
);
leftKerningGroup = O;
note = Ohorngrave;
rightKerningGroup = O;
unicode = 1EDC;
},
{
color = 4;
glyphname = Ohornhookabove;
lastChange = "2018-02-26 14:41:34 +0000";
layers = (
{
background = {
paths = (
{
closed = 1;
nodes = (
"602 -10 OFFCURVE",
"720 124 OFFCURVE",
"720 350 CURVE SMOOTH",
"720 574 OFFCURVE",
"602 710 OFFCURVE",
"379 710 CURVE SMOOTH",
"155 710 OFFCURVE",
"37 574 OFFCURVE",
"37 350 CURVE SMOOTH",
"37 124 OFFCURVE",
"155 -10 OFFCURVE",
"379 -10 CURVE SMOOTH"
);
},
{
closed = 1;
nodes = (
"216 32 OFFCURVE",
"136 158 OFFCURVE",
"136 350 CURVE SMOOTH",
"136 541 OFFCURVE",
"216 668 OFFCURVE",
"378 668 CURVE SMOOTH",
"542 668 OFFCURVE",
"621 541 OFFCURVE",
"621 350 CURVE SMOOTH",
"621 158 OFFCURVE",
"542 32 OFFCURVE",
"378 32 CURVE SMOOTH"
);
},
{
closed = 1;
nodes = (
"412 809 LINE",
"393 816 OFFCURVE",
"381 822 OFFCURVE",
"381 839 CURVE SMOOTH",
"381 872 OFFCURVE",
"470 887 OFFCURVE",
"470 938 CURVE SMOOTH",
"470 980 OFFCURVE",
"434 1002 OFFCURVE",
"381 1002 CURVE SMOOTH",
"334 1002 OFFCURVE",
"293 985 OFFCURVE",
"293 951 CURVE SMOOTH",
"293 934 OFFCURVE",
"301 926 OFFCURVE",
"316 926 CURVE SMOOTH",
"339 926 OFFCURVE",
"341 945 OFFCURVE",
"344 953 CURVE SMOOTH",
"349 967 OFFCURVE",
"366 973 OFFCURVE",
"382 973 CURVE SMOOTH",
"403 973 OFFCURVE",
"416 958 OFFCURVE",
"416 941 CURVE SMOOTH",
"416 896 OFFCURVE",
"334 885 OFFCURVE",
"334 839 CURVE SMOOTH",
"334 812 OFFCURVE",
"352 789 OFFCURVE",
"403 789 CURVE"
);
},
{
closed = 1;
nodes = (
"691 567 OFFCURVE",
"756 632 OFFCURVE",
"756 705 CURVE SMOOTH",
"756 752 OFFCURVE",
"729 772 OFFCURVE",
"701 772 CURVE SMOOTH",
"672 772 OFFCURVE",
"656 752 OFFCURVE",
"656 729 CURVE SMOOTH",
"656 695 OFFCURVE",
"689 688 OFFCURVE",
"689 653 CURVE SMOOTH",
"689 617 OFFCURVE",
"658 588 OFFCURVE",
"623 568 CURVE",
"623 543 LINE"
);
}
);
};
components = (
{
name = Ohorn;
},
{
name = hookabovecomb;
transform = "{1, 0, 0, 1, 325, 200}";
}
);
layerId = "0B1DFD06-3317-40CA-B510-4969A0718C16";
width = 650;
}
);
leftKerningGroup = O;
note = Ohornhookabove;
rightKerningGroup = O;
unicode = 1EDE;
},
{
color = 4;
glyphname = Ohorntilde;
lastChange = "2018-02-26 14:41:34 +0000";
layers = (
{
background = {
paths = (
{
closed = 1;
nodes = (
"602 -10 OFFCURVE",
"720 124 OFFCURVE",
"720 350 CURVE SMOOTH",
"720 574 OFFCURVE",
"602 710 OFFCURVE",
"379 710 CURVE SMOOTH",
"155 710 OFFCURVE",
"37 574 OFFCURVE",
"37 350 CURVE SMOOTH",
"37 124 OFFCURVE",
"155 -10 OFFCURVE",
"379 -10 CURVE SMOOTH"
);
},
{
closed = 1;
nodes = (
"216 32 OFFCURVE",
"136 158 OFFCURVE",
"136 350 CURVE SMOOTH",
"136 541 OFFCURVE",
"216 668 OFFCURVE",
"378 668 CURVE SMOOTH",
"542 668 OFFCURVE",
"621 541 OFFCURVE",
"621 350 CURVE SMOOTH",
"621 158 OFFCURVE",
"542 32 OFFCURVE",
"378 32 CURVE SMOOTH"
);
},
{
closed = 1;
nodes = (
"234 828 OFFCURVE",
"252 849 OFFCURVE",
"285 849 CURVE SMOOTH",
"336 849 OFFCURVE",
"385 795 OFFCURVE",
"436 795 CURVE SMOOTH",
"494 795 OFFCURVE",
"524 843 OFFCURVE",
"536 895 CURVE",
"515 906 LINE",
"499 866 OFFCURVE",
"483 844 OFFCURVE",
"449 844 CURVE SMOOTH",
"400 844 OFFCURVE",
"348 897 OFFCURVE",
"297 897 CURVE SMOOTH",
"243 897 OFFCURVE",
"210 853 OFFCURVE",
"198 801 CURVE",
"220 790 LINE"
);
},
{
closed = 1;
nodes = (
"691 567 OFFCURVE",
"756 632 OFFCURVE",
"756 705 CURVE SMOOTH",
"756 752 OFFCURVE",
"729 772 OFFCURVE",
"701 772 CURVE SMOOTH",
"672 772 OFFCURVE",
"656 752 OFFCURVE",
"656 729 CURVE SMOOTH",
"656 695 OFFCURVE",
"689 688 OFFCURVE",
"689 653 CURVE SMOOTH",
"689 617 OFFCURVE",
"658 588 OFFCURVE",
"623 568 CURVE",
"623 543 LINE"
);
}
);
};
components = (
{
name = Ohorn;
},
{
name = tildecomb;
transform = "{1, 0, 0, 1, 325, 200}";
}
);
layerId = "0B1DFD06-3317-40CA-B510-4969A0718C16";
width = 650;
}
);
leftKerningGroup = O;
note = Ohorntilde;
rightKerningGroup = O;
unicode = 1EE0;
},
{
color = 4;
glyphname = Ohungarumlaut;
lastChange = "2018-02-26 14:41:34 +0000";
layers = (
{
background = {
paths = (
{
closed = 1;
nodes = (
"601 -10 OFFCURVE",
"719 124 OFFCURVE",
"719 350 CURVE SMOOTH",
"719 574 OFFCURVE",
"601 710 OFFCURVE",
"378 710 CURVE SMOOTH",
"154 710 OFFCURVE",
"36 574 OFFCURVE",
"36 350 CURVE SMOOTH",
"36 124 OFFCURVE",
"154 -10 OFFCURVE",
"378 -10 CURVE SMOOTH"
);
},
{
closed = 1;
nodes = (
"215 32 OFFCURVE",
"135 158 OFFCURVE",
"135 350 CURVE SMOOTH",
"135 541 OFFCURVE",
"215 668 OFFCURVE",
"377 668 CURVE SMOOTH",
"541 668 OFFCURVE",
"620 541 OFFCURVE",
"620 350 CURVE SMOOTH",
"620 158 OFFCURVE",
"541 32 OFFCURVE",
"377 32 CURVE SMOOTH"
);
},
{
closed = 1;
nodes = (
"395 864 LINE SMOOTH",
"417 877 OFFCURVE",
"429 891 OFFCURVE",
"429 908 CURVE SMOOTH",
"429 922 OFFCURVE",
"421 937 OFFCURVE",
"399 937 CURVE SMOOTH",
"378 937 OFFCURVE",
"357 919 OFFCURVE",
"350 913 CURVE",
"236 807 LINE",
"253 782 LINE"
);
},
{
closed = 1;
nodes = (
"556 864 LINE SMOOTH",
"577 877 OFFCURVE",
"589 891 OFFCURVE",
"589 908 CURVE SMOOTH",
"589 922 OFFCURVE",
"578 937 OFFCURVE",
"556 937 CURVE SMOOTH",
"534 937 OFFCURVE",
"517 919 OFFCURVE",
"510 913 CURVE",
"396 807 LINE",
"414 782 LINE"
);
}
);
};
components = (
{
name = O;
},
{
name = hungarumlautcomb;
transform = "{1, 0, 0, 1, 325, 200}";
}
);
layerId = "0B1DFD06-3317-40CA-B510-4969A0718C16";
width = 650;
}
);
leftKerningGroup = O;
note = Ohungarumlaut;
rightKerningGroup = O;
unicode = 0150;
},
{
color = 4;
glyphname = Omacron;
lastChange = "2018-02-26 14:41:34 +0000";
layers = (
{
background = {
paths = (
{
closed = 1;
nodes = (
"601 -10 OFFCURVE",
"719 124 OFFCURVE",
"719 350 CURVE SMOOTH",
"719 574 OFFCURVE",
"601 710 OFFCURVE",
"378 710 CURVE SMOOTH",
"154 710 OFFCURVE",
"36 574 OFFCURVE",
"36 350 CURVE SMOOTH",
"36 124 OFFCURVE",
"154 -10 OFFCURVE",
"378 -10 CURVE SMOOTH"
);
},
{
closed = 1;
nodes = (
"215 32 OFFCURVE",
"135 158 OFFCURVE",
"135 350 CURVE SMOOTH",
"135 541 OFFCURVE",
"215 668 OFFCURVE",
"377 668 CURVE SMOOTH",
"541 668 OFFCURVE",
"620 541 OFFCURVE",
"620 350 CURVE SMOOTH",
"620 158 OFFCURVE",
"541 32 OFFCURVE",
"377 32 CURVE SMOOTH"
);
},
{
closed = 1;
nodes = (
"543 793 LINE",
"543 835 LINE",
"210 835 LINE",
"210 793 LINE"
);
}
);
};
components = (
{
name = O;
},
{
name = macroncomb;
transform = "{1, 0, 0, 1, 325, 200}";
}
);
layerId = "0B1DFD06-3317-40CA-B510-4969A0718C16";
width = 650;
}
);
leftKerningGroup = O;
note = Omacron;
rightKerningGroup = O;
unicode = 014C;
},
{
color = 4;
glyphname = Oslash;
lastChange = "2018-02-19 18:21:36 +0000";
layers = (
{
components = (
{
name = O;
}
);
layerId = "0B1DFD06-3317-40CA-B510-4969A0718C16";
paths = (
{
closed = 1;
nodes = (
"146 -43 LINE",
"555 725 LINE",
"504 725 LINE",
"99 -43 LINE"
);
}
);
width = 630;
}
);
note = Oslash;
unicode = 00D8;
},
{
color = 4;
glyphname = OE;
lastChange = "2018-02-26 14:44:02 +0000";
layers = (
{
layerId = "0B1DFD06-3317-40CA-B510-4969A0718C16";
paths = (
{
closed = 1;
nodes = (
"481 -10 OFFCURVE",
"532 174 OFFCURVE",
"532 350 CURVE SMOOTH",
"532 526 OFFCURVE",
"481 710 OFFCURVE",
"281 710 CURVE SMOOTH",
"97 710 OFFCURVE",
"30 556 OFFCURVE",
"30 350 CURVE SMOOTH",
"30 134 OFFCURVE",
"104 -10 OFFCURVE",
"281 -10 CURVE SMOOTH"
);
},
{
closed = 1;
nodes = (
"139 38 OFFCURVE",
"88 163 OFFCURVE",
"88 350 CURVE SMOOTH",
"88 537 OFFCURVE",
"139 662 OFFCURVE",
"281 662 CURVE SMOOTH",
"416 662 OFFCURVE",
"474 537 OFFCURVE",
"474 350 CURVE SMOOTH",
"474 163 OFFCURVE",
"416 38 OFFCURVE",
"281 38 CURVE SMOOTH"
);
},
{
closed = 1;
nodes = (
"825 0 LINE",
"825 49 LINE",
"532 49 LINE",
"532 345 LINE",
"790 345 LINE",
"790 394 LINE",
"532 394 LINE",
"532 651 LINE",
"825 651 LINE",
"825 700 LINE",
"474 700 LINE",
"474 0 LINE"
);
}
);
width = 885;
}
);
note = OE;
rightMetricsKey = E;
unicode = 0152;
},
{
color = 4;
glyphname = Thorn;
lastChange = "2018-02-26 14:44:10 +0000";
layers = (
{
anchors = (
{
name = bottom;
position = "{282, 0}";
},
{
name = top;
position = "{282, 700}";
}
);
layerId = "0B1DFD06-3317-40CA-B510-4969A0718C16";
paths = (
{
closed = 1;
nodes = (
"148 0 LINE",
"148 175 LINE",
"274 175 LINE SMOOTH",
"424 175 OFFCURVE",
"503 259 OFFCURVE",
"503 395 CURVE SMOOTH",
"503 531 OFFCURVE",
"423 600 OFFCURVE",
"279 600 CURVE SMOOTH",
"148 600 LINE",
"148 700 LINE",
"90 700 LINE",
"90 0 LINE"
);
},
{
closed = 1;
nodes = (
"148 550 LINE",
"278 550 LINE SMOOTH",
"387 550 OFFCURVE",
"449 496 OFFCURVE",
"449 390 CURVE SMOOTH",
"449 289 OFFCURVE",
"393 225 OFFCURVE",
"286 225 CURVE SMOOTH",
"148 225 LINE"
);
}
);
width = 563;
}
);
leftMetricsKey = P;
note = Thorn;
rightMetricsKey = P;
unicode = 00DE;
},
{
color = 4;
glyphname = Germandbls;
lastChange = "2018-02-26 15:18:26 +0000";
layers = (
{
layerId = "0B1DFD06-3317-40CA-B510-4969A0718C16";
paths = (
{
closed = 1;
nodes = (
"522 -10 OFFCURVE",
"567 93 OFFCURVE",
"567 174 CURVE SMOOTH",
"567 254 OFFCURVE",
"532 343 OFFCURVE",
"354 389 CURVE",
"485 650 LINE",
"485 700 LINE",
"90 700 LINE",
"90 0 LINE",
"148 0 LINE",
"148 650 LINE",
"428 650 LINE",
"297 390 LINE",
"297 358 LINE",
"428 325 OFFCURVE",
"509 286 OFFCURVE",
"509 174 CURVE SMOOTH",
"509 117 OFFCURVE",
"479 35 OFFCURVE",
"381 35 CURVE SMOOTH",
"321 35 OFFCURVE",
"286 54 OFFCURVE",
"260 93 CURVE",
"222 68 LINE",
"254 15 OFFCURVE",
"306 -10 OFFCURVE",
"381 -10 CURVE SMOOTH"
);
}
);
width = 597;
}
);
note = uni1E9E;
unicode = 1E9E;
},
{
color = 4;
glyphname = Schwa;
lastChange = "2018-02-26 15:18:39 +0000";
layers = (
{
layerId = "0B1DFD06-3317-40CA-B510-4969A0718C16";
paths = (
{
closed = 1;
nodes = (
"568 158 OFFCURVE",
"479 38 OFFCURVE",
"329 38 CURVE SMOOTH",
"191 38 OFFCURVE",
"100 143 OFFCURVE",
"100 304 CURVE SMOOTH",
"100 326 LINE",
"593 326 LINE",
"594 374 LINE",
"40 374 LINE",
"40 341 LINE SMOOTH",
"40 115 OFFCURVE",
"148 -10 OFFCURVE",
"330 -10 CURVE SMOOTH",
"519 -10 OFFCURVE",
"626 126 OFFCURVE",
"626 347 CURVE SMOOTH",
"626 574 OFFCURVE",
"514 710 OFFCURVE",
"319 710 CURVE SMOOTH",
"209 710 OFFCURVE",
"128 666 OFFCURVE",
"76 593 CURVE",
"115 555 LINE",
"155 617 OFFCURVE",
"226 662 OFFCURVE",
"321 662 CURVE SMOOTH",
"479 662 OFFCURVE",
"568 538 OFFCURVE",
"568 348 CURVE SMOOTH"
);
}
);
width = 666;
}
);
note = uni018F;
unicode = 018F;
},
{
color = 4;
glyphname = Tbar;
lastChange = "2018-02-26 14:43:40 +0000";
layers = (
{
components = (
{
name = T;
}
);
layerId = "0B1DFD06-3317-40CA-B510-4969A0718C16";
paths = (
{
closed = 1;
nodes = (
"452 317 LINE",
"452 357 LINE",
"66 357 LINE",
"66 317 LINE"
);
}
);
width = 538;
}
);
leftKerningGroup = T;
leftMetricsKey = T;
note = Tbar;
rightKerningGroup = T;
rightMetricsKey = T;
unicode = 0166;
},
{
color = 4;
glyphname = Uacute;
lastChange = "2018-02-26 14:41:34 +0000";
layers = (
{
background = {
paths = (
{
closed = 1;
nodes = (
"539 -10 OFFCURVE",
"636 51 OFFCURVE",
"636 204 CURVE SMOOTH",
"636 637 LINE SMOOTH",
"636 662 OFFCURVE",
"660 673 OFFCURVE",
"690 673 CURVE SMOOTH",
"713 673 LINE",
"713 700 LINE",
"510 700 LINE",
"510 673 LINE",
"532 673 LINE SMOOTH",
"564 673 OFFCURVE",
"586 662 OFFCURVE",
"586 637 CURVE SMOOTH",
"586 197 LINE SMOOTH",
"586 65 OFFCURVE",
"489 31 OFFCURVE",
"397 31 CURVE SMOOTH",
"290 31 OFFCURVE",
"203 63 OFFCURVE",
"203 197 CURVE SMOOTH",
"203 637 LINE SMOOTH",
"203 662 OFFCURVE",
"226 673 OFFCURVE",
"257 673 CURVE SMOOTH",
"280 673 LINE",
"280 700 LINE",
"28 700 LINE",
"28 673 LINE",
"51 673 LINE SMOOTH",
"82 673 OFFCURVE",
"105 662 OFFCURVE",
"105 637 CURVE SMOOTH",
"105 204 LINE SMOOTH",
"105 46 OFFCURVE",
"208 -10 OFFCURVE",
"375 -10 CURVE SMOOTH"
);
},
{
closed = 1;
nodes = (
"447 865 LINE SMOOTH",
"469 877 OFFCURVE",
"481 890 OFFCURVE",
"481 907 CURVE SMOOTH",
"481 922 OFFCURVE",
"469 937 OFFCURVE",
"447 937 CURVE SMOOTH",
"426 937 OFFCURVE",
"411 921 OFFCURVE",
"403 914 CURVE SMOOTH",
"288 807 LINE",
"305 782 LINE"
);
}
);
};
components = (
{
name = U;
},
{
name = acutecomb;
transform = "{1, 0, 0, 1, 328, 200}";
}
);
layerId = "0B1DFD06-3317-40CA-B510-4969A0718C16";
width = 656;
}
);
leftKerningGroup = U;
note = Uacute;
rightKerningGroup = U;
unicode = 00DA;
},
{
color = 4;
glyphname = Ubreve;
lastChange = "2018-02-26 14:41:34 +0000";
layers = (
{
background = {
paths = (
{
closed = 1;
nodes = (
"539 -10 OFFCURVE",
"636 51 OFFCURVE",
"636 204 CURVE SMOOTH",
"636 637 LINE SMOOTH",
"636 662 OFFCURVE",
"660 673 OFFCURVE",
"690 673 CURVE SMOOTH",
"713 673 LINE",
"713 700 LINE",
"510 700 LINE",
"510 673 LINE",
"532 673 LINE SMOOTH",
"564 673 OFFCURVE",
"586 662 OFFCURVE",
"586 637 CURVE SMOOTH",
"586 197 LINE SMOOTH",
"586 65 OFFCURVE",
"489 31 OFFCURVE",
"397 31 CURVE SMOOTH",
"290 31 OFFCURVE",
"203 63 OFFCURVE",
"203 197 CURVE SMOOTH",
"203 637 LINE SMOOTH",
"203 662 OFFCURVE",
"226 673 OFFCURVE",
"257 673 CURVE SMOOTH",
"280 673 LINE",
"280 700 LINE",
"28 700 LINE",
"28 673 LINE",
"51 673 LINE SMOOTH",
"82 673 OFFCURVE",
"105 662 OFFCURVE",
"105 637 CURVE SMOOTH",
"105 204 LINE SMOOTH",
"105 46 OFFCURVE",
"208 -10 OFFCURVE",
"375 -10 CURVE SMOOTH"
);
},
{
closed = 1;
nodes = (
"483 774 OFFCURVE",
"525 830 OFFCURVE",
"529 905 CURVE",
"496 905 LINE",
"490 846 OFFCURVE",
"448 820 OFFCURVE",
"384 820 CURVE SMOOTH",
"320 820 OFFCURVE",
"277 846 OFFCURVE",
"270 905 CURVE",
"237 905 LINE",
"241 827 OFFCURVE",
"283 774 OFFCURVE",
"384 774 CURVE SMOOTH"
);
}
);
};
components = (
{
name = U;
},
{
name = brevecomb;
transform = "{1, 0, 0, 1, 328, 200}";
}
);
layerId = "0B1DFD06-3317-40CA-B510-4969A0718C16";
width = 656;
}
);
leftKerningGroup = U;
note = Ubreve;
rightKerningGroup = U;
unicode = 016C;
},
{
color = 4;
glyphname = Ucaron;
lastChange = "2018-02-26 14:41:34 +0000";
layers = (
{
background = {
paths = (
{
closed = 1;
nodes = (
"539 -10 OFFCURVE",
"636 51 OFFCURVE",
"636 204 CURVE SMOOTH",
"636 637 LINE SMOOTH",
"636 662 OFFCURVE",
"660 673 OFFCURVE",
"690 673 CURVE SMOOTH",
"713 673 LINE",
"713 700 LINE",
"510 700 LINE",
"510 673 LINE",
"532 673 LINE SMOOTH",
"564 673 OFFCURVE",
"586 662 OFFCURVE",
"586 637 CURVE SMOOTH",
"586 197 LINE SMOOTH",
"586 65 OFFCURVE",
"489 31 OFFCURVE",
"397 31 CURVE SMOOTH",
"290 31 OFFCURVE",
"203 63 OFFCURVE",
"203 197 CURVE SMOOTH",
"203 637 LINE SMOOTH",
"203 662 OFFCURVE",
"226 673 OFFCURVE",
"257 673 CURVE SMOOTH",
"280 673 LINE",
"280 700 LINE",
"28 700 LINE",
"28 673 LINE",
"51 673 LINE SMOOTH",
"82 673 OFFCURVE",
"105 662 OFFCURVE",
"105 637 CURVE SMOOTH",
"105 204 LINE SMOOTH",
"105 46 OFFCURVE",
"208 -10 OFFCURVE",
"375 -10 CURVE SMOOTH"
);
},
{
closed = 1;
nodes = (
"397 782 LINE",
"521 911 LINE",
"502 932 LINE",
"394 847 LINE",
"386 840 OFFCURVE",
"377 836 OFFCURVE",
"371 836 CURVE SMOOTH",
"365 836 OFFCURVE",
"357 840 OFFCURVE",
"347 847 CURVE",
"239 932 LINE",
"220 911 LINE",
"344 782 LINE"
);
}
);
};
components = (
{
name = U;
},
{
name = caroncomb;
transform = "{1, 0, 0, 1, 328, 200}";
}
);
layerId = "0B1DFD06-3317-40CA-B510-4969A0718C16";
width = 656;
}
);
leftKerningGroup = U;
note = Ucaron;
rightKerningGroup = U;
unicode = 01D3;
},
{
color = 4;
glyphname = Ucircumflex;
lastChange = "2018-02-26 14:41:34 +0000";
layers = (
{
background = {
paths = (
{
closed = 1;
nodes = (
"539 -10 OFFCURVE",
"636 51 OFFCURVE",
"636 204 CURVE SMOOTH",
"636 637 LINE SMOOTH",
"636 662 OFFCURVE",
"660 673 OFFCURVE",
"690 673 CURVE SMOOTH",
"713 673 LINE",
"713 700 LINE",
"510 700 LINE",
"510 673 LINE",
"532 673 LINE SMOOTH",
"564 673 OFFCURVE",
"586 662 OFFCURVE",
"586 637 CURVE SMOOTH",
"586 197 LINE SMOOTH",
"586 65 OFFCURVE",
"489 31 OFFCURVE",
"397 31 CURVE SMOOTH",
"290 31 OFFCURVE",
"203 63 OFFCURVE",
"203 197 CURVE SMOOTH",
"203 637 LINE SMOOTH",
"203 662 OFFCURVE",
"226 673 OFFCURVE",
"257 673 CURVE SMOOTH",
"280 673 LINE",
"280 700 LINE",
"28 700 LINE",
"28 673 LINE",
"51 673 LINE SMOOTH",
"82 673 OFFCURVE",
"105 662 OFFCURVE",
"105 637 CURVE SMOOTH",
"105 204 LINE SMOOTH",
"105 46 OFFCURVE",
"208 -10 OFFCURVE",
"375 -10 CURVE SMOOTH"
);
},
{
closed = 1;
nodes = (
"360 868 LINE SMOOTH",
"368 874 OFFCURVE",
"378 879 OFFCURVE",
"384 879 CURVE SMOOTH",
"390 879 OFFCURVE",
"398 874 OFFCURVE",
"407 868 CURVE",
"515 782 LINE",
"534 803 LINE",
"410 932 LINE",
"357 932 LINE",
"233 803 LINE",
"252 782 LINE"
);
}
);
};
components = (
{
name = U;
},
{
name = circumflexcomb;
transform = "{1, 0, 0, 1, 328, 200}";
}
);
layerId = "0B1DFD06-3317-40CA-B510-4969A0718C16";
width = 656;
}
);
leftKerningGroup = U;
note = Ucircumflex;
rightKerningGroup = U;
unicode = 00DB;
},
{
color = 4;
glyphname = Udieresis;
lastChange = "2018-02-26 14:41:34 +0000";
layers = (
{
background = {
paths = (
{
closed = 1;
nodes = (
"539 -10 OFFCURVE",
"636 51 OFFCURVE",
"636 204 CURVE SMOOTH",
"636 637 LINE SMOOTH",
"636 662 OFFCURVE",
"660 673 OFFCURVE",
"690 673 CURVE SMOOTH",
"713 673 LINE",
"713 700 LINE",
"510 700 LINE",
"510 673 LINE",
"532 673 LINE SMOOTH",
"564 673 OFFCURVE",
"586 662 OFFCURVE",
"586 637 CURVE SMOOTH",
"586 197 LINE SMOOTH",
"586 65 OFFCURVE",
"489 31 OFFCURVE",
"397 31 CURVE SMOOTH",
"290 31 OFFCURVE",
"203 63 OFFCURVE",
"203 197 CURVE SMOOTH",
"203 637 LINE SMOOTH",
"203 662 OFFCURVE",
"226 673 OFFCURVE",
"257 673 CURVE SMOOTH",
"280 673 LINE",
"280 700 LINE",
"28 700 LINE",
"28 673 LINE",
"51 673 LINE SMOOTH",
"82 673 OFFCURVE",
"105 662 OFFCURVE",
"105 637 CURVE SMOOTH",
"105 204 LINE SMOOTH",
"105 46 OFFCURVE",
"208 -10 OFFCURVE",
"375 -10 CURVE SMOOTH"
);
},
{
closed = 1;
nodes = (
"304 781 OFFCURVE",
"322 800 OFFCURVE",
"322 827 CURVE SMOOTH",
"322 855 OFFCURVE",
"304 875 OFFCURVE",
"275 875 CURVE SMOOTH",
"247 875 OFFCURVE",
"229 855 OFFCURVE",
"229 827 CURVE SMOOTH",
"229 800 OFFCURVE",
"247 781 OFFCURVE",
"275 781 CURVE SMOOTH"
);
},
{
closed = 1;
nodes = (
"520 781 OFFCURVE",
"538 800 OFFCURVE",
"538 827 CURVE SMOOTH",
"538 855 OFFCURVE",
"520 875 OFFCURVE",
"491 875 CURVE SMOOTH",
"462 875 OFFCURVE",
"444 855 OFFCURVE",
"444 827 CURVE SMOOTH",
"444 800 OFFCURVE",
"462 781 OFFCURVE",
"491 781 CURVE SMOOTH"
);
}
);
};
components = (
{
name = U;
},
{
name = dieresiscomb;
transform = "{1, 0, 0, 1, 328, 200}";
}
);
layerId = "0B1DFD06-3317-40CA-B510-4969A0718C16";
width = 656;
}
);
leftKerningGroup = U;
note = Udieresis;
rightKerningGroup = U;
unicode = 00DC;
},
{
color = 4;
glyphname = Udieresisacute;
lastChange = "2018-02-26 14:41:34 +0000";
layers = (
{
background = {
paths = (
{
closed = 1;
nodes = (
"539 -10 OFFCURVE",
"636 51 OFFCURVE",
"636 204 CURVE SMOOTH",
"636 637 LINE SMOOTH",
"636 662 OFFCURVE",
"660 673 OFFCURVE",
"690 673 CURVE SMOOTH",
"713 673 LINE",
"713 700 LINE",
"510 700 LINE",
"510 673 LINE",
"532 673 LINE SMOOTH",
"564 673 OFFCURVE",
"586 662 OFFCURVE",
"586 637 CURVE SMOOTH",
"586 197 LINE SMOOTH",
"586 65 OFFCURVE",
"489 31 OFFCURVE",
"397 31 CURVE SMOOTH",
"290 31 OFFCURVE",
"203 63 OFFCURVE",
"203 197 CURVE SMOOTH",
"203 637 LINE SMOOTH",
"203 662 OFFCURVE",
"226 673 OFFCURVE",
"257 673 CURVE SMOOTH",
"280 673 LINE",
"280 700 LINE",
"28 700 LINE",
"28 673 LINE",
"51 673 LINE SMOOTH",
"82 673 OFFCURVE",
"105 662 OFFCURVE",
"105 637 CURVE SMOOTH",
"105 204 LINE SMOOTH",
"105 46 OFFCURVE",
"208 -10 OFFCURVE",
"375 -10 CURVE SMOOTH"
);
},
{
closed = 1;
nodes = (
"291 780 OFFCURVE",
"310 799 OFFCURVE",
"310 827 CURVE SMOOTH",
"310 855 OFFCURVE",
"291 875 OFFCURVE",
"262 875 CURVE SMOOTH",
"235 875 OFFCURVE",
"216 855 OFFCURVE",
"216 827 CURVE SMOOTH",
"216 799 OFFCURVE",
"235 780 OFFCURVE",
"262 780 CURVE SMOOTH"
);
},
{
closed = 1;
nodes = (
"507 780 OFFCURVE",
"526 799 OFFCURVE",
"526 827 CURVE SMOOTH",
"526 855 OFFCURVE",
"507 875 OFFCURVE",
"479 875 CURVE SMOOTH",
"451 875 OFFCURVE",
"432 855 OFFCURVE",
"432 827 CURVE SMOOTH",
"432 799 OFFCURVE",
"451 780 OFFCURVE",
"479 780 CURVE SMOOTH"
);
},
{
closed = 1;
nodes = (
"481 969 LINE SMOOTH",
"502 981 OFFCURVE",
"512 993 OFFCURVE",
"512 1009 CURVE SMOOTH",
"512 1024 OFFCURVE",
"503 1037 OFFCURVE",
"481 1037 CURVE SMOOTH",
"460 1037 OFFCURVE",
"442 1020 OFFCURVE",
"435 1013 CURVE SMOOTH",
"344 924 LINE",
"362 899 LINE"
);
}
);
};
components = (
{
name = U;
},
{
name = dieresis_acute;
transform = "{1, 0, 0, 1, 328, 200}";
}
);
layerId = "0B1DFD06-3317-40CA-B510-4969A0718C16";
width = 656;
}
);
leftKerningGroup = U;
note = Udieresisacute;
rightKerningGroup = U;
unicode = 01D7;
},
{
color = 4;
glyphname = Udieresiscaron;
lastChange = "2018-02-26 14:41:34 +0000";
layers = (
{
background = {
paths = (
{
closed = 1;
nodes = (
"539 -10 OFFCURVE",
"636 51 OFFCURVE",
"636 204 CURVE SMOOTH",
"636 637 LINE SMOOTH",
"636 662 OFFCURVE",
"660 673 OFFCURVE",
"690 673 CURVE SMOOTH",
"713 673 LINE",
"713 700 LINE",
"510 700 LINE",
"510 673 LINE",
"532 673 LINE SMOOTH",
"564 673 OFFCURVE",
"586 662 OFFCURVE",
"586 637 CURVE SMOOTH",
"586 197 LINE SMOOTH",
"586 65 OFFCURVE",
"489 31 OFFCURVE",
"397 31 CURVE SMOOTH",
"290 31 OFFCURVE",
"203 63 OFFCURVE",
"203 197 CURVE SMOOTH",
"203 637 LINE SMOOTH",
"203 662 OFFCURVE",
"226 673 OFFCURVE",
"257 673 CURVE SMOOTH",
"280 673 LINE",
"280 700 LINE",
"28 700 LINE",
"28 673 LINE",
"51 673 LINE SMOOTH",
"82 673 OFFCURVE",
"105 662 OFFCURVE",
"105 637 CURVE SMOOTH",
"105 204 LINE SMOOTH",
"105 46 OFFCURVE",
"208 -10 OFFCURVE",
"375 -10 CURVE SMOOTH"
);
},
{
closed = 1;
nodes = (
"296 780 OFFCURVE",
"315 799 OFFCURVE",
"315 827 CURVE SMOOTH",
"315 855 OFFCURVE",
"296 875 OFFCURVE",
"267 875 CURVE SMOOTH",
"240 875 OFFCURVE",
"221 855 OFFCURVE",
"221 827 CURVE SMOOTH",
"221 799 OFFCURVE",
"240 780 OFFCURVE",
"267 780 CURVE SMOOTH"
);
},
{
closed = 1;
nodes = (
"512 780 OFFCURVE",
"531 799 OFFCURVE",
"531 827 CURVE SMOOTH",
"531 855 OFFCURVE",
"512 875 OFFCURVE",
"484 875 CURVE SMOOTH",
"456 875 OFFCURVE",
"437 855 OFFCURVE",
"437 827 CURVE SMOOTH",
"437 799 OFFCURVE",
"456 780 OFFCURVE",
"484 780 CURVE SMOOTH"
);
},
{
closed = 1;
nodes = (
"401 911 LINE",
"523 1035 LINE",
"505 1056 LINE",
"404 978 LINE",
"394 971 OFFCURVE",
"385 963 OFFCURVE",
"376 963 CURVE SMOOTH",
"369 963 OFFCURVE",
"357 971 OFFCURVE",
"347 978 CURVE",
"246 1056 LINE",
"228 1035 LINE",
"350 911 LINE"
);
}
);
};
components = (
{
name = U;
},
{
name = dieresis_caron;
transform = "{1, 0, 0, 1, 328, 200}";
}
);
layerId = "0B1DFD06-3317-40CA-B510-4969A0718C16";
width = 656;
}
);
leftKerningGroup = U;
note = Udieresiscaron;
rightKerningGroup = U;
unicode = 01D9;
},
{
color = 4;
glyphname = Udieresisgrave;
lastChange = "2018-02-26 14:41:34 +0000";
layers = (
{
background = {
paths = (
{
closed = 1;
nodes = (
"539 -10 OFFCURVE",
"636 51 OFFCURVE",
"636 204 CURVE SMOOTH",
"636 637 LINE SMOOTH",
"636 662 OFFCURVE",
"660 673 OFFCURVE",
"690 673 CURVE SMOOTH",
"713 673 LINE",
"713 700 LINE",
"510 700 LINE",
"510 673 LINE",
"532 673 LINE SMOOTH",
"564 673 OFFCURVE",
"586 662 OFFCURVE",
"586 637 CURVE SMOOTH",
"586 197 LINE SMOOTH",
"586 65 OFFCURVE",
"489 31 OFFCURVE",
"397 31 CURVE SMOOTH",
"290 31 OFFCURVE",
"203 63 OFFCURVE",
"203 197 CURVE SMOOTH",
"203 637 LINE SMOOTH",
"203 662 OFFCURVE",
"226 673 OFFCURVE",
"257 673 CURVE SMOOTH",
"280 673 LINE",
"280 700 LINE",
"28 700 LINE",
"28 673 LINE",
"51 673 LINE SMOOTH",
"82 673 OFFCURVE",
"105 662 OFFCURVE",
"105 637 CURVE SMOOTH",
"105 204 LINE SMOOTH",
"105 46 OFFCURVE",
"208 -10 OFFCURVE",
"375 -10 CURVE SMOOTH"
);
},
{
closed = 1;
nodes = (
"296 780 OFFCURVE",
"315 799 OFFCURVE",
"315 827 CURVE SMOOTH",
"315 855 OFFCURVE",
"296 875 OFFCURVE",
"267 875 CURVE SMOOTH",
"240 875 OFFCURVE",
"221 855 OFFCURVE",
"221 827 CURVE SMOOTH",
"221 799 OFFCURVE",
"240 780 OFFCURVE",
"267 780 CURVE SMOOTH"
);
},
{
closed = 1;
nodes = (
"403 924 LINE",
"312 1013 LINE SMOOTH",
"305 1020 OFFCURVE",
"288 1036 OFFCURVE",
"267 1036 CURVE SMOOTH",
"245 1036 OFFCURVE",
"235 1024 OFFCURVE",
"235 1009 CURVE SMOOTH",
"235 993 OFFCURVE",
"245 981 OFFCURVE",
"266 969 CURVE SMOOTH",
"385 899 LINE"
);
},
{
closed = 1;
nodes = (
"512 780 OFFCURVE",
"531 799 OFFCURVE",
"531 827 CURVE SMOOTH",
"531 855 OFFCURVE",
"512 875 OFFCURVE",
"484 875 CURVE SMOOTH",
"456 875 OFFCURVE",
"437 855 OFFCURVE",
"437 827 CURVE SMOOTH",
"437 799 OFFCURVE",
"456 780 OFFCURVE",
"484 780 CURVE SMOOTH"
);
}
);
};
components = (
{
name = U;
},
{
name = dieresis_grave;
transform = "{1, 0, 0, 1, 328, 200}";
}
);
layerId = "0B1DFD06-3317-40CA-B510-4969A0718C16";
width = 656;
}
);
leftKerningGroup = U;
note = Udieresisgrave;
rightKerningGroup = U;
unicode = 01DB;
},
{
color = 4;
glyphname = Udieresismacron;
lastChange = "2018-02-26 14:41:34 +0000";
layers = (
{
background = {
paths = (
{
closed = 1;
nodes = (
"539 -10 OFFCURVE",
"636 51 OFFCURVE",
"636 204 CURVE SMOOTH",
"636 637 LINE SMOOTH",
"636 662 OFFCURVE",
"660 673 OFFCURVE",
"690 673 CURVE SMOOTH",
"713 673 LINE",
"713 700 LINE",
"510 700 LINE",
"510 673 LINE",
"532 673 LINE SMOOTH",
"564 673 OFFCURVE",
"586 662 OFFCURVE",
"586 637 CURVE SMOOTH",
"586 197 LINE SMOOTH",
"586 65 OFFCURVE",
"489 31 OFFCURVE",
"397 31 CURVE SMOOTH",
"290 31 OFFCURVE",
"203 63 OFFCURVE",
"203 197 CURVE SMOOTH",
"203 637 LINE SMOOTH",
"203 662 OFFCURVE",
"226 673 OFFCURVE",
"257 673 CURVE SMOOTH",
"280 673 LINE",
"280 700 LINE",
"28 700 LINE",
"28 673 LINE",
"51 673 LINE SMOOTH",
"82 673 OFFCURVE",
"105 662 OFFCURVE",
"105 637 CURVE SMOOTH",
"105 204 LINE SMOOTH",
"105 46 OFFCURVE",
"208 -10 OFFCURVE",
"375 -10 CURVE SMOOTH"
);
},
{
closed = 1;
nodes = (
"291 781 OFFCURVE",
"309 800 OFFCURVE",
"309 827 CURVE SMOOTH",
"309 855 OFFCURVE",
"291 875 OFFCURVE",
"262 875 CURVE SMOOTH",
"234 875 OFFCURVE",
"216 855 OFFCURVE",
"216 827 CURVE SMOOTH",
"216 800 OFFCURVE",
"234 781 OFFCURVE",
"262 781 CURVE SMOOTH"
);
},
{
closed = 1;
nodes = (
"507 781 OFFCURVE",
"525 800 OFFCURVE",
"525 827 CURVE SMOOTH",
"525 855 OFFCURVE",
"507 875 OFFCURVE",
"478 875 CURVE SMOOTH",
"449 875 OFFCURVE",
"431 855 OFFCURVE",
"431 827 CURVE SMOOTH",
"431 800 OFFCURVE",
"449 781 OFFCURVE",
"478 781 CURVE SMOOTH"
);
},
{
closed = 1;
nodes = (
"537 928 LINE",
"537 970 LINE",
"204 970 LINE",
"204 928 LINE"
);
}
);
};
components = (
{
name = U;
},
{
name = dieresis_macron;
transform = "{1, 0, 0, 1, 328, 200}";
}
);
layerId = "0B1DFD06-3317-40CA-B510-4969A0718C16";
width = 656;
}
);
leftKerningGroup = U;
note = Udieresismacron;
rightKerningGroup = U;
unicode = 01D5;
},
{
color = 4;
glyphname = "alpha-latin";
lastChange = "2018-02-19 18:38:01 +0000";
layers = (
{
anchors = (
{
name = bottom;
position = "{267, 0}";
},
{
name = center;
position = "{267, 250}";
},
{
name = top;
position = "{267, 500}";
}
);
layerId = "0B1DFD06-3317-40CA-B510-4969A0718C16";
paths = (
{
closed = 1;
nodes = (
"316 -10 OFFCURVE",
"385 27 OFFCURVE",
"414 88 CURVE",
"413 54 OFFCURVE",
"415 25 OFFCURVE",
"417 0 CURVE",
"467 0 LINE",
"465 25 OFFCURVE",
"464 66 OFFCURVE",
"464 122 CURVE SMOOTH",
"464 500 LINE",
"408 500 LINE",
"408 422 LINE",
"374 478 OFFCURVE",
"321 510 OFFCURVE",
"250 510 CURVE SMOOTH",
"119 510 OFFCURVE",
"40 410 OFFCURVE",
"40 259 CURVE SMOOTH",
"40 98 OFFCURVE",
"119 -10 OFFCURVE",
"249 -10 CURVE SMOOTH"
);
},
{
closed = 1;
nodes = (
"154 38 OFFCURVE",
"96 126 OFFCURVE",
"96 257 CURVE SMOOTH",
"96 382 OFFCURVE",
"154 465 OFFCURVE",
"253 465 CURVE SMOOTH",
"349 465 OFFCURVE",
"408 393 OFFCURVE",
"408 284 CURVE SMOOTH",
"408 200 LINE SMOOTH",
"408 103 OFFCURVE",
"351 38 OFFCURVE",
"253 38 CURVE SMOOTH"
);
}
);
width = 534;
}
);
leftKerningGroup = a;
note = ascript;
rightKerningGroup = a;
unicode = 0251;
},
{
color = 4;
glyphname = aringacute;
lastChange = "2018-02-26 16:14:42 +0000";
layers = (
{
components = (
{
name = a;
},
{
name = ringcomb;
transform = "{1, 0, 0, 1, 253, 0}";
}
);
layerId = "0B1DFD06-3317-40CA-B510-4969A0718C16";
paths = (
{
closed = 1;
nodes = (
"277 777 LINE",
"340 877 LINE",
"283 877 LINE",
"236 777 LINE"
);
}
);
width = 506;
}
);
leftKerningGroup = a;
note = aringacute;
rightKerningGroup = a;
unicode = 01FB;
},
{
color = 4;
glyphname = ae;
lastChange = "2018-02-19 18:24:59 +0000";
layers = (
{
anchors = (
{
name = bottom;
position = "{419, 0}";
},
{
name = ogonek;
position = "{744, 70}";
},
{
name = top;
position = "{419, 500}";
}
);
layerId = "0B1DFD06-3317-40CA-B510-4969A0718C16";
paths = (
{
closed = 1;
nodes = (
"429 387 OFFCURVE",
"487 465 OFFCURVE",
"589 465 CURVE SMOOTH",
"684 465 OFFCURVE",
"742 409 OFFCURVE",
"742 302 CURVE SMOOTH",
"742 291 LINE",
"419 291 LINE",
"417 245 LINE",
"797 245 LINE",
"797 269 LINE SMOOTH",
"797 427 OFFCURVE",
"722 510 OFFCURVE",
"594 510 CURVE SMOOTH",
"456 510 OFFCURVE",
"373 413 OFFCURVE",
"373 249 CURVE SMOOTH",
"373 90 OFFCURVE",
"447 -10 OFFCURVE",
"597 -10 CURVE SMOOTH",
"677 -10 OFFCURVE",
"738 24 OFFCURVE",
"775 81 CURVE",
"741 114 LINE",
"711 66 OFFCURVE",
"657 38 OFFCURVE",
"597 38 CURVE SMOOTH",
"492 38 OFFCURVE",
"429 115 OFFCURVE",
"429 249 CURVE SMOOTH"
);
},
{
closed = 1;
nodes = (
"318 -10 OFFCURVE",
"429 66 OFFCURVE",
"429 178 CURVE SMOOTH",
"429 335 LINE SMOOTH",
"429 441 OFFCURVE",
"366 510 OFFCURVE",
"245 510 CURVE SMOOTH",
"165 510 OFFCURVE",
"104 476 OFFCURVE",
"67 419 CURVE",
"101 382 LINE",
"131 432 OFFCURVE",
"181 462 OFFCURVE",
"241 462 CURVE SMOOTH",
"327 462 OFFCURVE",
"373 415 OFFCURVE",
"373 326 CURVE SMOOTH",
"373 290 LINE",
"243 290 LINE SMOOTH",
"128 290 OFFCURVE",
"48 232 OFFCURVE",
"48 135 CURVE SMOOTH",
"48 48 OFFCURVE",
"116 -10 OFFCURVE",
"211 -10 CURVE SMOOTH"
);
},
{
closed = 1;
nodes = (
"150 38 OFFCURVE",
"102 77 OFFCURVE",
"102 135 CURVE SMOOTH",
"102 205 OFFCURVE",
"164 246 OFFCURVE",
"250 246 CURVE SMOOTH",
"373 246 LINE",
"373 162 LINE SMOOTH",
"373 107 OFFCURVE",
"316 38 OFFCURVE",
"215 38 CURVE SMOOTH"
);
}
);
width = 837;
}
);
note = ae;
rightMetricsKey = e;
unicode = 00E6;
},
{
color = 4;
glyphname = eth;
lastChange = "2018-02-19 18:01:38 +0000";
layers = (
{
layerId = "0B1DFD06-3317-40CA-B510-4969A0718C16";
paths = (
{
closed = 1;
nodes = (
"152 40 OFFCURVE",
"96 114 OFFCURVE",
"96 215 CURVE SMOOTH",
"96 325 OFFCURVE",
"158 392 OFFCURVE",
"244 392 CURVE SMOOTH",
"339 392 OFFCURVE",
"396 318 OFFCURVE",
"396 215 CURVE SMOOTH",
"396 106 OFFCURVE",
"332 40 OFFCURVE",
"244 40 CURVE SMOOTH"
);
},
{
closed = 1;
nodes = (
"404 662 LINE",
"379 702 LINE",
"106 525 LINE",
"131 486 LINE"
);
},
{
closed = 1;
nodes = (
"353 505 OFFCURVE",
"384 367 CURVE",
"359 409 OFFCURVE",
"301 440 OFFCURVE",
"236 440 CURVE SMOOTH",
"117 440 OFFCURVE",
"40 338 OFFCURVE",
"40 211 CURVE SMOOTH",
"40 87 OFFCURVE",
"113 -10 OFFCURVE",
"239 -10 CURVE SMOOTH",
"372 -10 OFFCURVE",
"450 98 OFFCURVE",
"450 253 CURVE SMOOTH",
"450 466 OFFCURVE",
"303 664 OFFCURVE",
"84 707 CURVE",
"79 671 LINE",
"237 628 OFFCURVE"
);
}
);
width = 490;
}
);
note = eth;
unicode = 00F0;
},
{
color = 4;
glyphname = dcroat;
lastChange = "2018-02-19 18:01:38 +0000";
layers = (
{
components = (
{
name = d;
}
);
layerId = "0B1DFD06-3317-40CA-B510-4969A0718C16";
paths = (
{
closed = 1;
nodes = (
"520 613 LINE",
"520 653 LINE",
"260 653 LINE",
"260 613 LINE"
);
}
);
width = 534;
}
);
note = dslash;
unicode = 0111;
},
{
color = 4;
glyphname = hbar;
lastChange = "2018-02-26 16:15:22 +0000";
layers = (
{
components = (
{
name = h;
}
);
layerId = "0B1DFD06-3317-40CA-B510-4969A0718C16";
paths = (
{
closed = 1;
nodes = (
"274 613 LINE",
"274 653 LINE",
"14 653 LINE",
"14 613 LINE"
);
}
);
width = 552;
}
);
note = hbar;
rightKerningGroup = h;
unicode = 0127;
},
{
color = 4;
glyphname = idotless;
lastChange = "2018-02-19 18:51:18 +0000";
layers = (
{
anchors = (
{
name = bottom;
position = "{114, 0}";
},
{
name = ogonek;
position = "{114, 10}";
},
{
name = top;
position = "{114, 500}";
}
);
layerId = "0B1DFD06-3317-40CA-B510-4969A0718C16";
paths = (
{
closed = 1;
nodes = (
"142 0 LINE",
"142 500 LINE",
"86 500 LINE",
"86 0 LINE"
);
}
);
width = 228;
}
);
note = dotlessi;
unicode = 0131;
},
{
color = 4;
glyphname = jdotless;
lastChange = "2018-02-19 18:19:31 +0000";
layers = (
{
anchors = (
{
name = bottom;
position = "{96, -186}";
},
{
name = top;
position = "{121, 500}";
}
);
layerId = "0B1DFD06-3317-40CA-B510-4969A0718C16";
paths = (
{
closed = 1;
nodes = (
"108 -186 OFFCURVE",
"150 -116 OFFCURVE",
"150 8 CURVE SMOOTH",
"150 500 LINE",
"94 500 LINE",
"94 14 LINE SMOOTH",
"94 -89 OFFCURVE",
"71 -138 OFFCURVE",
"-11 -138 CURVE SMOOTH",
"-19 -138 OFFCURVE",
"-27 -138 OFFCURVE",
"-36 -137 CURVE",
"-36 -183 LINE",
"-21 -185 OFFCURVE",
"-7 -186 OFFCURVE",
"6 -186 CURVE SMOOTH"
);
}
);
width = 228;
}
);
leftKerningGroup = j;
note = dotlessj;
unicode = 0237;
},
{
color = 4;
glyphname = kgreenlandic;
lastChange = "2018-02-19 18:19:31 +0000";
layers = (
{
anchors = (
{
name = bottom;
position = "{230, 0}";
},
{
name = top;
position = "{230, 500}";
}
);
layerId = "0B1DFD06-3317-40CA-B510-4969A0718C16";
paths = (
{
closed = 1;
nodes = (
"126 0 LINE",
"126 180 LINE",
"439 500 LINE",
"373 500 LINE",
"126 248 LINE",
"126 500 LINE",
"70 500 LINE",
"70 0 LINE"
);
},
{
closed = 1;
nodes = (
"449 0 LINE",
"245 309 LINE",
"208 272 LINE",
"384 0 LINE"
);
}
);
width = 459;
}
);
note = kgreenlandic;
rightKerningGroup = k;
unicode = 0138;
},
{
color = 4;
glyphname = lslash;
lastChange = "2018-02-26 16:32:55 +0000";
layers = (
{
components = (
{
name = l;
}
);
layerId = "0B1DFD06-3317-40CA-B510-4969A0718C16";
paths = (
{
closed = 1;
nodes = (
"244 358 LINE",
"244 408 LINE",
"26 313 LINE",
"26 266 LINE"
);
}
);
width = 294;
}
);
note = lslash;
unicode = 0142;
},
{
color = 4;
glyphname = eng;
lastChange = "2018-02-26 16:33:02 +0000";
layers = (
{
components = (
{
name = n;
}
);
layerId = "0B1DFD06-3317-40CA-B510-4969A0718C16";
paths = (
{
closed = 1;
nodes = (
"430 -186 OFFCURVE",
"472 -116 OFFCURVE",
"472 8 CURVE SMOOTH",
"472 160 LINE",
"416 160 LINE",
"416 14 LINE SMOOTH",
"416 -89 OFFCURVE",
"393 -138 OFFCURVE",
"311 -138 CURVE SMOOTH",
"303 -138 OFFCURVE",
"295 -138 OFFCURVE",
"286 -137 CURVE",
"286 -183 LINE",
"301 -185 OFFCURVE",
"315 -186 OFFCURVE",
"328 -186 CURVE SMOOTH"
);
}
);
width = 542;
}
);
leftKerningGroup = m;
note = eng;
rightKerningGroup = m;
rightMetricsKey = n;
unicode = 014B;
},
{
color = 4;
glyphname = oslash;
lastChange = "2018-02-26 16:40:24 +0000";
layers = (
{
components = (
{
name = o;
}
);
layerId = "0B1DFD06-3317-40CA-B510-4969A0718C16";
paths = (
{
closed = 1;
nodes = (
"146 -43 LINE",
"454 535 LINE",
"403 535 LINE",
"99 -43 LINE"
);
}
);
width = 544;
}
);
note = oslash;
unicode = 00F8;
},
{
color = 4;
glyphname = oe;
lastChange = "2018-02-19 18:26:18 +0000";
layers = (
{
anchors = (
{
name = bottom;
position = "{436, 0}";
},
{
name = top;
position = "{436, 500}";
}
);
layerId = "0B1DFD06-3317-40CA-B510-4969A0718C16";
paths = (
{
closed = 1;
nodes = (
"464 387 OFFCURVE",
"522 465 OFFCURVE",
"624 465 CURVE SMOOTH",
"719 465 OFFCURVE",
"777 396 OFFCURVE",
"777 284 CURVE SMOOTH",
"777 273 LINE",
"454 273 LINE",
"452 227 LINE",
"832 227 LINE",
"832 251 LINE SMOOTH",
"832 414 OFFCURVE",
"757 510 OFFCURVE",
"629 510 CURVE SMOOTH",
"491 510 OFFCURVE",
"408 413 OFFCURVE",
"408 249 CURVE SMOOTH",
"408 90 OFFCURVE",
"482 -10 OFFCURVE",
"632 -10 CURVE SMOOTH",
"712 -10 OFFCURVE",
"773 24 OFFCURVE",
"810 81 CURVE",
"776 114 LINE",
"746 66 OFFCURVE",
"692 38 OFFCURVE",
"632 38 CURVE SMOOTH",
"527 38 OFFCURVE",
"464 115 OFFCURVE",
"464 249 CURVE SMOOTH"
);
},
{
closed = 1;
nodes = (
"400 -10 OFFCURVE",
"464 104 OFFCURVE",
"464 250 CURVE SMOOTH",
"464 396 OFFCURVE",
"400 510 OFFCURVE",
"255 510 CURVE SMOOTH",
"110 510 OFFCURVE",
"40 406 OFFCURVE",
"40 250 CURVE SMOOTH",
"40 94 OFFCURVE",
"110 -10 OFFCURVE",
"255 -10 CURVE SMOOTH"
);
},
{
closed = 1;
nodes = (
"143 35 OFFCURVE",
"96 121 OFFCURVE",
"96 250 CURVE SMOOTH",
"96 379 OFFCURVE",
"143 465 OFFCURVE",
"255 465 CURVE SMOOTH",
"367 465 OFFCURVE",
"408 379 OFFCURVE",
"408 250 CURVE SMOOTH",
"408 121 OFFCURVE",
"367 35 OFFCURVE",
"255 35 CURVE SMOOTH"
);
}
);
width = 872;
}
);
note = oe;
unicode = 0153;
},
{
color = 4;
glyphname = thorn;
lastChange = "2018-02-19 18:26:18 +0000";
layers = (
{
anchors = (
{
name = bottom;
position = "{267, 0}";
},
{
name = top;
position = "{267, 500}";
}
);
layerId = "0B1DFD06-3317-40CA-B510-4969A0718C16";
paths = (
{
closed = 1;
nodes = (
"126 -242 LINE",
"126 78 LINE",
"153 22 OFFCURVE",
"213 -10 OFFCURVE",
"284 -10 CURVE SMOOTH",
"415 -10 OFFCURVE",
"494 100 OFFCURVE",
"494 251 CURVE SMOOTH",
"494 412 OFFCURVE",
"416 510 OFFCURVE",
"286 510 CURVE SMOOTH",
"219 510 OFFCURVE",
"155 481 OFFCURVE",
"126 424 CURVE",
"126 700 LINE",
"70 700 LINE",
"70 -242 LINE"
);
},
{
closed = 1;
nodes = (
"185 35 OFFCURVE",
"126 107 OFFCURVE",
"126 216 CURVE SMOOTH",
"126 300 LINE SMOOTH",
"126 397 OFFCURVE",
"193 462 OFFCURVE",
"281 462 CURVE SMOOTH",
"380 462 OFFCURVE",
"438 384 OFFCURVE",
"438 253 CURVE SMOOTH",
"438 128 OFFCURVE",
"380 35 OFFCURVE",
"281 35 CURVE SMOOTH"
);
}
);
width = 534;
}
);
note = thorn;
unicode = 00FE;
},
{
color = 4;
glyphname = germandbls;
lastChange = "2018-02-26 16:41:26 +0000";
layers = (
{
anchors = (
{
name = bottom;
position = "{280, 0}";
},
{
name = top;
position = "{265, 710}";
}
);
layerId = "0B1DFD06-3317-40CA-B510-4969A0718C16";
paths = (
{
closed = 1;
nodes = (
"450 -10 OFFCURVE",
"520 46 OFFCURVE",
"520 139 CURVE SMOOTH",
"520 232 OFFCURVE",
"450 261 OFFCURVE",
"385 289 CURVE SMOOTH",
"359 300 OFFCURVE",
"312 313 OFFCURVE",
"312 357 CURVE SMOOTH",
"312 424 OFFCURVE",
"443 441 OFFCURVE",
"443 557 CURVE SMOOTH",
"443 666 OFFCURVE",
"371 710 OFFCURVE",
"265 710 CURVE SMOOTH",
"123 710 OFFCURVE",
"70 620 OFFCURVE",
"70 487 CURVE SMOOTH",
"70 0 LINE",
"126 0 LINE",
"126 482 LINE SMOOTH",
"126 619 OFFCURVE",
"180 662 OFFCURVE",
"269 662 CURVE SMOOTH",
"357 662 OFFCURVE",
"390 618 OFFCURVE",
"390 557 CURVE SMOOTH",
"390 456 OFFCURVE",
"256 460 OFFCURVE",
"256 357 CURVE SMOOTH",
"256 304 OFFCURVE",
"285 272 OFFCURVE",
"354 245 CURVE SMOOTH",
"408 224 OFFCURVE",
"464 202 OFFCURVE",
"464 137 CURVE SMOOTH",
"464 74 OFFCURVE",
"415 35 OFFCURVE",
"351 35 CURVE SMOOTH",
"307 35 OFFCURVE",
"262 53 OFFCURVE",
"236 93 CURVE",
"198 67 LINE",
"227 13 OFFCURVE",
"294 -10 OFFCURVE",
"355 -10 CURVE SMOOTH"
);
}
);
width = 560;
}
);
note = germandbls;
unicode = 00DF;
},
{
color = 4;
glyphname = tbar;
lastChange = "2018-02-26 16:41:44 +0000";
layers = (
{
components = (
{
name = t;
}
);
layerId = "0B1DFD06-3317-40CA-B510-4969A0718C16";
paths = (
{
closed = 1;
nodes = (
"321 260 LINE",
"321 297 LINE",
"33 297 LINE",
"33 260 LINE"
);
}
);
width = 350;
}
);
leftKerningGroup = t;
note = tbar;
rightKerningGroup = t;
unicode = 0167;
},
{
color = 4;
glyphname = ordfeminine;
lastChange = "2018-02-26 15:28:42 +0000";
layers = (
{
layerId = "0B1DFD06-3317-40CA-B510-4969A0718C16";
paths = (
{
closed = 1;
nodes = (
"204 361 OFFCURVE",
"242 381 OFFCURVE",
"267 420 CURVE",
"269 400 OFFCURVE",
"271 380 OFFCURVE",
"274 368 CURVE",
"311 368 LINE",
"307 388 OFFCURVE",
"304 406 OFFCURVE",
"304 430 CURVE SMOOTH",
"304 591 LINE SMOOTH",
"304 661 OFFCURVE",
"262 707 OFFCURVE",
"182 707 CURVE SMOOTH",
"128 707 OFFCURVE",
"88 685 OFFCURVE",
"63 647 CURVE",
"89 619 LINE",
"109 652 OFFCURVE",
"139 670 OFFCURVE",
"179 670 CURVE SMOOTH",
"236 670 OFFCURVE",
"262 644 OFFCURVE",
"262 585 CURVE SMOOTH",
"262 568 LINE",
"183 568 LINE SMOOTH",
"95 568 OFFCURVE",
"47 527 OFFCURVE",
"47 462 CURVE SMOOTH",
"47 400 OFFCURVE",
"95 361 OFFCURVE",
"158 361 CURVE SMOOTH"
);
},
{
closed = 1;
nodes = (
"122 398 OFFCURVE",
"88 419 OFFCURVE",
"88 462 CURVE SMOOTH",
"88 508 OFFCURVE",
"122 533 OFFCURVE",
"185 533 CURVE SMOOTH",
"262 533 LINE",
"262 481 LINE SMOOTH",
"262 445 OFFCURVE",
"231 398 OFFCURVE",
"164 398 CURVE SMOOTH"
);
}
);
width = 362;
}
);
note = ordfeminine;
unicode = 00AA;
},
{
color = 4;
glyphname = ordmasculine;
lastChange = "2018-02-26 15:28:42 +0000";
layers = (
{
layerId = "0B1DFD06-3317-40CA-B510-4969A0718C16";
paths = (
{
closed = 1;
nodes = (
"292 361 OFFCURVE",
"350 430 OFFCURVE",
"350 534 CURVE SMOOTH",
"350 638 OFFCURVE",
"292 707 OFFCURVE",
"195 707 CURVE SMOOTH",
"98 707 OFFCURVE",
"40 638 OFFCURVE",
"40 534 CURVE SMOOTH",
"40 430 OFFCURVE",
"98 361 OFFCURVE",
"195 361 CURVE SMOOTH"
);
},
{
closed = 1;
nodes = (
"120 395 OFFCURVE",
"83 448 OFFCURVE",
"83 534 CURVE SMOOTH",
"83 620 OFFCURVE",
"120 673 OFFCURVE",
"195 673 CURVE SMOOTH",
"270 673 OFFCURVE",
"307 620 OFFCURVE",
"307 534 CURVE SMOOTH",
"307 448 OFFCURVE",
"270 395 OFFCURVE",
"195 395 CURVE SMOOTH"
);
}
);
width = 390;
}
);
note = ordmasculine;
unicode = 00BA;
},
{
color = 4;
glyphname = nmod;
lastChange = "2018-02-26 15:28:42 +0000";
layers = (
{
layerId = "0B1DFD06-3317-40CA-B510-4969A0718C16";
paths = (
{
closed = 1;
nodes = (
"95 368 LINE",
"95 550 LINE SMOOTH",
"95 624 OFFCURVE",
"139 673 OFFCURVE",
"201 673 CURVE SMOOTH",
"261 673 OFFCURVE",
"283 630 OFFCURVE",
"283 557 CURVE SMOOTH",
"283 368 LINE",
"327 368 LINE",
"327 556 LINE SMOOTH",
"327 647 OFFCURVE",
"289 707 OFFCURVE",
"203 707 CURVE SMOOTH",
"157 707 OFFCURVE",
"116 685 OFFCURVE",
"94 640 CURVE",
"91 640 LINE",
"92 663 OFFCURVE",
"90 684 OFFCURVE",
"89 700 CURVE",
"49 700 LINE",
"50 684 OFFCURVE",
"51 656 OFFCURVE",
"51 619 CURVE SMOOTH",
"51 368 LINE"
);
}
);
width = 390;
}
);
note = uni207F;
unicode = 207F;
},
{
color = 4;
glyphname = Delta;
lastChange = "2018-02-26 16:43:02 +0000";
layers = (
{
layerId = "0B1DFD06-3317-40CA-B510-4969A0718C16";
paths = (
{
closed = 1;
nodes = (
"694 0 LINE",
"694 10 LINE",
"353 700 LINE",
"343 700 LINE",
"2 10 LINE",
"2 0 LINE"
);
},
{
closed = 1;
nodes = (
"348 589 LINE",
"608 50 LINE",
"87 50 LINE"
);
}
);
width = 696;
}
);
note = Delta;
unicode = 0394;
},
{
color = 4;
glyphname = Omega;
lastChange = "2018-02-26 16:43:02 +0000";
layers = (
{
layerId = "0B1DFD06-3317-40CA-B510-4969A0718C16";
paths = (
{
closed = 1;
nodes = (
"312 0 LINE",
"312 73 LINE",
"200 123 OFFCURVE",
"127 250 OFFCURVE",
"127 392 CURVE SMOOTH",
"127 559 OFFCURVE",
"228 662 OFFCURVE",
"386 662 CURVE SMOOTH",
"544 662 OFFCURVE",
"644 559 OFFCURVE",
"644 392 CURVE SMOOTH",
"644 251 OFFCURVE",
"573 125 OFFCURVE",
"460 73 CURVE",
"460 0 LINE",
"721 0 LINE",
"721 50 LINE",
"524 50 LINE",
"635 125 OFFCURVE",
"702 256 OFFCURVE",
"702 396 CURVE SMOOTH",
"702 586 OFFCURVE",
"579 710 OFFCURVE",
"386 710 CURVE SMOOTH",
"192 710 OFFCURVE",
"69 585 OFFCURVE",
"69 396 CURVE SMOOTH",
"69 256 OFFCURVE",
"137 125 OFFCURVE",
"248 50 CURVE",
"50 50 LINE",
"50 0 LINE"
);
}
);
width = 771;
}
);
note = Omega;
unicode = 03A9;
},
{
color = 4;
glyphname = mu;
lastChange = "2018-02-26 16:43:02 +0000";
layers = (
{
anchors = (
{
name = topright;
position = "{472, 305}";
}
);
layerId = "0B1DFD06-3317-40CA-B510-4969A0718C16";
paths = (
{
closed = 1;
nodes = (
"126 -223 LINE",
"126 52 LINE",
"153 9 OFFCURVE",
"205 -10 OFFCURVE",
"260 -10 CURVE SMOOTH",
"329 -10 OFFCURVE",
"384 23 OFFCURVE",
"418 90 CURVE",
"422 90 LINE",
"424 51 OFFCURVE",
"427 27 OFFCURVE",
"433 0 CURVE",
"482 0 LINE",
"476 29 OFFCURVE",
"472 60 OFFCURVE",
"472 92 CURVE SMOOTH",
"472 500 LINE",
"416 500 LINE",
"416 226 LINE SMOOTH",
"416 114 OFFCURVE",
"353 35 OFFCURVE",
"259 35 CURVE SMOOTH",
"169 35 OFFCURVE",
"126 106 OFFCURVE",
"126 205 CURVE SMOOTH",
"126 500 LINE",
"70 500 LINE",
"70 -223 LINE"
);
}
);
width = 548;
}
);
note = mu;
unicode = 03BC;
},
{
color = 4;
glyphname = pi;
lastChange = "2018-02-26 16:47:36 +0000";
layers = (
{
layerId = "0B1DFD06-3317-40CA-B510-4969A0718C16";
paths = (
{
closed = 1;
nodes = (
"574 -10 OFFCURVE",
"590 -1 OFFCURVE",
"608 10 CURVE",
"608 49 LINE",
"590 42 OFFCURVE",
"573 38 OFFCURVE",
"559 38 CURVE SMOOTH",
"537 38 OFFCURVE",
"523 49 OFFCURVE",
"523 82 CURVE SMOOTH",
"523 454 LINE",
"623 454 LINE",
"623 500 LINE",
"30 500 LINE",
"30 454 LINE",
"130 454 LINE",
"130 0 LINE",
"186 0 LINE",
"186 454 LINE",
"467 454 LINE",
"467 89 LINE SMOOTH",
"467 25 OFFCURVE",
"479 -10 OFFCURVE",
"542 -10 CURVE SMOOTH"
);
}
);
width = 663;
}
);
note = pi;
unicode = 03C0;
},
{
color = 4;
glyphname = "koKai-thai";
lastChange = "2018-02-26 17:39:38 +0000";
layers = (
{
background = {
paths = (
{
closed = 1;
nodes = (
"500 390 LINE SMOOTH",
"500 513 OFFCURVE",
"418 588 OFFCURVE",
"290 588 CURVE SMOOTH",
"233 588 OFFCURVE",
"184 570 OFFCURVE",
"141 535 CURVE SMOOTH",
"100 500 OFFCURVE",
"75 454 OFFCURVE",
"68 400 CURVE",
"111 404 OFFCURVE",
"147 400 OFFCURVE",
"180 384 CURVE",
"128 363 OFFCURVE",
"103 323 OFFCURVE",
"103 266 CURVE SMOOTH",
"103 0 LINE",
"156 0 LINE",
"156 268 LINE SMOOTH",
"156 319 OFFCURVE",
"197 366 OFFCURVE",
"244 376 CURVE",
"222 415 OFFCURVE",
"183 437 OFFCURVE",
"125 441 CURVE",
"149 500 OFFCURVE",
"221 541 OFFCURVE",
"287 541 CURVE SMOOTH",
"381 541 OFFCURVE",
"447 479 OFFCURVE",
"447 384 CURVE SMOOTH",
"447 0 LINE",
"500 0 LINE"
);
}
);
};
layerId = "0B1DFD06-3317-40CA-B510-4969A0718C16";
paths = (
{
closed = 1;
nodes = (
"141 0 LINE",
"141 266 LINE SMOOTH",
"141 317 OFFCURVE",
"175 359 OFFCURVE",
"228 373 CURVE",
"228 379 LINE",
"207 408 OFFCURVE",
"161 430 OFFCURVE",
"110 434 CURVE",
"133 499 OFFCURVE",
"195 538 OFFCURVE",
"270 538 CURVE SMOOTH",
"365 538 OFFCURVE",
"425 479 OFFCURVE",
"425 382 CURVE SMOOTH",
"425 0 LINE",
"481 0 LINE",
"481 387 LINE SMOOTH",
"481 509 OFFCURVE",
"401 586 OFFCURVE",
"276 586 CURVE SMOOTH",
"150 586 OFFCURVE",
"62 512 OFFCURVE",
"50 396 CURVE",
"93 396 OFFCURVE",
"135 389 OFFCURVE",
"159 379 CURVE",
"114 360 OFFCURVE",
"85 316 OFFCURVE",
"85 265 CURVE SMOOTH",
"85 0 LINE"
);
}
);
width = 561;
}
);
note = uni0E01;
unicode = 0E01;
},
{
color = 4;
glyphname = "thoThung-thai";
lastChange = "2018-02-26 17:40:03 +0000";
layers = (
{
background = {
paths = (
{
closed = 1;
nodes = (
"488 390 LINE SMOOTH",
"488 513 OFFCURVE",
"403 588 OFFCURVE",
"278 588 CURVE SMOOTH",
"222 588 OFFCURVE",
"172 570 OFFCURVE",
"130 534 CURVE SMOOTH",
"87 498 OFFCURVE",
"61 454 OFFCURVE",
"53 400 CURVE",
"103 400 OFFCURVE",
"141 394 OFFCURVE",
"168 384 CURVE",
"118 359 OFFCURVE",
"93 320 OFFCURVE",
"93 268 CURVE SMOOTH",
"93 85 LINE SMOOTH",
"93 31 OFFCURVE",
"136 -12 OFFCURVE",
"190 -12 CURVE SMOOTH",
"247 -12 OFFCURVE",
"288 26 OFFCURVE",
"288 85 CURVE SMOOTH",
"288 140 OFFCURVE",
"244 184 OFFCURVE",
"190 184 CURVE SMOOTH",
"177 184 OFFCURVE",
"162 181 OFFCURVE",
"146 173 CURVE",
"146 269 LINE SMOOTH",
"146 318 OFFCURVE",
"187 366 OFFCURVE",
"233 376 CURVE",
"215 413 OFFCURVE",
"177 435 OFFCURVE",
"116 440 CURVE",
"140 498 OFFCURVE",
"209 541 OFFCURVE",
"275 541 CURVE SMOOTH",
"371 541 OFFCURVE",
"435 484 OFFCURVE",
"435 384 CURVE SMOOTH",
"435 0 LINE",
"488 0 LINE"
);
},
{
closed = 1;
nodes = (
"241 56 OFFCURVE",
"219 35 OFFCURVE",
"191 35 CURVE SMOOTH",
"163 35 OFFCURVE",
"143 56 OFFCURVE",
"143 84 CURVE SMOOTH",
"143 112 OFFCURVE",
"163 134 OFFCURVE",
"191 134 CURVE SMOOTH",
"219 134 OFFCURVE",
"241 112 OFFCURVE",
"241 84 CURVE SMOOTH"
);
}
);
};
layerId = "0B1DFD06-3317-40CA-B510-4969A0718C16";
paths = (
{
closed = 1;
nodes = (
"239 -10 OFFCURVE",
"281 30 OFFCURVE",
"281 88 CURVE SMOOTH",
"281 143 OFFCURVE",
"243 186 OFFCURVE",
"185 186 CURVE SMOOTH",
"167 186 OFFCURVE",
"151 182 OFFCURVE",
"141 177 CURVE",
"141 266 LINE SMOOTH",
"141 317 OFFCURVE",
"175 359 OFFCURVE",
"228 373 CURVE",
"228 379 LINE",
"207 408 OFFCURVE",
"161 430 OFFCURVE",
"110 434 CURVE",
"133 499 OFFCURVE",
"198 538 OFFCURVE",
"277 538 CURVE SMOOTH",
"372 538 OFFCURVE",
"433 479 OFFCURVE",
"433 382 CURVE SMOOTH",
"433 4 LINE",
"489 4 LINE",
"489 387 LINE SMOOTH",
"489 509 OFFCURVE",
"408 586 OFFCURVE",
"280 586 CURVE SMOOTH",
"152 586 OFFCURVE",
"62 512 OFFCURVE",
"50 396 CURVE",
"93 396 OFFCURVE",
"135 389 OFFCURVE",
"159 379 CURVE",
"114 360 OFFCURVE",
"85 316 OFFCURVE",
"85 265 CURVE SMOOTH",
"85 89 LINE SMOOTH",
"85 32 OFFCURVE",
"124 -10 OFFCURVE",
"182 -10 CURVE SMOOTH"
);
},
{
closed = 1;
nodes = (
"155 40 OFFCURVE",
"135 60 OFFCURVE",
"135 88 CURVE SMOOTH",
"135 116 OFFCURVE",
"155 136 OFFCURVE",
"183 136 CURVE SMOOTH",
"211 136 OFFCURVE",
"231 116 OFFCURVE",
"231 88 CURVE SMOOTH",
"231 60 OFFCURVE",
"211 40 OFFCURVE",
"183 40 CURVE SMOOTH"
);
}
);
width = 569;
}
);
note = uni0E16;
unicode = 0E16;
},
{
color = 4;
glyphname = "phoSamphao-thai";
lastChange = "2018-02-26 18:21:35 +0000";
layers = (
{
background = {
paths = (
{
closed = 1;
nodes = (
"525 0 LINE",
"525 387 LINE SMOOTH",
"525 509 OFFCURVE",
"445 586 OFFCURVE",
"320 586 CURVE SMOOTH",
"194 586 OFFCURVE",
"108 512 OFFCURVE",
"96 396 CURVE",
"142 396 OFFCURVE",
"185 390 OFFCURVE",
"208 380 CURVE",
"170 363 OFFCURVE",
"146 318 OFFCURVE",
"146 265 CURVE SMOOTH",
"146 152 LINE",
"202 152 LINE",
"202 266 LINE SMOOTH",
"202 320 OFFCURVE",
"230 361 OFFCURVE",
"274 373 CURVE",
"274 379 LINE",
"253 408 OFFCURVE",
"207 430 OFFCURVE",
"156 434 CURVE",
"179 499 OFFCURVE",
"239 541 OFFCURVE",
"314 541 CURVE SMOOTH",
"409 541 OFFCURVE",
"469 479 OFFCURVE",
"469 382 CURVE SMOOTH",
"469 0 LINE"
);
},
{
closed = 1;
nodes = (
"191 -8 OFFCURVE",
"232 33 OFFCURVE",
"232 90 CURVE SMOOTH",
"232 147 OFFCURVE",
"190 188 OFFCURVE",
"133 188 CURVE SMOOTH",
"77 188 OFFCURVE",
"36 147 OFFCURVE",
"36 90 CURVE SMOOTH",
"36 33 OFFCURVE",
"78 -8 OFFCURVE",
"135 -8 CURVE SMOOTH"
);
},
{
closed = 1;
nodes = (
"106 42 OFFCURVE",
"86 62 OFFCURVE",
"86 90 CURVE SMOOTH",
"86 118 OFFCURVE",
"106 138 OFFCURVE",
"134 138 CURVE SMOOTH",
"162 138 OFFCURVE",
"182 118 OFFCURVE",
"182 90 CURVE SMOOTH",
"182 62 OFFCURVE",
"162 42 OFFCURVE",
"134 42 CURVE SMOOTH"
);
}
);
};
layerId = "0B1DFD06-3317-40CA-B510-4969A0718C16";
paths = (
{
closed = 1;
nodes = (
"525 0 LINE",
"525 387 LINE SMOOTH",
"525 509 OFFCURVE",
"446 586 OFFCURVE",
"319 586 CURVE SMOOTH",
"190 586 OFFCURVE",
"107 507 OFFCURVE",
"96 396 CURVE",
"142 396 OFFCURVE",
"185 390 OFFCURVE",
"208 380 CURVE",
"170 363 OFFCURVE",
"146 317 OFFCURVE",
"146 268 CURVE SMOOTH",
"146 241 OFFCURVE",
"153 210 OFFCURVE",
"162 175 CURVE",
"170 177 LINE",
"160 182 OFFCURVE",
"144 186 OFFCURVE",
"126 186 CURVE SMOOTH",
"68 186 OFFCURVE",
"30 143 OFFCURVE",
"30 88 CURVE SMOOTH",
"30 30 OFFCURVE",
"72 -10 OFFCURVE",
"129 -10 CURVE SMOOTH",
"187 -10 OFFCURVE",
"226 32 OFFCURVE",
"226 90 CURVE SMOOTH",
"226 135 OFFCURVE",
"202 222 OFFCURVE",
"202 269 CURVE SMOOTH",
"202 316 OFFCURVE",
"226 361 OFFCURVE",
"274 373 CURVE",
"274 379 LINE",
"253 408 OFFCURVE",
"207 430 OFFCURVE",
"156 434 CURVE",
"178 496 OFFCURVE",
"235 538 OFFCURVE",
"315 538 CURVE SMOOTH",
"408 538 OFFCURVE",
"469 479 OFFCURVE",
"469 382 CURVE SMOOTH",
"469 0 LINE"
);
},
{
closed = 1;
nodes = (
"100 40 OFFCURVE",
"80 60 OFFCURVE",
"80 88 CURVE SMOOTH",
"80 116 OFFCURVE",
"100 136 OFFCURVE",
"128 136 CURVE SMOOTH",
"156 136 OFFCURVE",
"176 116 OFFCURVE",
"176 88 CURVE SMOOTH",
"176 60 OFFCURVE",
"156 40 OFFCURVE",
"128 40 CURVE SMOOTH"
);
}
);
width = 605;
}
);
note = uni0E20;
unicode = 0E20;
},
{
color = 4;
glyphname = "ru-thai";
lastChange = "2018-02-26 17:40:09 +0000";
layers = (
{
background = {
paths = (
{
closed = 1;
nodes = (
"488 390 LINE SMOOTH",
"488 513 OFFCURVE",
"403 588 OFFCURVE",
"278 588 CURVE SMOOTH",
"222 588 OFFCURVE",
"172 570 OFFCURVE",
"130 534 CURVE SMOOTH",
"87 498 OFFCURVE",
"61 454 OFFCURVE",
"53 400 CURVE",
"103 400 OFFCURVE",
"141 394 OFFCURVE",
"168 384 CURVE",
"118 359 OFFCURVE",
"93 320 OFFCURVE",
"93 268 CURVE SMOOTH",
"93 85 LINE SMOOTH",
"93 31 OFFCURVE",
"136 -12 OFFCURVE",
"190 -12 CURVE SMOOTH",
"244 -12 OFFCURVE",
"288 31 OFFCURVE",
"288 85 CURVE SMOOTH",
"288 140 OFFCURVE",
"244 184 OFFCURVE",
"190 184 CURVE SMOOTH",
"177 184 OFFCURVE",
"162 181 OFFCURVE",
"146 173 CURVE",
"146 269 LINE SMOOTH",
"146 318 OFFCURVE",
"187 366 OFFCURVE",
"233 376 CURVE",
"215 413 OFFCURVE",
"177 435 OFFCURVE",
"116 440 CURVE",
"140 498 OFFCURVE",
"209 541 OFFCURVE",
"275 541 CURVE SMOOTH",
"371 541 OFFCURVE",
"435 484 OFFCURVE",
"435 384 CURVE SMOOTH",
"435 -294 LINE",
"488 -294 LINE"
);
},
{
closed = 1;
nodes = (
"241 56 OFFCURVE",
"219 35 OFFCURVE",
"191 35 CURVE SMOOTH",
"163 35 OFFCURVE",
"143 56 OFFCURVE",
"143 84 CURVE SMOOTH",
"143 112 OFFCURVE",
"163 134 OFFCURVE",
"191 134 CURVE SMOOTH",
"219 134 OFFCURVE",
"241 112 OFFCURVE",
"241 84 CURVE SMOOTH"
);
}
);
};
layerId = "0B1DFD06-3317-40CA-B510-4969A0718C16";
paths = (
{
closed = 1;
nodes = (
"239 -10 OFFCURVE",
"281 30 OFFCURVE",
"281 88 CURVE SMOOTH",
"281 143 OFFCURVE",
"243 186 OFFCURVE",
"185 186 CURVE SMOOTH",
"167 186 OFFCURVE",
"151 182 OFFCURVE",
"141 177 CURVE",
"141 266 LINE SMOOTH",
"141 317 OFFCURVE",
"175 359 OFFCURVE",
"228 373 CURVE",
"228 379 LINE",
"207 408 OFFCURVE",
"161 430 OFFCURVE",
"110 434 CURVE",
"133 499 OFFCURVE",
"198 538 OFFCURVE",
"277 538 CURVE SMOOTH",
"372 538 OFFCURVE",
"433 479 OFFCURVE",
"433 382 CURVE SMOOTH",
"433 -250 LINE",
"489 -250 LINE",
"489 387 LINE SMOOTH",
"489 509 OFFCURVE",
"408 586 OFFCURVE",
"280 586 CURVE SMOOTH",
"152 586 OFFCURVE",
"62 512 OFFCURVE",
"50 396 CURVE",
"93 396 OFFCURVE",
"135 389 OFFCURVE",
"159 379 CURVE",
"114 360 OFFCURVE",
"85 316 OFFCURVE",
"85 265 CURVE SMOOTH",
"85 89 LINE SMOOTH",
"85 32 OFFCURVE",
"124 -10 OFFCURVE",
"182 -10 CURVE SMOOTH"
);
},
{
closed = 1;
nodes = (
"155 40 OFFCURVE",
"135 60 OFFCURVE",
"135 88 CURVE SMOOTH",
"135 116 OFFCURVE",
"155 136 OFFCURVE",
"183 136 CURVE SMOOTH",
"211 136 OFFCURVE",
"231 116 OFFCURVE",
"231 88 CURVE SMOOTH",
"231 60 OFFCURVE",
"211 40 OFFCURVE",
"183 40 CURVE SMOOTH"
);
}
);
width = 569;
}
);
note = uni0E24;
unicode = 0E24;
},
{
color = 4;
glyphname = "lu-thai";
lastChange = "2018-02-26 18:21:35 +0000";
layers = (
{
background = {
paths = (
{
closed = 1;
nodes = (
"523 388 LINE SMOOTH",
"523 512 OFFCURVE",
"437 588 OFFCURVE",
"312 588 CURVE SMOOTH",
"254 588 OFFCURVE",
"204 570 OFFCURVE",
"162 534 CURVE SMOOTH",
"119 498 OFFCURVE",
"96 453 OFFCURVE",
"91 398 CURVE",
"97 400 OFFCURVE",
"106 400 OFFCURVE",
"119 400 CURVE SMOOTH",
"144 400 OFFCURVE",
"171 394 OFFCURVE",
"197 382 CURVE",
"157 357 OFFCURVE",
"138 322 OFFCURVE",
"138 276 CURVE SMOOTH",
"138 253 OFFCURVE",
"141 219 OFFCURVE",
"147 173 CURVE",
"134 178 OFFCURVE",
"122 181 OFFCURVE",
"112 181 CURVE SMOOTH",
"59 181 OFFCURVE",
"16 137 OFFCURVE",
"16 84 CURVE SMOOTH",
"16 31 OFFCURVE",
"59 -12 OFFCURVE",
"112 -12 CURVE SMOOTH",
"165 -12 OFFCURVE",
"209 31 OFFCURVE",
"209 88 CURVE SMOOTH",
"209 112 OFFCURVE",
"207 132 OFFCURVE",
"203 150 CURVE SMOOTH",
"194 190 OFFCURVE",
"190 229 OFFCURVE",
"190 268 CURVE SMOOTH",
"190 322 OFFCURVE",
"216 357 OFFCURVE",
"269 375 CURVE",
"241 413 OFFCURVE",
"202 435 OFFCURVE",
"150 440 CURVE",
"174 498 OFFCURVE",
"244 541 OFFCURVE",
"310 541 CURVE SMOOTH",
"404 541 OFFCURVE",
"471 478 OFFCURVE",
"471 382 CURVE SMOOTH",
"471 -294 LINE",
"523 -294 LINE"
);
},
{
closed = 1;
nodes = (
"162 56 OFFCURVE",
"140 35 OFFCURVE",
"112 35 CURVE SMOOTH",
"84 35 OFFCURVE",
"63 56 OFFCURVE",
"63 84 CURVE SMOOTH",
"63 112 OFFCURVE",
"84 134 OFFCURVE",
"112 134 CURVE SMOOTH",
"140 134 OFFCURVE",
"162 112 OFFCURVE",
"162 84 CURVE SMOOTH"
);
}
);
};
layerId = "0B1DFD06-3317-40CA-B510-4969A0718C16";
paths = (
{
closed = 1;
nodes = (
"525 -250 LINE",
"525 387 LINE SMOOTH",
"525 509 OFFCURVE",
"446 586 OFFCURVE",
"319 586 CURVE SMOOTH",
"190 586 OFFCURVE",
"107 507 OFFCURVE",
"96 396 CURVE",
"142 396 OFFCURVE",
"185 390 OFFCURVE",
"208 380 CURVE",
"170 363 OFFCURVE",
"146 317 OFFCURVE",
"146 268 CURVE SMOOTH",
"146 241 OFFCURVE",
"153 210 OFFCURVE",
"162 175 CURVE",
"170 177 LINE",
"160 182 OFFCURVE",
"144 186 OFFCURVE",
"126 186 CURVE SMOOTH",
"68 186 OFFCURVE",
"30 143 OFFCURVE",
"30 88 CURVE SMOOTH",
"30 30 OFFCURVE",
"72 -10 OFFCURVE",
"129 -10 CURVE SMOOTH",
"187 -10 OFFCURVE",
"226 32 OFFCURVE",
"226 90 CURVE SMOOTH",
"226 135 OFFCURVE",
"202 222 OFFCURVE",
"202 269 CURVE SMOOTH",
"202 316 OFFCURVE",
"226 361 OFFCURVE",
"274 373 CURVE",
"274 379 LINE",
"253 408 OFFCURVE",
"207 430 OFFCURVE",
"156 434 CURVE",
"178 496 OFFCURVE",
"235 538 OFFCURVE",
"315 538 CURVE SMOOTH",
"408 538 OFFCURVE",
"469 479 OFFCURVE",
"469 382 CURVE SMOOTH",
"469 -250 LINE"
);
},
{
closed = 1;
nodes = (
"100 40 OFFCURVE",
"80 60 OFFCURVE",
"80 88 CURVE SMOOTH",
"80 116 OFFCURVE",
"100 136 OFFCURVE",
"128 136 CURVE SMOOTH",
"156 136 OFFCURVE",
"176 116 OFFCURVE",
"176 88 CURVE SMOOTH",
"176 60 OFFCURVE",
"156 40 OFFCURVE",
"128 40 CURVE SMOOTH"
);
}
);
width = 605;
}
);
note = uni0E26;
unicode = 0E26;
},
{
color = 4;
glyphname = "doChada-thai";
lastChange = "2018-02-26 18:21:35 +0000";
layers = (
{
layerId = "0B1DFD06-3317-40CA-B510-4969A0718C16";
paths = (
{
closed = 1;
nodes = (
"277 -316 OFFCURVE",
"306 -262 OFFCURVE",
"319 -193 CURVE SMOOTH",
"327 -150 OFFCURVE",
"335 -113 OFFCURVE",
"369 -88 CURVE",
"329 -64 LINE",
"292 -90 OFFCURVE",
"282 -123 OFFCURVE",
"275 -162 CURVE SMOOTH",
"265 -220 OFFCURVE",
"254 -273 OFFCURVE",
"205 -273 CURVE SMOOTH",
"171 -273 OFFCURVE",
"157 -255 OFFCURVE",
"157 -226 CURVE SMOOTH",
"157 -189 OFFCURVE",
"192 -176 OFFCURVE",
"225 -176 CURVE SMOOTH",
"294 -176 OFFCURVE",
"442 -247 OFFCURVE",
"482 -316 CURVE",
"537 -316 LINE",
"537 387 LINE SMOOTH",
"537 509 OFFCURVE",
"452 586 OFFCURVE",
"325 586 CURVE SMOOTH",
"196 586 OFFCURVE",
"107 507 OFFCURVE",
"96 396 CURVE",
"142 396 OFFCURVE",
"185 390 OFFCURVE",
"208 380 CURVE",
"170 363 OFFCURVE",
"146 317 OFFCURVE",
"146 268 CURVE SMOOTH",
"146 241 OFFCURVE",
"153 210 OFFCURVE",
"162 175 CURVE",
"170 177 LINE",
"160 182 OFFCURVE",
"144 186 OFFCURVE",
"126 186 CURVE SMOOTH",
"68 186 OFFCURVE",
"30 143 OFFCURVE",
"30 88 CURVE SMOOTH",
"30 30 OFFCURVE",
"72 -10 OFFCURVE",
"129 -10 CURVE SMOOTH",
"187 -10 OFFCURVE",
"226 32 OFFCURVE",
"226 90 CURVE SMOOTH",
"226 135 OFFCURVE",
"202 222 OFFCURVE",
"202 269 CURVE SMOOTH",
"202 316 OFFCURVE",
"226 361 OFFCURVE",
"274 373 CURVE",
"274 379 LINE",
"253 408 OFFCURVE",
"207 430 OFFCURVE",
"156 434 CURVE",
"178 496 OFFCURVE",
"241 538 OFFCURVE",
"321 538 CURVE SMOOTH",
"414 538 OFFCURVE",
"481 479 OFFCURVE",
"481 382 CURVE SMOOTH",
"481 -249 LINE",
"421 -191 OFFCURVE",
"304 -134 OFFCURVE",
"226 -134 CURVE SMOOTH",
"152 -134 OFFCURVE",
"107 -173 OFFCURVE",
"107 -229 CURVE SMOOTH",
"107 -284 OFFCURVE",
"147 -316 OFFCURVE",
"206 -316 CURVE SMOOTH"
);
},
{
closed = 1;
nodes = (
"100 40 OFFCURVE",
"80 60 OFFCURVE",
"80 88 CURVE SMOOTH",
"80 116 OFFCURVE",
"100 136 OFFCURVE",
"128 136 CURVE SMOOTH",
"156 136 OFFCURVE",
"176 116 OFFCURVE",
"176 88 CURVE SMOOTH",
"176 60 OFFCURVE",
"156 40 OFFCURVE",
"128 40 CURVE SMOOTH"
);
}
);
width = 617;
}
);
note = uni0E0E;
unicode = 0E0E;
},
{
color = 4;
glyphname = "toPatak-thai";
lastChange = "2018-02-26 18:21:35 +0000";
layers = (
{
background = {
paths = (
{
closed = 1;
nodes = (
"212 -251 OFFCURVE",
"194 -278 OFFCURVE",
"158 -278 CURVE SMOOTH",
"127 -278 OFFCURVE",
"111 -263 OFFCURVE",
"111 -234 CURVE SMOOTH",
"111 -200 OFFCURVE",
"130 -184 OFFCURVE",
"168 -184 CURVE SMOOTH",
"189 -184 OFFCURVE",
"203 -188 OFFCURVE",
"212 -197 CURVE"
);
},
{
closed = 1;
nodes = (
"538 388 LINE SMOOTH",
"538 512 OFFCURVE",
"452 588 OFFCURVE",
"327 588 CURVE SMOOTH",
"269 588 OFFCURVE",
"219 570 OFFCURVE",
"177 534 CURVE SMOOTH",
"134 498 OFFCURVE",
"111 453 OFFCURVE",
"106 398 CURVE",
"112 400 OFFCURVE",
"121 400 OFFCURVE",
"134 400 CURVE SMOOTH",
"159 400 OFFCURVE",
"186 394 OFFCURVE",
"212 382 CURVE",
"172 357 OFFCURVE",
"153 322 OFFCURVE",
"153 276 CURVE SMOOTH",
"153 253 OFFCURVE",
"156 219 OFFCURVE",
"162 173 CURVE",
"149 178 OFFCURVE",
"137 181 OFFCURVE",
"127 181 CURVE SMOOTH",
"74 181 OFFCURVE",
"31 137 OFFCURVE",
"31 84 CURVE SMOOTH",
"31 31 OFFCURVE",
"74 -12 OFFCURVE",
"127 -12 CURVE SMOOTH",
"180 -12 OFFCURVE",
"224 31 OFFCURVE",
"224 88 CURVE SMOOTH",
"224 112 OFFCURVE",
"222 132 OFFCURVE",
"218 150 CURVE SMOOTH",
"209 190 OFFCURVE",
"205 229 OFFCURVE",
"205 268 CURVE SMOOTH",
"205 322 OFFCURVE",
"231 357 OFFCURVE",
"284 375 CURVE",
"256 413 OFFCURVE",
"217 435 OFFCURVE",
"165 440 CURVE",
"189 498 OFFCURVE",
"259 541 OFFCURVE",
"325 541 CURVE SMOOTH",
"419 541 OFFCURVE",
"486 478 OFFCURVE",
"486 382 CURVE SMOOTH",
"486 -248 LINE",
"400 -153 LINE",
"331 -245 LINE",
"259 -169 LINE",
"261 -135 OFFCURVE",
"278 -107 OFFCURVE",
"312 -87 CURVE",
"272 -63 LINE",
"234 -85 OFFCURVE",
"214 -115 OFFCURVE",
"212 -148 CURVE",
"199 -141 OFFCURVE",
"183 -138 OFFCURVE",
"164 -138 CURVE SMOOTH",
"109 -138 OFFCURVE",
"67 -175 OFFCURVE",
"67 -232 CURVE SMOOTH",
"67 -284 OFFCURVE",
"100 -323 OFFCURVE",
"161 -323 CURVE SMOOTH",
"209 -323 OFFCURVE",
"253 -287 OFFCURVE",
"255 -226 CURVE",
"336 -315 LINE",
"400 -226 LINE",
"480 -316 LINE",
"538 -316 LINE"
);
},
{
closed = 1;
nodes = (
"177 56 OFFCURVE",
"155 35 OFFCURVE",
"127 35 CURVE SMOOTH",
"99 35 OFFCURVE",
"78 56 OFFCURVE",
"78 84 CURVE SMOOTH",
"78 112 OFFCURVE",
"99 134 OFFCURVE",
"127 134 CURVE SMOOTH",
"155 134 OFFCURVE",
"177 112 OFFCURVE",
"177 84 CURVE SMOOTH"
);
}
);
};
layerId = "0B1DFD06-3317-40CA-B510-4969A0718C16";
paths = (
{
closed = 1;
nodes = (
"229 -323 OFFCURVE",
"265 -270 OFFCURVE",
"260 -188 CURVE SMOOTH",
"258 -151 OFFCURVE",
"272 -115 OFFCURVE",
"315 -88 CURVE",
"273 -63 LINE",
"232 -86 OFFCURVE",
"208 -120 OFFCURVE",
"210 -171 CURVE SMOOTH",
"217 -242 OFFCURVE",
"200 -275 OFFCURVE",
"158 -275 CURVE SMOOTH",
"130 -275 OFFCURVE",
"114 -260 OFFCURVE",
"114 -232 CURVE SMOOTH",
"114 -202 OFFCURVE",
"134 -184 OFFCURVE",
"169 -184 CURVE SMOOTH",
"223 -184 OFFCURVE",
"265 -230 OFFCURVE",
"333 -316 CURVE",
"401 -224 LINE",
"480 -316 LINE",
"537 -316 LINE",
"537 387 LINE SMOOTH",
"537 509 OFFCURVE",
"452 586 OFFCURVE",
"325 586 CURVE SMOOTH",
"196 586 OFFCURVE",
"107 507 OFFCURVE",
"96 396 CURVE",
"142 396 OFFCURVE",
"185 390 OFFCURVE",
"208 380 CURVE",
"170 363 OFFCURVE",
"146 317 OFFCURVE",
"146 268 CURVE SMOOTH",
"146 241 OFFCURVE",
"153 210 OFFCURVE",
"162 175 CURVE",
"170 177 LINE",
"160 182 OFFCURVE",
"144 186 OFFCURVE",
"126 186 CURVE SMOOTH",
"68 186 OFFCURVE",
"30 143 OFFCURVE",
"30 88 CURVE SMOOTH",
"30 30 OFFCURVE",
"72 -10 OFFCURVE",
"129 -10 CURVE SMOOTH",
"187 -10 OFFCURVE",
"226 32 OFFCURVE",
"226 90 CURVE SMOOTH",
"226 135 OFFCURVE",
"202 222 OFFCURVE",
"202 269 CURVE SMOOTH",
"202 316 OFFCURVE",
"226 361 OFFCURVE",
"274 373 CURVE",
"274 379 LINE",
"253 408 OFFCURVE",
"207 430 OFFCURVE",
"156 434 CURVE",
"178 496 OFFCURVE",
"241 538 OFFCURVE",
"321 538 CURVE SMOOTH",
"414 538 OFFCURVE",
"481 479 OFFCURVE",
"481 382 CURVE SMOOTH",
"481 -247 LINE",
"398 -158 LINE",
"332 -244 LINE",
"288 -183 OFFCURVE",
"243 -138 OFFCURVE",
"169 -138 CURVE SMOOTH",
"112 -138 OFFCURVE",
"67 -174 OFFCURVE",
"67 -232 CURVE SMOOTH",
"67 -284 OFFCURVE",
"102 -323 OFFCURVE",
"160 -323 CURVE SMOOTH"
);
},
{
closed = 1;
nodes = (
"100 40 OFFCURVE",
"80 60 OFFCURVE",
"80 88 CURVE SMOOTH",
"80 116 OFFCURVE",
"100 136 OFFCURVE",
"128 136 CURVE SMOOTH",
"156 136 OFFCURVE",
"176 116 OFFCURVE",
"176 88 CURVE SMOOTH",
"176 60 OFFCURVE",
"156 40 OFFCURVE",
"128 40 CURVE SMOOTH"
);
}
);
width = 617;
}
);
note = uni0E0F;
unicode = 0E0F;
},
{
color = 4;
glyphname = "ru_lakkhangyao-thai";
lastChange = "2018-02-26 17:40:26 +0000";
layers = (
{
layerId = "0B1DFD06-3317-40CA-B510-4969A0718C16";
paths = (
{
closed = 1;
nodes = (
"489 -250 LINE",
"489 387 LINE SMOOTH",
"489 509 OFFCURVE",
"408 586 OFFCURVE",
"280 586 CURVE SMOOTH",
"152 586 OFFCURVE",
"62 512 OFFCURVE",
"50 396 CURVE",
"93 396 OFFCURVE",
"135 389 OFFCURVE",
"159 379 CURVE",
"114 360 OFFCURVE",
"85 316 OFFCURVE",
"85 265 CURVE SMOOTH",
"85 89 LINE SMOOTH",
"85 32 OFFCURVE",
"124 -10 OFFCURVE",
"182 -10 CURVE SMOOTH",
"239 -10 OFFCURVE",
"281 30 OFFCURVE",
"281 88 CURVE SMOOTH",
"281 143 OFFCURVE",
"243 186 OFFCURVE",
"185 186 CURVE SMOOTH",
"167 186 OFFCURVE",
"151 182 OFFCURVE",
"141 177 CURVE",
"141 266 LINE SMOOTH",
"141 317 OFFCURVE",
"175 359 OFFCURVE",
"228 373 CURVE",
"228 379 LINE",
"207 408 OFFCURVE",
"161 430 OFFCURVE",
"110 434 CURVE",
"133 499 OFFCURVE",
"198 538 OFFCURVE",
"277 538 CURVE SMOOTH",
"372 538 OFFCURVE",
"433 479 OFFCURVE",
"433 382 CURVE SMOOTH",
"433 -250 LINE"
);
},
{
closed = 1;
nodes = (
"155 40 OFFCURVE",
"135 60 OFFCURVE",
"135 88 CURVE SMOOTH",
"135 116 OFFCURVE",
"155 136 OFFCURVE",
"183 136 CURVE SMOOTH",
"211 136 OFFCURVE",
"231 116 OFFCURVE",
"231 88 CURVE SMOOTH",
"231 60 OFFCURVE",
"211 40 OFFCURVE",
"183 40 CURVE SMOOTH"
);
},
{
closed = 1;
nodes = (
"780 -250 LINE",
"780 428 LINE SMOOTH",
"780 525 OFFCURVE",
"713 586 OFFCURVE",
"608 586 CURVE SMOOTH",
"514 586 OFFCURVE",
"446 526 OFFCURVE",
"434 432 CURVE",
"481 432 LINE",
"491 499 OFFCURVE",
"542 538 OFFCURVE",
"604 538 CURVE SMOOTH",
"677 538 OFFCURVE",
"724 498 OFFCURVE",
"724 430 CURVE SMOOTH",
"724 -250 LINE"
);
}
);
width = 860;
}
);
note = "ru_lakkhangyao-thai";
},
{
color = 4;
glyphname = "lu_lakkhangyao-thai";
lastChange = "2018-02-26 18:22:02 +0000";
layers = (
{
layerId = "0B1DFD06-3317-40CA-B510-4969A0718C16";
paths = (
{
closed = 1;
nodes = (
"525 -250 LINE",
"525 387 LINE SMOOTH",
"525 509 OFFCURVE",
"446 586 OFFCURVE",
"319 586 CURVE SMOOTH",
"190 586 OFFCURVE",
"107 507 OFFCURVE",
"96 396 CURVE",
"142 396 OFFCURVE",
"185 390 OFFCURVE",
"208 380 CURVE",
"170 363 OFFCURVE",
"146 317 OFFCURVE",
"146 268 CURVE SMOOTH",
"146 241 OFFCURVE",
"153 210 OFFCURVE",
"162 175 CURVE",
"170 177 LINE",
"160 182 OFFCURVE",
"144 186 OFFCURVE",
"126 186 CURVE SMOOTH",
"68 186 OFFCURVE",
"30 143 OFFCURVE",
"30 88 CURVE SMOOTH",
"30 30 OFFCURVE",
"72 -10 OFFCURVE",
"129 -10 CURVE SMOOTH",
"187 -10 OFFCURVE",
"226 32 OFFCURVE",
"226 90 CURVE SMOOTH",
"226 135 OFFCURVE",
"202 222 OFFCURVE",
"202 269 CURVE SMOOTH",
"202 316 OFFCURVE",
"226 361 OFFCURVE",
"274 373 CURVE",
"274 379 LINE",
"253 408 OFFCURVE",
"207 430 OFFCURVE",
"156 434 CURVE",
"178 496 OFFCURVE",
"235 538 OFFCURVE",
"315 538 CURVE SMOOTH",
"408 538 OFFCURVE",
"469 479 OFFCURVE",
"469 382 CURVE SMOOTH",
"469 -250 LINE"
);
},
{
closed = 1;
nodes = (
"100 40 OFFCURVE",
"80 60 OFFCURVE",
"80 88 CURVE SMOOTH",
"80 116 OFFCURVE",
"100 136 OFFCURVE",
"128 136 CURVE SMOOTH",
"156 136 OFFCURVE",
"176 116 OFFCURVE",
"176 88 CURVE SMOOTH",
"176 60 OFFCURVE",
"156 40 OFFCURVE",
"128 40 CURVE SMOOTH"
);
},
{
closed = 1;
nodes = (
"816 -250 LINE",
"816 428 LINE SMOOTH",
"816 525 OFFCURVE",
"749 586 OFFCURVE",
"644 586 CURVE SMOOTH",
"550 586 OFFCURVE",
"482 526 OFFCURVE",
"470 432 CURVE",
"517 432 LINE",
"527 499 OFFCURVE",
"578 538 OFFCURVE",
"640 538 CURVE SMOOTH",
"713 538 OFFCURVE",
"760 498 OFFCURVE",
"760 430 CURVE SMOOTH",
"760 -250 LINE"
);
}
);
width = 896;
}
);
note = "lu_lakkhangyao-thai";
},
{
color = 4;
glyphname = "yoYing-thai";
lastChange = "2018-02-26 17:47:43 +0000";
layers = (
{
background = {
paths = (
{
closed = 1;
nodes = (
"637 -251 OFFCURVE",
"699 -169 OFFCURVE",
"703 -50 CURVE",
"648 -50 LINE",
"647 -156 OFFCURVE",
"602 -209 OFFCURVE",
"521 -209 CURVE SMOOTH",
"502 -209 OFFCURVE",
"488 -206 OFFCURVE",
"476 -198 CURVE",
"508 -186 OFFCURVE",
"528 -158 OFFCURVE",
"528 -126 CURVE SMOOTH",
"528 -76 OFFCURVE",
"497 -44 OFFCURVE",
"448 -44 CURVE SMOOTH",
"399 -44 OFFCURVE",
"368 -76 OFFCURVE",
"368 -126 CURVE SMOOTH",
"368 -202 OFFCURVE",
"430 -251 OFFCURVE",
"527 -251 CURVE SMOOTH"
);
},
{
closed = 1;
nodes = (
"424 -163 OFFCURVE",
"409 -147 OFFCURVE",
"409 -123 CURVE SMOOTH",
"409 -99 OFFCURVE",
"424 -84 OFFCURVE",
"448 -84 CURVE SMOOTH",
"472 -84 OFFCURVE",
"488 -99 OFFCURVE",
"488 -123 CURVE SMOOTH",
"488 -147 OFFCURVE",
"472 -163 OFFCURVE",
"448 -163 CURVE SMOOTH"
);
}
);
};
layerId = "0B1DFD06-3317-40CA-B510-4969A0718C16";
paths = (
{
closed = 1;
nodes = (
"239 -10 OFFCURVE",
"281 30 OFFCURVE",
"281 88 CURVE SMOOTH",
"281 143 OFFCURVE",
"243 186 OFFCURVE",
"185 186 CURVE SMOOTH",
"167 186 OFFCURVE",
"151 182 OFFCURVE",
"141 177 CURVE",
"141 266 LINE SMOOTH",
"141 317 OFFCURVE",
"175 359 OFFCURVE",
"228 373 CURVE",
"228 379 LINE",
"207 408 OFFCURVE",
"161 430 OFFCURVE",
"110 434 CURVE",
"133 499 OFFCURVE",
"185 538 OFFCURVE",
"263 538 CURVE SMOOTH",
"359 538 OFFCURVE",
"415 479 OFFCURVE",
"415 382 CURVE SMOOTH",
"415 124 LINE SMOOTH",
"415 34 OFFCURVE",
"480 -10 OFFCURVE",
"575 -10 CURVE SMOOTH",
"671 -10 OFFCURVE",
"737 34 OFFCURVE",
"737 123 CURVE SMOOTH",
"737 576 LINE",
"681 576 LINE",
"681 118 LINE SMOOTH",
"681 65 OFFCURVE",
"637 38 OFFCURVE",
"577 38 CURVE SMOOTH",
"517 38 OFFCURVE",
"471 65 OFFCURVE",
"471 118 CURVE SMOOTH",
"471 387 LINE SMOOTH",
"471 509 OFFCURVE",
"395 586 OFFCURVE",
"266 586 CURVE SMOOTH",
"136 586 OFFCURVE",
"61 508 OFFCURVE",
"50 396 CURVE",
"93 396 OFFCURVE",
"135 389 OFFCURVE",
"159 379 CURVE",
"114 360 OFFCURVE",
"85 316 OFFCURVE",
"85 265 CURVE SMOOTH",
"85 89 LINE SMOOTH",
"85 32 OFFCURVE",
"124 -10 OFFCURVE",
"182 -10 CURVE SMOOTH"
);
},
{
closed = 1;
nodes = (
"155 40 OFFCURVE",
"135 60 OFFCURVE",
"135 88 CURVE SMOOTH",
"135 116 OFFCURVE",
"155 136 OFFCURVE",
"183 136 CURVE SMOOTH",
"211 136 OFFCURVE",
"231 116 OFFCURVE",
"231 88 CURVE SMOOTH",
"231 60 OFFCURVE",
"211 40 OFFCURVE",
"183 40 CURVE SMOOTH"
);
},
{
closed = 1;
nodes = (
"674 -245 OFFCURVE",
"733 -163 OFFCURVE",
"736 -46 CURVE",
"679 -46 LINE",
"678 -152 OFFCURVE",
"633 -201 OFFCURVE",
"557 -201 CURVE SMOOTH",
"539 -201 OFFCURVE",
"523 -198 OFFCURVE",
"513 -194 CURVE",
"545 -181 OFFCURVE",
"563 -154 OFFCURVE",
"563 -122 CURVE SMOOTH",
"563 -75 OFFCURVE",
"528 -44 OFFCURVE",
"482 -44 CURVE SMOOTH",
"438 -44 OFFCURVE",
"402 -76 OFFCURVE",
"402 -124 CURVE SMOOTH",
"402 -187 OFFCURVE",
"465 -245 OFFCURVE",
"560 -245 CURVE SMOOTH"
);
},
{
closed = 1;
nodes = (
"460 -159 OFFCURVE",
"446 -144 OFFCURVE",
"446 -121 CURVE SMOOTH",
"446 -98 OFFCURVE",
"460 -83 OFFCURVE",
"482 -83 CURVE SMOOTH",
"506 -83 OFFCURVE",
"520 -98 OFFCURVE",
"520 -121 CURVE SMOOTH",
"520 -144 OFFCURVE",
"506 -159 OFFCURVE",
"482 -159 CURVE SMOOTH"
);
}
);
width = 817;
}
);
note = uni0E0D;
unicode = 0E0D;
},
